%TF.GenerationSoftware,KiCad,Pcbnew,9.0.6*%
%TF.CreationDate,2026-07-07T23:51:20+02:00*%
%TF.ProjectId,MagneticSensors,4d61676e-6574-4696-9353-656e736f7273,rev?*%
%TF.SameCoordinates,Original*%
%TF.FileFunction,Soldermask,Bot*%
%TF.FilePolarity,Negative*%
%FSLAX46Y46*%
G04 Gerber Fmt 4.6, Leading zero omitted, Abs format (unit mm)*
G04 Created by KiCad (PCBNEW 9.0.6) date 2026-07-07 23:51:20*
%MOMM*%
%LPD*%
G01*
G04 APERTURE LIST*
%ADD10R,1.700000X1.700000*%
%ADD11C,1.700000*%
%ADD12R,1.050000X1.500000*%
%ADD13O,1.050000X1.500000*%
%ADD14C,1.070000*%
G04 APERTURE END LIST*
D10*
%TO.C,J9*%
X147000000Y-66170000D03*
D11*
X147000000Y-68710000D03*
X147000000Y-71250000D03*
%TD*%
D10*
%TO.C,J8*%
X147000000Y-78710000D03*
D11*
X147000000Y-81250000D03*
X147000000Y-83790000D03*
%TD*%
D10*
%TO.C,JP4*%
X114225000Y-81250000D03*
D11*
X116765000Y-81250000D03*
%TD*%
D10*
%TO.C,JP3*%
X114225000Y-68750000D03*
D11*
X116765000Y-68750000D03*
%TD*%
D10*
%TO.C,J10*%
X147000000Y-58790000D03*
D11*
X147000000Y-56250000D03*
X147000000Y-53710000D03*
%TD*%
D10*
%TO.C,J3*%
X110120000Y-53000000D03*
D11*
X107580000Y-53000000D03*
X105040000Y-53000000D03*
X102500000Y-53000000D03*
%TD*%
D10*
%TO.C,J1*%
X102500000Y-69775000D03*
D11*
X102500000Y-67235000D03*
%TD*%
D10*
%TO.C,J4*%
X102500000Y-97790000D03*
D11*
X102500000Y-95250000D03*
%TD*%
D10*
%TO.C,J7*%
X147000000Y-91210000D03*
D11*
X147000000Y-93750000D03*
X147000000Y-96290000D03*
%TD*%
D10*
%TO.C,JP2*%
X109750000Y-86225000D03*
D11*
X109750000Y-88765000D03*
%TD*%
D10*
%TO.C,J6*%
X106975000Y-97000000D03*
D11*
X109515000Y-97000000D03*
%TD*%
D10*
%TO.C,J2*%
X102500000Y-88185000D03*
D11*
X102500000Y-90725000D03*
%TD*%
D10*
%TO.C,JP5*%
X114750000Y-63775000D03*
D11*
X114750000Y-61235000D03*
%TD*%
D12*
%TO.C,U2*%
X123730000Y-81110000D03*
D13*
X125000000Y-81110000D03*
X126270000Y-81110000D03*
%TD*%
D14*
%TO.C,IC2*%
X120592000Y-56250000D03*
X121862000Y-56250000D03*
X123132000Y-56250000D03*
X124402000Y-56250000D03*
X125672000Y-56250000D03*
X126942000Y-56250000D03*
X128212000Y-56250000D03*
X129482000Y-56250000D03*
%TD*%
M02*
