%TF.GenerationSoftware,KiCad,Pcbnew,9.0.6*%
%TF.CreationDate,2026-07-07T23:51:20+02:00*%
%TF.ProjectId,MagneticSensors,4d61676e-6574-4696-9353-656e736f7273,rev?*%
%TF.SameCoordinates,Original*%
%TF.FileFunction,Copper,L4,Bot*%
%TF.FilePolarity,Positive*%
%FSLAX46Y46*%
G04 Gerber Fmt 4.6, Leading zero omitted, Abs format (unit mm)*
G04 Created by KiCad (PCBNEW 9.0.6) date 2026-07-07 23:51:20*
%MOMM*%
%LPD*%
G01*
G04 APERTURE LIST*
%TA.AperFunction,ComponentPad*%
%ADD10R,1.700000X1.700000*%
%TD*%
%TA.AperFunction,ComponentPad*%
%ADD11C,1.700000*%
%TD*%
%TA.AperFunction,ComponentPad*%
%ADD12R,1.050000X1.500000*%
%TD*%
%TA.AperFunction,ComponentPad*%
%ADD13O,1.050000X1.500000*%
%TD*%
%TA.AperFunction,ComponentPad*%
%ADD14C,1.070000*%
%TD*%
%TA.AperFunction,ViaPad*%
%ADD15C,0.600000*%
%TD*%
%TA.AperFunction,Conductor*%
%ADD16C,0.300000*%
%TD*%
%TA.AperFunction,Conductor*%
%ADD17C,0.200000*%
%TD*%
G04 APERTURE END LIST*
D10*
%TO.P,J9,1,Pin_1*%
%TO.N,GND*%
X147000000Y-66170000D03*
D11*
%TO.P,J9,2,Pin_2*%
%TO.N,ALT021_LPF_OUT-*%
X147000000Y-68710000D03*
%TO.P,J9,3,Pin_3*%
%TO.N,ALT021_LPF_OUT+*%
X147000000Y-71250000D03*
%TD*%
D10*
%TO.P,J8,1,Pin_1*%
%TO.N,DRV5055_REFOUT*%
X147000000Y-78710000D03*
D11*
%TO.P,J8,2,Pin_2*%
%TO.N,DRV5055_LPF_OUT*%
X147000000Y-81250000D03*
%TO.P,J8,3,Pin_3*%
%TO.N,GND*%
X147000000Y-83790000D03*
%TD*%
D10*
%TO.P,JP4,1,A*%
%TO.N,VCC*%
X114225000Y-81250000D03*
D11*
%TO.P,JP4,2,B*%
%TO.N,VCC_DRV5055*%
X116765000Y-81250000D03*
%TD*%
D10*
%TO.P,JP3,1,A*%
%TO.N,VCC*%
X114225000Y-68750000D03*
D11*
%TO.P,JP3,2,B*%
%TO.N,VCC_ALT021*%
X116765000Y-68750000D03*
%TD*%
D10*
%TO.P,J10,1,Pin_1*%
%TO.N,GND*%
X147000000Y-58790000D03*
D11*
%TO.P,J10,2,Pin_2*%
%TO.N,HMC1001_LPF_OUT-*%
X147000000Y-56250000D03*
%TO.P,J10,3,Pin_3*%
%TO.N,HMC1001_LPF_OUT+*%
X147000000Y-53710000D03*
%TD*%
D10*
%TO.P,J3,1,Pin_1*%
%TO.N,8V*%
X110120000Y-53000000D03*
D11*
%TO.P,J3,2,Pin_2*%
%TO.N,GND*%
X107580000Y-53000000D03*
%TO.P,J3,3,Pin_3*%
%TO.N,SR_IN*%
X105040000Y-53000000D03*
%TO.P,J3,4,Pin_4*%
%TO.N,GND*%
X102500000Y-53000000D03*
%TD*%
D10*
%TO.P,J1,1,Pin_1*%
%TO.N,VCC*%
X102500000Y-69775000D03*
D11*
%TO.P,J1,2,Pin_2*%
%TO.N,GND*%
X102500000Y-67235000D03*
%TD*%
D10*
%TO.P,J4,1,Pin_1*%
%TO.N,VCC*%
X102500000Y-97790000D03*
D11*
%TO.P,J4,2,Pin_2*%
%TO.N,GND*%
X102500000Y-95250000D03*
%TD*%
D10*
%TO.P,J7,1,Pin_1*%
%TO.N,GND*%
X147000000Y-91210000D03*
D11*
%TO.P,J7,2,Pin_2*%
%TO.N,DRV425_LPF_OUT*%
X147000000Y-93750000D03*
%TO.P,J7,3,Pin_3*%
%TO.N,DRV425_REFOUT*%
X147000000Y-96290000D03*
%TD*%
D10*
%TO.P,JP2,1,A*%
%TO.N,VCC*%
X109750000Y-86225000D03*
D11*
%TO.P,JP2,2,B*%
%TO.N,VCC_DRV425*%
X109750000Y-88765000D03*
%TD*%
D10*
%TO.P,J6,1,Pin_1*%
%TO.N,ERROR*%
X106975000Y-97000000D03*
D11*
%TO.P,J6,2,Pin_2*%
%TO.N,GND*%
X109515000Y-97000000D03*
%TD*%
D10*
%TO.P,J2,1,Pin_1*%
%TO.N,VBAT*%
X102500000Y-88185000D03*
D11*
%TO.P,J2,2,Pin_2*%
%TO.N,GND*%
X102500000Y-90725000D03*
%TD*%
D10*
%TO.P,JP5,1,A*%
%TO.N,VCC*%
X114750000Y-63775000D03*
D11*
%TO.P,JP5,2,B*%
%TO.N,VCC_HMC1001*%
X114750000Y-61235000D03*
%TD*%
D12*
%TO.P,U2,1,VCC*%
%TO.N,VCC_DRV5055*%
X123730000Y-81110000D03*
D13*
%TO.P,U2,2,GND*%
%TO.N,GND*%
X125000000Y-81110000D03*
%TO.P,U2,3,OUT*%
%TO.N,DRV5055_OUT*%
X126270000Y-81110000D03*
%TD*%
D14*
%TO.P,IC2,1,S/R+*%
%TO.N,Net-(IC2-S{slash}R+)*%
X120592000Y-56250000D03*
%TO.P,IC2,2,OFFSET+*%
%TO.N,unconnected-(IC2-OFFSET+-Pad2)*%
X121862000Y-56250000D03*
%TO.P,IC2,3,S/R-*%
%TO.N,GND*%
X123132000Y-56250000D03*
%TO.P,IC2,4,GND*%
X124402000Y-56250000D03*
%TO.P,IC2,5,OUT+*%
%TO.N,HMC1001_OUT+*%
X125672000Y-56250000D03*
%TO.P,IC2,6,OFFSET-*%
%TO.N,unconnected-(IC2-OFFSET--Pad6)*%
X126942000Y-56250000D03*
%TO.P,IC2,7,VBRIDGE*%
%TO.N,VCC_HMC1001*%
X128212000Y-56250000D03*
%TO.P,IC2,8,OUT-*%
%TO.N,HMC1001_OUT-*%
X129482000Y-56250000D03*
%TD*%
D15*
%TO.N,GND*%
X140000000Y-70000000D03*
X141250000Y-95250000D03*
X145250000Y-95250000D03*
X145250000Y-70000000D03*
X145250000Y-80000000D03*
X145000000Y-55000000D03*
X135000000Y-55000000D03*
X140250000Y-55000000D03*
X131250000Y-55000000D03*
X133750000Y-69500000D03*
X130000000Y-69500000D03*
X125000000Y-94500000D03*
X143750000Y-75500000D03*
X120000000Y-64250000D03*
X119500000Y-91750000D03*
X120000000Y-58500000D03*
X133750000Y-97750000D03*
X143750000Y-84500000D03*
X125750000Y-94500000D03*
X130000000Y-62500000D03*
X124250000Y-59250000D03*
X104750000Y-86250000D03*
X143750000Y-74502500D03*
X141250000Y-58750000D03*
X126250000Y-97750000D03*
X125000000Y-93750000D03*
X144750000Y-62500000D03*
X144750000Y-87250000D03*
X103500000Y-80500000D03*
X124250000Y-93000000D03*
X110000000Y-55650000D03*
X115500000Y-85250000D03*
X113250000Y-89040000D03*
X126250000Y-75750000D03*
X139000000Y-52250000D03*
X133750000Y-58750000D03*
X130000000Y-97750000D03*
X103000000Y-81250000D03*
X130000000Y-58750000D03*
X148750000Y-62500000D03*
X141750000Y-91750000D03*
X105977441Y-62021306D03*
X116250000Y-52250000D03*
X137500000Y-79750000D03*
X130000000Y-72500000D03*
X101500000Y-83500000D03*
X121250000Y-98750000D03*
X137500000Y-62500000D03*
X133750000Y-82500000D03*
X130000000Y-66000000D03*
X116000000Y-58500000D03*
X130000000Y-82500000D03*
X127500000Y-52250000D03*
X124250000Y-93750000D03*
X126500000Y-57750000D03*
X137500000Y-97750000D03*
X121000000Y-69750000D03*
X132250000Y-92500000D03*
X126750000Y-84250000D03*
X101500000Y-79000000D03*
X112000000Y-93500000D03*
X142000000Y-51750000D03*
X138500000Y-91750000D03*
X125750000Y-93750000D03*
X131250000Y-52250000D03*
X148750000Y-87750000D03*
X145018750Y-58250000D03*
X135000000Y-52250000D03*
X133750000Y-66000000D03*
X126500000Y-70000000D03*
X133750000Y-72500000D03*
X126250000Y-72500000D03*
X143750000Y-90500000D03*
X141250000Y-97750000D03*
X105000000Y-81250000D03*
X112500000Y-52250000D03*
X132250000Y-94500000D03*
X148500000Y-75250000D03*
X113235000Y-97290000D03*
X137500000Y-58750000D03*
X126250000Y-66000000D03*
X127750000Y-89750000D03*
X125750000Y-93000000D03*
X106750000Y-83250000D03*
X125000000Y-93000000D03*
X133750000Y-75750000D03*
X120000000Y-52250000D03*
X104750000Y-76500000D03*
X107500000Y-66750000D03*
X124250000Y-94500000D03*
X101250000Y-59750000D03*
X137500000Y-87250000D03*
X102000000Y-81250000D03*
X104000000Y-81250000D03*
X106000000Y-77750000D03*
X143750000Y-65752500D03*
X119000000Y-75750000D03*
X137500000Y-82500000D03*
X130000000Y-87250000D03*
X136250000Y-94500000D03*
X123750000Y-52250000D03*
X119500000Y-88500000D03*
X111500000Y-75750000D03*
X133750000Y-79750000D03*
X145000000Y-97750000D03*
X106000000Y-85000000D03*
X145018750Y-51712500D03*
X110250000Y-70500000D03*
X111000000Y-63000000D03*
X108000000Y-82000000D03*
X130000000Y-79750000D03*
%TO.N,VCC_DRV5055*%
X140000000Y-76750000D03*
%TO.N,ERROR*%
X121750000Y-94250000D03*
X123650000Y-90950000D03*
%TO.N,VCC*%
X105000000Y-74000000D03*
X106000000Y-75000000D03*
X106000000Y-73000000D03*
X106000000Y-74000000D03*
%TO.N,VBAT*%
X104450000Y-83500000D03*
X101750000Y-85000000D03*
%TO.N,8V*%
X104250000Y-56750000D03*
%TO.N,Net-(IC2-S{slash}R+)*%
X104250000Y-60750000D03*
%TD*%
D16*
%TO.N,VCC_DRV425*%
X110265000Y-88235000D02*
X110265000Y-88250000D01*
X110265000Y-88250000D02*
X109750000Y-88765000D01*
%TO.N,VCC_DRV5055*%
X116765000Y-81250000D02*
X121265000Y-76750000D01*
X123590000Y-81250000D02*
X123730000Y-81110000D01*
X121265000Y-76750000D02*
X140000000Y-76750000D01*
D17*
%TO.N,ERROR*%
X121750000Y-92500000D02*
X121750000Y-94250000D01*
X123650000Y-90950000D02*
X123625000Y-90975000D01*
X120349000Y-95651000D02*
X108824000Y-95651000D01*
X121750000Y-94250000D02*
X120349000Y-95651000D01*
X108824000Y-95651000D02*
X106975000Y-97500000D01*
X123625000Y-90975000D02*
X123275000Y-90975000D01*
X123275000Y-90975000D02*
X121750000Y-92500000D01*
D16*
%TO.N,VCC*%
X109750000Y-77750000D02*
X106000000Y-74000000D01*
X102210000Y-97500000D02*
X102500000Y-97500000D01*
X105000000Y-73960000D02*
X105040000Y-74000000D01*
X100750000Y-78290000D02*
X100750000Y-96040000D01*
X100750000Y-96040000D02*
X102210000Y-97500000D01*
X105040000Y-74000000D02*
X100750000Y-78290000D01*
X109750000Y-86225000D02*
X109750000Y-77750000D01*
%TO.N,VBAT*%
X103250000Y-83500000D02*
X104450000Y-83500000D01*
X101750000Y-85000000D02*
X103250000Y-83500000D01*
%TO.N,8V*%
X106370000Y-56750000D02*
X104250000Y-56750000D01*
X110120000Y-53000000D02*
X106370000Y-56750000D01*
D17*
%TO.N,Net-(IC2-S{slash}R+)*%
X108750000Y-56250000D02*
X120592000Y-56250000D01*
X104250000Y-60750000D02*
X108750000Y-56250000D01*
%TD*%
%TA.AperFunction,Conductor*%
%TO.N,GND*%
G36*
X149442539Y-50520185D02*
G01*
X149488294Y-50572989D01*
X149499500Y-50624500D01*
X149499500Y-99375500D01*
X149479815Y-99442539D01*
X149427011Y-99488294D01*
X149375500Y-99499500D01*
X100624500Y-99499500D01*
X100557461Y-99479815D01*
X100511706Y-99427011D01*
X100500500Y-99375500D01*
X100500500Y-96656255D01*
X100520185Y-96589216D01*
X100572989Y-96543461D01*
X100642147Y-96533517D01*
X100705703Y-96562542D01*
X100712181Y-96568574D01*
X101363181Y-97219574D01*
X101396666Y-97280897D01*
X101399500Y-97307255D01*
X101399500Y-98664678D01*
X101414032Y-98737735D01*
X101414033Y-98737739D01*
X101414034Y-98737740D01*
X101469399Y-98820601D01*
X101552260Y-98875966D01*
X101552264Y-98875967D01*
X101625321Y-98890499D01*
X101625324Y-98890500D01*
X101625326Y-98890500D01*
X103374676Y-98890500D01*
X103374677Y-98890499D01*
X103447740Y-98875966D01*
X103530601Y-98820601D01*
X103585966Y-98737740D01*
X103600500Y-98664674D01*
X103600500Y-96915326D01*
X103600500Y-96915323D01*
X103600499Y-96915321D01*
X103585967Y-96842264D01*
X103585966Y-96842260D01*
X103562411Y-96807007D01*
X103530601Y-96759399D01*
X103447740Y-96704034D01*
X103447739Y-96704033D01*
X103447735Y-96704032D01*
X103374677Y-96689500D01*
X103374674Y-96689500D01*
X103164950Y-96689500D01*
X103097911Y-96669815D01*
X103052156Y-96617011D01*
X103042212Y-96547853D01*
X103071237Y-96484297D01*
X103108655Y-96455015D01*
X103207554Y-96404622D01*
X103261716Y-96365270D01*
X103261717Y-96365270D01*
X103021768Y-96125321D01*
X105874500Y-96125321D01*
X105874500Y-97874678D01*
X105889032Y-97947735D01*
X105889033Y-97947739D01*
X105889034Y-97947740D01*
X105944399Y-98030601D01*
X106027260Y-98085966D01*
X106027264Y-98085967D01*
X106100321Y-98100499D01*
X106100324Y-98100500D01*
X106100326Y-98100500D01*
X107849676Y-98100500D01*
X107849677Y-98100499D01*
X107922740Y-98085966D01*
X108005601Y-98030601D01*
X108060966Y-97947740D01*
X108075500Y-97874674D01*
X108075500Y-97664949D01*
X108095185Y-97597910D01*
X108147989Y-97552155D01*
X108217147Y-97542211D01*
X108280703Y-97571236D01*
X108309985Y-97608654D01*
X108360375Y-97707550D01*
X108399728Y-97761716D01*
X109032036Y-97129407D01*
X109049075Y-97192993D01*
X109114901Y-97307007D01*
X109207993Y-97400099D01*
X109322007Y-97465925D01*
X109385590Y-97482962D01*
X108753282Y-98115269D01*
X108753282Y-98115270D01*
X108807449Y-98154624D01*
X108996782Y-98251095D01*
X109198870Y-98316757D01*
X109408754Y-98350000D01*
X109621246Y-98350000D01*
X109831127Y-98316757D01*
X109831130Y-98316757D01*
X110033217Y-98251095D01*
X110222554Y-98154622D01*
X110276716Y-98115270D01*
X110276717Y-98115270D01*
X109644408Y-97482962D01*
X109707993Y-97465925D01*
X109822007Y-97400099D01*
X109915099Y-97307007D01*
X109980925Y-97192993D01*
X109997962Y-97129409D01*
X110630270Y-97761717D01*
X110630270Y-97761716D01*
X110669622Y-97707554D01*
X110766095Y-97518217D01*
X110831757Y-97316130D01*
X110831757Y-97316127D01*
X110865000Y-97106246D01*
X110865000Y-96893753D01*
X110831757Y-96683872D01*
X110831757Y-96683869D01*
X110766095Y-96481782D01*
X110669620Y-96292441D01*
X110654337Y-96271405D01*
X110654333Y-96271402D01*
X110604920Y-96203389D01*
X145899500Y-96203389D01*
X145899500Y-96376611D01*
X145926598Y-96547701D01*
X145980127Y-96712445D01*
X146058768Y-96866788D01*
X146160586Y-97006928D01*
X146283072Y-97129414D01*
X146423212Y-97231232D01*
X146577555Y-97309873D01*
X146742299Y-97363402D01*
X146913389Y-97390500D01*
X146913390Y-97390500D01*
X147086610Y-97390500D01*
X147086611Y-97390500D01*
X147257701Y-97363402D01*
X147422445Y-97309873D01*
X147576788Y-97231232D01*
X147716928Y-97129414D01*
X147839414Y-97006928D01*
X147941232Y-96866788D01*
X148019873Y-96712445D01*
X148073402Y-96547701D01*
X148100500Y-96376611D01*
X148100500Y-96203389D01*
X148073402Y-96032299D01*
X148019873Y-95867555D01*
X147941232Y-95713212D01*
X147839414Y-95573072D01*
X147716928Y-95450586D01*
X147576788Y-95348768D01*
X147422445Y-95270127D01*
X147257701Y-95216598D01*
X147257699Y-95216597D01*
X147257698Y-95216597D01*
X147126271Y-95195781D01*
X147086611Y-95189500D01*
X146913389Y-95189500D01*
X146873728Y-95195781D01*
X146742302Y-95216597D01*
X146577552Y-95270128D01*
X146423211Y-95348768D01*
X146343256Y-95406859D01*
X146283072Y-95450586D01*
X146283070Y-95450588D01*
X146283069Y-95450588D01*
X146160588Y-95573069D01*
X146160588Y-95573070D01*
X146160586Y-95573072D01*
X146116859Y-95633256D01*
X146058768Y-95713211D01*
X145980128Y-95867552D01*
X145926597Y-96032302D01*
X145921494Y-96064524D01*
X145899500Y-96203389D01*
X110604920Y-96203389D01*
X110601284Y-96198385D01*
X110577805Y-96132578D01*
X110593631Y-96064524D01*
X110643737Y-96015830D01*
X110701603Y-96001500D01*
X120395142Y-96001500D01*
X120395144Y-96001500D01*
X120484288Y-95977614D01*
X120498517Y-95969399D01*
X120564212Y-95931470D01*
X121658863Y-94836819D01*
X121720186Y-94803334D01*
X121746544Y-94800500D01*
X121822472Y-94800500D01*
X121822475Y-94800500D01*
X121962485Y-94762984D01*
X122088015Y-94690509D01*
X122190509Y-94588015D01*
X122262984Y-94462485D01*
X122300500Y-94322475D01*
X122300500Y-94177525D01*
X122262984Y-94037515D01*
X122190509Y-93911985D01*
X122136819Y-93858295D01*
X122103334Y-93796972D01*
X122100500Y-93770614D01*
X122100500Y-92696543D01*
X122120185Y-92629504D01*
X122136814Y-92608866D01*
X123272086Y-91473594D01*
X123333407Y-91440111D01*
X123403099Y-91445095D01*
X123421764Y-91453890D01*
X123437515Y-91462984D01*
X123577525Y-91500500D01*
X123577528Y-91500500D01*
X123722472Y-91500500D01*
X123722475Y-91500500D01*
X123862485Y-91462984D01*
X123988015Y-91390509D01*
X124090509Y-91288015D01*
X124162984Y-91162485D01*
X124200500Y-91022475D01*
X124200500Y-90877525D01*
X124162984Y-90737515D01*
X124155758Y-90725000D01*
X124090511Y-90611988D01*
X124090506Y-90611982D01*
X123988017Y-90509493D01*
X123988011Y-90509488D01*
X123862488Y-90437017D01*
X123862489Y-90437017D01*
X123859407Y-90436191D01*
X123722475Y-90399500D01*
X123577525Y-90399500D01*
X123468827Y-90428626D01*
X123437511Y-90437017D01*
X123311988Y-90509488D01*
X123311981Y-90509494D01*
X123208799Y-90612675D01*
X123153216Y-90644767D01*
X123139712Y-90648385D01*
X123139708Y-90648387D01*
X123059791Y-90694527D01*
X123059786Y-90694531D01*
X121469531Y-92284786D01*
X121469527Y-92284791D01*
X121423387Y-92364709D01*
X121423386Y-92364712D01*
X121399500Y-92453856D01*
X121399500Y-93770614D01*
X121379815Y-93837653D01*
X121363181Y-93858295D01*
X121309493Y-93911982D01*
X121309488Y-93911988D01*
X121237017Y-94037511D01*
X121237016Y-94037515D01*
X121199500Y-94177525D01*
X121199500Y-94177527D01*
X121199500Y-94253456D01*
X121179815Y-94320495D01*
X121163181Y-94341137D01*
X120240137Y-95264181D01*
X120178814Y-95297666D01*
X120152456Y-95300500D01*
X108777856Y-95300500D01*
X108688712Y-95324386D01*
X108688709Y-95324387D01*
X108608791Y-95370527D01*
X108608786Y-95370531D01*
X108080146Y-95899170D01*
X108018823Y-95932655D01*
X107949131Y-95927671D01*
X107923576Y-95914592D01*
X107922742Y-95914035D01*
X107922735Y-95914032D01*
X107849677Y-95899500D01*
X107849674Y-95899500D01*
X106100326Y-95899500D01*
X106100323Y-95899500D01*
X106027264Y-95914032D01*
X106027260Y-95914033D01*
X105944399Y-95969399D01*
X105889033Y-96052260D01*
X105889032Y-96052264D01*
X105874500Y-96125321D01*
X103021768Y-96125321D01*
X102629408Y-95732962D01*
X102692993Y-95715925D01*
X102807007Y-95650099D01*
X102900099Y-95557007D01*
X102965925Y-95442993D01*
X102982962Y-95379409D01*
X103615270Y-96011717D01*
X103615271Y-96011716D01*
X103654622Y-95957554D01*
X103751095Y-95768217D01*
X103816757Y-95566130D01*
X103816757Y-95566127D01*
X103850000Y-95356246D01*
X103850000Y-95143753D01*
X103816757Y-94933872D01*
X103816757Y-94933869D01*
X103751095Y-94731782D01*
X103654624Y-94542449D01*
X103615270Y-94488282D01*
X103615269Y-94488282D01*
X102982962Y-95120590D01*
X102965925Y-95057007D01*
X102900099Y-94942993D01*
X102807007Y-94849901D01*
X102692993Y-94784075D01*
X102629409Y-94767037D01*
X103261716Y-94134728D01*
X103207550Y-94095375D01*
X103018217Y-93998904D01*
X102816129Y-93933242D01*
X102606246Y-93900000D01*
X102393754Y-93900000D01*
X102183872Y-93933242D01*
X102183869Y-93933242D01*
X101981782Y-93998904D01*
X101792439Y-94095380D01*
X101738282Y-94134727D01*
X101738282Y-94134728D01*
X102370591Y-94767037D01*
X102307007Y-94784075D01*
X102192993Y-94849901D01*
X102099901Y-94942993D01*
X102034075Y-95057007D01*
X102017037Y-95120591D01*
X101384728Y-94488282D01*
X101384727Y-94488282D01*
X101374819Y-94501921D01*
X101349832Y-94521188D01*
X101326011Y-94541830D01*
X101322388Y-94542350D01*
X101319489Y-94544587D01*
X101288067Y-94547285D01*
X101256853Y-94551774D01*
X101253522Y-94550252D01*
X101249876Y-94550566D01*
X101221989Y-94535852D01*
X101193297Y-94522749D01*
X101191317Y-94519669D01*
X101188080Y-94517961D01*
X101172571Y-94490499D01*
X101155523Y-94463971D01*
X101154816Y-94459060D01*
X101153723Y-94457123D01*
X101150500Y-94429036D01*
X101150500Y-91545961D01*
X101170185Y-91478922D01*
X101222989Y-91433167D01*
X101292147Y-91423223D01*
X101355703Y-91452248D01*
X101374819Y-91473077D01*
X101384728Y-91486716D01*
X102017037Y-90854408D01*
X102034075Y-90917993D01*
X102099901Y-91032007D01*
X102192993Y-91125099D01*
X102307007Y-91190925D01*
X102370590Y-91207962D01*
X101738282Y-91840269D01*
X101738282Y-91840270D01*
X101792449Y-91879624D01*
X101981782Y-91976095D01*
X102183870Y-92041757D01*
X102393754Y-92075000D01*
X102606246Y-92075000D01*
X102816127Y-92041757D01*
X102816130Y-92041757D01*
X103018217Y-91976095D01*
X103207554Y-91879622D01*
X103261716Y-91840270D01*
X103261717Y-91840270D01*
X102629408Y-91207962D01*
X102692993Y-91190925D01*
X102807007Y-91125099D01*
X102900099Y-91032007D01*
X102965925Y-90917993D01*
X102982962Y-90854409D01*
X103615270Y-91486717D01*
X103615270Y-91486716D01*
X103654622Y-91432554D01*
X103751095Y-91243217D01*
X103816757Y-91041130D01*
X103816757Y-91041127D01*
X103850000Y-90831246D01*
X103850000Y-90618753D01*
X103816757Y-90408872D01*
X103816757Y-90408869D01*
X103785333Y-90312155D01*
X145650000Y-90312155D01*
X145650000Y-90960000D01*
X146566988Y-90960000D01*
X146534075Y-91017007D01*
X146500000Y-91144174D01*
X146500000Y-91275826D01*
X146534075Y-91402993D01*
X146566988Y-91460000D01*
X145650000Y-91460000D01*
X145650000Y-92107844D01*
X145656401Y-92167372D01*
X145656403Y-92167379D01*
X145706645Y-92302086D01*
X145706649Y-92302093D01*
X145792809Y-92417187D01*
X145792812Y-92417190D01*
X145907906Y-92503350D01*
X145907913Y-92503354D01*
X146042620Y-92553596D01*
X146042627Y-92553598D01*
X146102155Y-92559999D01*
X146102172Y-92560000D01*
X146394949Y-92560000D01*
X146461988Y-92579685D01*
X146507743Y-92632489D01*
X146517687Y-92701647D01*
X146488662Y-92765203D01*
X146451244Y-92794485D01*
X146423211Y-92808768D01*
X146343256Y-92866859D01*
X146283072Y-92910586D01*
X146283070Y-92910588D01*
X146283069Y-92910588D01*
X146160588Y-93033069D01*
X146160588Y-93033070D01*
X146160586Y-93033072D01*
X146116859Y-93093256D01*
X146058768Y-93173211D01*
X145980128Y-93327552D01*
X145926597Y-93492302D01*
X145899500Y-93663389D01*
X145899500Y-93836611D01*
X145907677Y-93888239D01*
X145925204Y-93998904D01*
X145926598Y-94007701D01*
X145980127Y-94172445D01*
X146058768Y-94326788D01*
X146160586Y-94466928D01*
X146283072Y-94589414D01*
X146423212Y-94691232D01*
X146577555Y-94769873D01*
X146742299Y-94823402D01*
X146913389Y-94850500D01*
X146913390Y-94850500D01*
X147086610Y-94850500D01*
X147086611Y-94850500D01*
X147257701Y-94823402D01*
X147422445Y-94769873D01*
X147576788Y-94691232D01*
X147716928Y-94589414D01*
X147839414Y-94466928D01*
X147941232Y-94326788D01*
X148019873Y-94172445D01*
X148073402Y-94007701D01*
X148100500Y-93836611D01*
X148100500Y-93663389D01*
X148073402Y-93492299D01*
X148019873Y-93327555D01*
X147941232Y-93173212D01*
X147839414Y-93033072D01*
X147716928Y-92910586D01*
X147576788Y-92808768D01*
X147548756Y-92794485D01*
X147497960Y-92746510D01*
X147481165Y-92678689D01*
X147503703Y-92612554D01*
X147558418Y-92569103D01*
X147605051Y-92560000D01*
X147897828Y-92560000D01*
X147897844Y-92559999D01*
X147957372Y-92553598D01*
X147957379Y-92553596D01*
X148092086Y-92503354D01*
X148092093Y-92503350D01*
X148207187Y-92417190D01*
X148207190Y-92417187D01*
X148293350Y-92302093D01*
X148293354Y-92302086D01*
X148343596Y-92167379D01*
X148343598Y-92167372D01*
X148349999Y-92107844D01*
X148350000Y-92107827D01*
X148350000Y-91460000D01*
X147433012Y-91460000D01*
X147465925Y-91402993D01*
X147500000Y-91275826D01*
X147500000Y-91144174D01*
X147465925Y-91017007D01*
X147433012Y-90960000D01*
X148350000Y-90960000D01*
X148350000Y-90312172D01*
X148349999Y-90312155D01*
X148343598Y-90252627D01*
X148343596Y-90252620D01*
X148293354Y-90117913D01*
X148293350Y-90117906D01*
X148207190Y-90002812D01*
X148207187Y-90002809D01*
X148092093Y-89916649D01*
X148092086Y-89916645D01*
X147957379Y-89866403D01*
X147957372Y-89866401D01*
X147897844Y-89860000D01*
X147250000Y-89860000D01*
X147250000Y-90776988D01*
X147192993Y-90744075D01*
X147065826Y-90710000D01*
X146934174Y-90710000D01*
X146807007Y-90744075D01*
X146750000Y-90776988D01*
X146750000Y-89860000D01*
X146102155Y-89860000D01*
X146042627Y-89866401D01*
X146042620Y-89866403D01*
X145907913Y-89916645D01*
X145907906Y-89916649D01*
X145792812Y-90002809D01*
X145792809Y-90002812D01*
X145706649Y-90117906D01*
X145706645Y-90117913D01*
X145656403Y-90252620D01*
X145656401Y-90252627D01*
X145650000Y-90312155D01*
X103785333Y-90312155D01*
X103751095Y-90206782D01*
X103654624Y-90017449D01*
X103615270Y-89963282D01*
X103615269Y-89963282D01*
X102982962Y-90595590D01*
X102965925Y-90532007D01*
X102900099Y-90417993D01*
X102807007Y-90324901D01*
X102692993Y-90259075D01*
X102629409Y-90242037D01*
X103261716Y-89609728D01*
X103207550Y-89570375D01*
X103108655Y-89519985D01*
X103057859Y-89472010D01*
X103041064Y-89404189D01*
X103063602Y-89338054D01*
X103118317Y-89294603D01*
X103164950Y-89285500D01*
X103374676Y-89285500D01*
X103374677Y-89285499D01*
X103447740Y-89270966D01*
X103530601Y-89215601D01*
X103585966Y-89132740D01*
X103600500Y-89059674D01*
X103600500Y-88678389D01*
X108649500Y-88678389D01*
X108649500Y-88851611D01*
X108676598Y-89022701D01*
X108730127Y-89187445D01*
X108808768Y-89341788D01*
X108910586Y-89481928D01*
X109033072Y-89604414D01*
X109173212Y-89706232D01*
X109327555Y-89784873D01*
X109492299Y-89838402D01*
X109663389Y-89865500D01*
X109663390Y-89865500D01*
X109836610Y-89865500D01*
X109836611Y-89865500D01*
X110007701Y-89838402D01*
X110172445Y-89784873D01*
X110326788Y-89706232D01*
X110466928Y-89604414D01*
X110589414Y-89481928D01*
X110691232Y-89341788D01*
X110769873Y-89187445D01*
X110823402Y-89022701D01*
X110850500Y-88851611D01*
X110850500Y-88678389D01*
X110823402Y-88507299D01*
X110769873Y-88342555D01*
X110691232Y-88188212D01*
X110666494Y-88154163D01*
X110647038Y-88113371D01*
X110638207Y-88080414D01*
X110638207Y-88080413D01*
X110585480Y-87989087D01*
X110510913Y-87914520D01*
X110450029Y-87879368D01*
X110419586Y-87861792D01*
X110377679Y-87850563D01*
X110336889Y-87831107D01*
X110326791Y-87823770D01*
X110326789Y-87823769D01*
X110326790Y-87823769D01*
X110326788Y-87823768D01*
X110172445Y-87745127D01*
X110007701Y-87691598D01*
X110007699Y-87691597D01*
X110007698Y-87691597D01*
X109876271Y-87670781D01*
X109836611Y-87664500D01*
X109663389Y-87664500D01*
X109623728Y-87670781D01*
X109492302Y-87691597D01*
X109327552Y-87745128D01*
X109173211Y-87823768D01*
X109120875Y-87861793D01*
X109033072Y-87925586D01*
X109033070Y-87925588D01*
X109033069Y-87925588D01*
X108910588Y-88048069D01*
X108910588Y-88048070D01*
X108910586Y-88048072D01*
X108887089Y-88080413D01*
X108808768Y-88188211D01*
X108730128Y-88342552D01*
X108676597Y-88507302D01*
X108649500Y-88678389D01*
X103600500Y-88678389D01*
X103600500Y-87310326D01*
X103600500Y-87310323D01*
X103600499Y-87310321D01*
X103585967Y-87237264D01*
X103585966Y-87237260D01*
X103530601Y-87154399D01*
X103447740Y-87099034D01*
X103447739Y-87099033D01*
X103447735Y-87099032D01*
X103374677Y-87084500D01*
X103374674Y-87084500D01*
X101625326Y-87084500D01*
X101625323Y-87084500D01*
X101552264Y-87099032D01*
X101552260Y-87099033D01*
X101469399Y-87154399D01*
X101414033Y-87237260D01*
X101414032Y-87237264D01*
X101399500Y-87310321D01*
X101399500Y-89059678D01*
X101414032Y-89132735D01*
X101414033Y-89132739D01*
X101414034Y-89132740D01*
X101469399Y-89215601D01*
X101552260Y-89270966D01*
X101552264Y-89270967D01*
X101625321Y-89285499D01*
X101625324Y-89285500D01*
X101835051Y-89285500D01*
X101902090Y-89305185D01*
X101947845Y-89357989D01*
X101957789Y-89427147D01*
X101928764Y-89490703D01*
X101891346Y-89519985D01*
X101792439Y-89570380D01*
X101738282Y-89609727D01*
X101738282Y-89609728D01*
X102370591Y-90242037D01*
X102307007Y-90259075D01*
X102192993Y-90324901D01*
X102099901Y-90417993D01*
X102034075Y-90532007D01*
X102017037Y-90595591D01*
X101384728Y-89963282D01*
X101384727Y-89963282D01*
X101374819Y-89976921D01*
X101319489Y-90019587D01*
X101249876Y-90025566D01*
X101188080Y-89992961D01*
X101153723Y-89932123D01*
X101150500Y-89904036D01*
X101150500Y-85478386D01*
X101170185Y-85411347D01*
X101222989Y-85365592D01*
X101292147Y-85355648D01*
X101355703Y-85384673D01*
X101362181Y-85390705D01*
X101411985Y-85440509D01*
X101411986Y-85440510D01*
X101411988Y-85440511D01*
X101537511Y-85512982D01*
X101537512Y-85512982D01*
X101537515Y-85512984D01*
X101677525Y-85550500D01*
X101677528Y-85550500D01*
X101822472Y-85550500D01*
X101822475Y-85550500D01*
X101962485Y-85512984D01*
X102088015Y-85440509D01*
X102190509Y-85338015D01*
X102262984Y-85212485D01*
X102300500Y-85072475D01*
X102300500Y-85067255D01*
X102320185Y-85000216D01*
X102336819Y-84979574D01*
X103379574Y-83936819D01*
X103440897Y-83903334D01*
X103467255Y-83900500D01*
X104020614Y-83900500D01*
X104087653Y-83920185D01*
X104108295Y-83936819D01*
X104111985Y-83940509D01*
X104111986Y-83940510D01*
X104111988Y-83940511D01*
X104237511Y-84012982D01*
X104237512Y-84012982D01*
X104237515Y-84012984D01*
X104377525Y-84050500D01*
X104377528Y-84050500D01*
X104522472Y-84050500D01*
X104522475Y-84050500D01*
X104662485Y-84012984D01*
X104788015Y-83940509D01*
X104890509Y-83838015D01*
X104962984Y-83712485D01*
X105000500Y-83572475D01*
X105000500Y-83427525D01*
X104962984Y-83287515D01*
X104890509Y-83161985D01*
X104788015Y-83059491D01*
X104788013Y-83059490D01*
X104788011Y-83059488D01*
X104662488Y-82987017D01*
X104662489Y-82987017D01*
X104651006Y-82983940D01*
X104522475Y-82949500D01*
X104377525Y-82949500D01*
X104248993Y-82983940D01*
X104237511Y-82987017D01*
X104111988Y-83059488D01*
X104111982Y-83059493D01*
X104108295Y-83063181D01*
X104046972Y-83096666D01*
X104020614Y-83099500D01*
X103197273Y-83099500D01*
X103095413Y-83126793D01*
X103095412Y-83126793D01*
X103095410Y-83126794D01*
X103095409Y-83126794D01*
X103034460Y-83161984D01*
X103034459Y-83161984D01*
X103004093Y-83179515D01*
X103004085Y-83179521D01*
X101770426Y-84413181D01*
X101709103Y-84446666D01*
X101682745Y-84449500D01*
X101677525Y-84449500D01*
X101548993Y-84483940D01*
X101537511Y-84487017D01*
X101411988Y-84559488D01*
X101411982Y-84559493D01*
X101362181Y-84609295D01*
X101300858Y-84642780D01*
X101231166Y-84637796D01*
X101175233Y-84595924D01*
X101150816Y-84530460D01*
X101150500Y-84521614D01*
X101150500Y-78507254D01*
X101170185Y-78440215D01*
X101186814Y-78419578D01*
X103564573Y-76041818D01*
X103625896Y-76008334D01*
X103652254Y-76005500D01*
X106626000Y-76005500D01*
X106680313Y-75999661D01*
X106731824Y-75988455D01*
X106758198Y-75981219D01*
X106787074Y-75964775D01*
X106844818Y-75931894D01*
X106844819Y-75931892D01*
X106844828Y-75931888D01*
X106897632Y-75886133D01*
X106929257Y-75853359D01*
X106973887Y-75768041D01*
X107022403Y-75717762D01*
X107090401Y-75701695D01*
X107156290Y-75724940D01*
X107171443Y-75737836D01*
X109313181Y-77879574D01*
X109346666Y-77940897D01*
X109349500Y-77967255D01*
X109349500Y-85000500D01*
X109329815Y-85067539D01*
X109277011Y-85113294D01*
X109225500Y-85124500D01*
X108875323Y-85124500D01*
X108802264Y-85139032D01*
X108802260Y-85139033D01*
X108719399Y-85194399D01*
X108664033Y-85277260D01*
X108664032Y-85277264D01*
X108649500Y-85350321D01*
X108649500Y-87099678D01*
X108664032Y-87172735D01*
X108664033Y-87172739D01*
X108664034Y-87172740D01*
X108719399Y-87255601D01*
X108801295Y-87310321D01*
X108802260Y-87310966D01*
X108802264Y-87310967D01*
X108875321Y-87325499D01*
X108875324Y-87325500D01*
X108875326Y-87325500D01*
X110624676Y-87325500D01*
X110624677Y-87325499D01*
X110697740Y-87310966D01*
X110780601Y-87255601D01*
X110835966Y-87172740D01*
X110850500Y-87099674D01*
X110850500Y-85350326D01*
X110850500Y-85350323D01*
X110850499Y-85350321D01*
X110835967Y-85277264D01*
X110835966Y-85277260D01*
X110792685Y-85212485D01*
X110780601Y-85194399D01*
X110697740Y-85139034D01*
X110697739Y-85139033D01*
X110697735Y-85139032D01*
X110624677Y-85124500D01*
X110624674Y-85124500D01*
X110274500Y-85124500D01*
X110265814Y-85121949D01*
X110256853Y-85123238D01*
X110232812Y-85112259D01*
X110207461Y-85104815D01*
X110201533Y-85097974D01*
X110193297Y-85094213D01*
X110179007Y-85071978D01*
X110161706Y-85052011D01*
X110159418Y-85041496D01*
X110155523Y-85035435D01*
X110150500Y-85000500D01*
X110150500Y-83683753D01*
X145650000Y-83683753D01*
X145650000Y-83896246D01*
X145683242Y-84106127D01*
X145683242Y-84106130D01*
X145748904Y-84308217D01*
X145845375Y-84497550D01*
X145884728Y-84551716D01*
X146517037Y-83919408D01*
X146534075Y-83982993D01*
X146599901Y-84097007D01*
X146692993Y-84190099D01*
X146807007Y-84255925D01*
X146870590Y-84272962D01*
X146238282Y-84905269D01*
X146238282Y-84905270D01*
X146292449Y-84944624D01*
X146481782Y-85041095D01*
X146683870Y-85106757D01*
X146893754Y-85140000D01*
X147106246Y-85140000D01*
X147316127Y-85106757D01*
X147316130Y-85106757D01*
X147518217Y-85041095D01*
X147707554Y-84944622D01*
X147761716Y-84905270D01*
X147761717Y-84905270D01*
X147129408Y-84272962D01*
X147192993Y-84255925D01*
X147307007Y-84190099D01*
X147400099Y-84097007D01*
X147465925Y-83982993D01*
X147482962Y-83919408D01*
X148115270Y-84551717D01*
X148115270Y-84551716D01*
X148154622Y-84497554D01*
X148251095Y-84308217D01*
X148316757Y-84106130D01*
X148316757Y-84106127D01*
X148350000Y-83896246D01*
X148350000Y-83683753D01*
X148316757Y-83473872D01*
X148316757Y-83473869D01*
X148251095Y-83271782D01*
X148154624Y-83082449D01*
X148115270Y-83028282D01*
X148115269Y-83028282D01*
X147482962Y-83660590D01*
X147465925Y-83597007D01*
X147400099Y-83482993D01*
X147307007Y-83389901D01*
X147192993Y-83324075D01*
X147129409Y-83307037D01*
X147761716Y-82674728D01*
X147707550Y-82635375D01*
X147518217Y-82538904D01*
X147419287Y-82506760D01*
X147361611Y-82467323D01*
X147334413Y-82402964D01*
X147346328Y-82334118D01*
X147393572Y-82282642D01*
X147419290Y-82270897D01*
X147422445Y-82269873D01*
X147576788Y-82191232D01*
X147716928Y-82089414D01*
X147839414Y-81966928D01*
X147941232Y-81826788D01*
X148019873Y-81672445D01*
X148073402Y-81507701D01*
X148100500Y-81336611D01*
X148100500Y-81163389D01*
X148073402Y-80992299D01*
X148019873Y-80827555D01*
X147941232Y-80673212D01*
X147839414Y-80533072D01*
X147716928Y-80410586D01*
X147576788Y-80308768D01*
X147422445Y-80230127D01*
X147257701Y-80176598D01*
X147257699Y-80176597D01*
X147257698Y-80176597D01*
X147126271Y-80155781D01*
X147086611Y-80149500D01*
X146913389Y-80149500D01*
X146873728Y-80155781D01*
X146742302Y-80176597D01*
X146577552Y-80230128D01*
X146423211Y-80308768D01*
X146386665Y-80335321D01*
X146283072Y-80410586D01*
X146283070Y-80410588D01*
X146283069Y-80410588D01*
X146160588Y-80533069D01*
X146160588Y-80533070D01*
X146160586Y-80533072D01*
X146116859Y-80593256D01*
X146058768Y-80673211D01*
X145980128Y-80827552D01*
X145980127Y-80827554D01*
X145980127Y-80827555D01*
X145963169Y-80879745D01*
X145926597Y-80992302D01*
X145899500Y-81163389D01*
X145899500Y-81336610D01*
X145923002Y-81485000D01*
X145926598Y-81507701D01*
X145980127Y-81672445D01*
X146058768Y-81826788D01*
X146160586Y-81966928D01*
X146283072Y-82089414D01*
X146423212Y-82191232D01*
X146577555Y-82269873D01*
X146580708Y-82270897D01*
X146581752Y-82271611D01*
X146582048Y-82271734D01*
X146582022Y-82271795D01*
X146638383Y-82310330D01*
X146665585Y-82374688D01*
X146653674Y-82443535D01*
X146606433Y-82495013D01*
X146580712Y-82506760D01*
X146481783Y-82538904D01*
X146292439Y-82635380D01*
X146238282Y-82674727D01*
X146238282Y-82674728D01*
X146870591Y-83307037D01*
X146807007Y-83324075D01*
X146692993Y-83389901D01*
X146599901Y-83482993D01*
X146534075Y-83597007D01*
X146517037Y-83660591D01*
X145884728Y-83028282D01*
X145884727Y-83028282D01*
X145845380Y-83082439D01*
X145748904Y-83271782D01*
X145683242Y-83473869D01*
X145683242Y-83473872D01*
X145650000Y-83683753D01*
X110150500Y-83683753D01*
X110150500Y-80375321D01*
X113124500Y-80375321D01*
X113124500Y-82124678D01*
X113139032Y-82197735D01*
X113139033Y-82197739D01*
X113139034Y-82197740D01*
X113194399Y-82280601D01*
X113274494Y-82334118D01*
X113277260Y-82335966D01*
X113277264Y-82335967D01*
X113350321Y-82350499D01*
X113350324Y-82350500D01*
X113350326Y-82350500D01*
X115099676Y-82350500D01*
X115099677Y-82350499D01*
X115172740Y-82335966D01*
X115255601Y-82280601D01*
X115310966Y-82197740D01*
X115325500Y-82124674D01*
X115325500Y-81163389D01*
X115664500Y-81163389D01*
X115664500Y-81336610D01*
X115688002Y-81485000D01*
X115691598Y-81507701D01*
X115745127Y-81672445D01*
X115823768Y-81826788D01*
X115925586Y-81966928D01*
X116048072Y-82089414D01*
X116188212Y-82191232D01*
X116342555Y-82269873D01*
X116507299Y-82323402D01*
X116678389Y-82350500D01*
X116678390Y-82350500D01*
X116851610Y-82350500D01*
X116851611Y-82350500D01*
X117022701Y-82323402D01*
X117187445Y-82269873D01*
X117341788Y-82191232D01*
X117481928Y-82089414D01*
X117604414Y-81966928D01*
X117706232Y-81826788D01*
X117784873Y-81672445D01*
X117838402Y-81507701D01*
X117865500Y-81336611D01*
X117865500Y-81163389D01*
X117838402Y-80992299D01*
X117800741Y-80876393D01*
X117798747Y-80806558D01*
X117830990Y-80750401D01*
X118246070Y-80335321D01*
X122954500Y-80335321D01*
X122954500Y-81884678D01*
X122969032Y-81957735D01*
X122969033Y-81957739D01*
X122969034Y-81957740D01*
X123024399Y-82040601D01*
X123084411Y-82080699D01*
X123107260Y-82095966D01*
X123107264Y-82095967D01*
X123180321Y-82110499D01*
X123180324Y-82110500D01*
X124278050Y-82110500D01*
X124345089Y-82130185D01*
X124346941Y-82131398D01*
X124514473Y-82243340D01*
X124514486Y-82243347D01*
X124701016Y-82320609D01*
X124701025Y-82320612D01*
X124750000Y-82330353D01*
X124750000Y-81390330D01*
X124769745Y-81410075D01*
X124855255Y-81459444D01*
X124950630Y-81485000D01*
X125049370Y-81485000D01*
X125144745Y-81459444D01*
X125230255Y-81410075D01*
X125250000Y-81390330D01*
X125250000Y-82330352D01*
X125298974Y-82320612D01*
X125298983Y-82320609D01*
X125485513Y-82243347D01*
X125485526Y-82243340D01*
X125653399Y-82131170D01*
X125653403Y-82131167D01*
X125746581Y-82037988D01*
X125807904Y-82004502D01*
X125877595Y-82009486D01*
X125897212Y-82019526D01*
X125897296Y-82019370D01*
X125902657Y-82022235D01*
X125902663Y-82022239D01*
X126043795Y-82080698D01*
X126193615Y-82110499D01*
X126193619Y-82110500D01*
X126193620Y-82110500D01*
X126346381Y-82110500D01*
X126346382Y-82110499D01*
X126496205Y-82080698D01*
X126637337Y-82022239D01*
X126764352Y-81937370D01*
X126872370Y-81829352D01*
X126957239Y-81702337D01*
X127015698Y-81561205D01*
X127045500Y-81411380D01*
X127045500Y-80808620D01*
X127015698Y-80658795D01*
X126957239Y-80517663D01*
X126957238Y-80517662D01*
X126957235Y-80517656D01*
X126872370Y-80390648D01*
X126872367Y-80390644D01*
X126764355Y-80282632D01*
X126764351Y-80282629D01*
X126637343Y-80197764D01*
X126637334Y-80197759D01*
X126496205Y-80139302D01*
X126496197Y-80139300D01*
X126346384Y-80109500D01*
X126346380Y-80109500D01*
X126193620Y-80109500D01*
X126193615Y-80109500D01*
X126043802Y-80139300D01*
X126043794Y-80139302D01*
X125902660Y-80197761D01*
X125897293Y-80200631D01*
X125896670Y-80199466D01*
X125836459Y-80218311D01*
X125769082Y-80199816D01*
X125746582Y-80182011D01*
X125653403Y-80088832D01*
X125653399Y-80088829D01*
X125485526Y-79976659D01*
X125485513Y-79976652D01*
X125298984Y-79899390D01*
X125298977Y-79899388D01*
X125250000Y-79889645D01*
X125250000Y-80829670D01*
X125230255Y-80809925D01*
X125144745Y-80760556D01*
X125049370Y-80735000D01*
X124950630Y-80735000D01*
X124855255Y-80760556D01*
X124769745Y-80809925D01*
X124750000Y-80829670D01*
X124750000Y-79889646D01*
X124749999Y-79889645D01*
X124701022Y-79899388D01*
X124701015Y-79899390D01*
X124514486Y-79976652D01*
X124514474Y-79976659D01*
X124346942Y-80088602D01*
X124280265Y-80109480D01*
X124278051Y-80109500D01*
X123180323Y-80109500D01*
X123107264Y-80124032D01*
X123107260Y-80124033D01*
X123024399Y-80179399D01*
X122969033Y-80262260D01*
X122969032Y-80262264D01*
X122954500Y-80335321D01*
X118246070Y-80335321D01*
X120746072Y-77835321D01*
X145899500Y-77835321D01*
X145899500Y-79584678D01*
X145914032Y-79657735D01*
X145914033Y-79657739D01*
X145914034Y-79657740D01*
X145969399Y-79740601D01*
X146052260Y-79795966D01*
X146052264Y-79795967D01*
X146125321Y-79810499D01*
X146125324Y-79810500D01*
X146125326Y-79810500D01*
X147874676Y-79810500D01*
X147874677Y-79810499D01*
X147947740Y-79795966D01*
X148030601Y-79740601D01*
X148085966Y-79657740D01*
X148100500Y-79584674D01*
X148100500Y-77835326D01*
X148100500Y-77835323D01*
X148100499Y-77835321D01*
X148085967Y-77762264D01*
X148085966Y-77762260D01*
X148072130Y-77741553D01*
X148030601Y-77679399D01*
X147947740Y-77624034D01*
X147947739Y-77624033D01*
X147947735Y-77624032D01*
X147874677Y-77609500D01*
X147874674Y-77609500D01*
X146125326Y-77609500D01*
X146125323Y-77609500D01*
X146052264Y-77624032D01*
X146052260Y-77624033D01*
X145969399Y-77679399D01*
X145914033Y-77762260D01*
X145914032Y-77762264D01*
X145899500Y-77835321D01*
X120746072Y-77835321D01*
X121394574Y-77186819D01*
X121455897Y-77153334D01*
X121482255Y-77150500D01*
X139570614Y-77150500D01*
X139637653Y-77170185D01*
X139658295Y-77186819D01*
X139661985Y-77190509D01*
X139661986Y-77190510D01*
X139661988Y-77190511D01*
X139787511Y-77262982D01*
X139787512Y-77262982D01*
X139787515Y-77262984D01*
X139927525Y-77300500D01*
X139927528Y-77300500D01*
X140072472Y-77300500D01*
X140072475Y-77300500D01*
X140212485Y-77262984D01*
X140338015Y-77190509D01*
X140440509Y-77088015D01*
X140512984Y-76962485D01*
X140550500Y-76822475D01*
X140550500Y-76677525D01*
X140512984Y-76537515D01*
X140440509Y-76411985D01*
X140338015Y-76309491D01*
X140338013Y-76309490D01*
X140338011Y-76309488D01*
X140212488Y-76237017D01*
X140212489Y-76237017D01*
X140201006Y-76233940D01*
X140072475Y-76199500D01*
X139927525Y-76199500D01*
X139798993Y-76233940D01*
X139787511Y-76237017D01*
X139661988Y-76309488D01*
X139661982Y-76309493D01*
X139658295Y-76313181D01*
X139596972Y-76346666D01*
X139570614Y-76349500D01*
X121212273Y-76349500D01*
X121110410Y-76376793D01*
X121019087Y-76429520D01*
X121019084Y-76429522D01*
X117264599Y-80184006D01*
X117203276Y-80217491D01*
X117138600Y-80214256D01*
X117022698Y-80176597D01*
X116891271Y-80155781D01*
X116851611Y-80149500D01*
X116678389Y-80149500D01*
X116638728Y-80155781D01*
X116507302Y-80176597D01*
X116342552Y-80230128D01*
X116188211Y-80308768D01*
X116151665Y-80335321D01*
X116048072Y-80410586D01*
X116048070Y-80410588D01*
X116048069Y-80410588D01*
X115925588Y-80533069D01*
X115925588Y-80533070D01*
X115925586Y-80533072D01*
X115881859Y-80593256D01*
X115823768Y-80673211D01*
X115745128Y-80827552D01*
X115745127Y-80827554D01*
X115745127Y-80827555D01*
X115728169Y-80879745D01*
X115691597Y-80992302D01*
X115664500Y-81163389D01*
X115325500Y-81163389D01*
X115325500Y-80375326D01*
X115325500Y-80375323D01*
X115325499Y-80375321D01*
X115310967Y-80302264D01*
X115310966Y-80302260D01*
X115284239Y-80262260D01*
X115255601Y-80219399D01*
X115172740Y-80164034D01*
X115172739Y-80164033D01*
X115172735Y-80164032D01*
X115099677Y-80149500D01*
X115099674Y-80149500D01*
X113350326Y-80149500D01*
X113350323Y-80149500D01*
X113277264Y-80164032D01*
X113277260Y-80164033D01*
X113194399Y-80219399D01*
X113139033Y-80302260D01*
X113139032Y-80302264D01*
X113124500Y-80375321D01*
X110150500Y-80375321D01*
X110150500Y-77697275D01*
X110150500Y-77697273D01*
X110123207Y-77595413D01*
X110123207Y-77595412D01*
X110070480Y-77504087D01*
X107041819Y-74475426D01*
X107008334Y-74414103D01*
X107005500Y-74387745D01*
X107005500Y-72124000D01*
X106999661Y-72069687D01*
X106988455Y-72018176D01*
X106981219Y-71991802D01*
X106967056Y-71966930D01*
X106931894Y-71905181D01*
X106931890Y-71905176D01*
X106931888Y-71905172D01*
X106896097Y-71863867D01*
X106886136Y-71852371D01*
X106853359Y-71820743D01*
X106765022Y-71774534D01*
X106765022Y-71774533D01*
X106697990Y-71754851D01*
X106697978Y-71754848D01*
X106626001Y-71744500D01*
X106626000Y-71744500D01*
X103624000Y-71744500D01*
X103623997Y-71744500D01*
X103569687Y-71750338D01*
X103518181Y-71761543D01*
X103518172Y-71761546D01*
X103491807Y-71768779D01*
X103491796Y-71768783D01*
X103405181Y-71818105D01*
X103405173Y-71818111D01*
X103352371Y-71863863D01*
X103320743Y-71896640D01*
X103274534Y-71984977D01*
X103274533Y-71984977D01*
X103254851Y-72052009D01*
X103254848Y-72052021D01*
X103244500Y-72123998D01*
X103244500Y-75177745D01*
X103224815Y-75244784D01*
X103208181Y-75265426D01*
X100712181Y-77761426D01*
X100650858Y-77794911D01*
X100581166Y-77789927D01*
X100525233Y-77748055D01*
X100500816Y-77682591D01*
X100500500Y-77673745D01*
X100500500Y-71163389D01*
X145899500Y-71163389D01*
X145899500Y-71336611D01*
X145926598Y-71507701D01*
X145980127Y-71672445D01*
X146058768Y-71826788D01*
X146160586Y-71966928D01*
X146283072Y-72089414D01*
X146423212Y-72191232D01*
X146577555Y-72269873D01*
X146742299Y-72323402D01*
X146913389Y-72350500D01*
X146913390Y-72350500D01*
X147086610Y-72350500D01*
X147086611Y-72350500D01*
X147257701Y-72323402D01*
X147422445Y-72269873D01*
X147576788Y-72191232D01*
X147716928Y-72089414D01*
X147839414Y-71966928D01*
X147941232Y-71826788D01*
X148019873Y-71672445D01*
X148073402Y-71507701D01*
X148100500Y-71336611D01*
X148100500Y-71163389D01*
X148073402Y-70992299D01*
X148019873Y-70827555D01*
X147941232Y-70673212D01*
X147839414Y-70533072D01*
X147716928Y-70410586D01*
X147576788Y-70308768D01*
X147422445Y-70230127D01*
X147257701Y-70176598D01*
X147257699Y-70176597D01*
X147257698Y-70176597D01*
X147126271Y-70155781D01*
X147086611Y-70149500D01*
X146913389Y-70149500D01*
X146873728Y-70155781D01*
X146742302Y-70176597D01*
X146577552Y-70230128D01*
X146423211Y-70308768D01*
X146343256Y-70366859D01*
X146283072Y-70410586D01*
X146283070Y-70410588D01*
X146283069Y-70410588D01*
X146160588Y-70533069D01*
X146160588Y-70533070D01*
X146160586Y-70533072D01*
X146116859Y-70593256D01*
X146058768Y-70673211D01*
X145980128Y-70827552D01*
X145926597Y-70992302D01*
X145899500Y-71163389D01*
X100500500Y-71163389D01*
X100500500Y-67128753D01*
X101150000Y-67128753D01*
X101150000Y-67341246D01*
X101183242Y-67551127D01*
X101183242Y-67551130D01*
X101248904Y-67753217D01*
X101345375Y-67942550D01*
X101384728Y-67996716D01*
X102017037Y-67364408D01*
X102034075Y-67427993D01*
X102099901Y-67542007D01*
X102192993Y-67635099D01*
X102307007Y-67700925D01*
X102370590Y-67717962D01*
X101738282Y-68350269D01*
X101738282Y-68350270D01*
X101792450Y-68389624D01*
X101891345Y-68440015D01*
X101942141Y-68487990D01*
X101958936Y-68555811D01*
X101936398Y-68621946D01*
X101881683Y-68665397D01*
X101835050Y-68674500D01*
X101625323Y-68674500D01*
X101552264Y-68689032D01*
X101552260Y-68689033D01*
X101469399Y-68744399D01*
X101414033Y-68827260D01*
X101414032Y-68827264D01*
X101399500Y-68900321D01*
X101399500Y-70649678D01*
X101414032Y-70722735D01*
X101414033Y-70722739D01*
X101414034Y-70722740D01*
X101469399Y-70805601D01*
X101552260Y-70860966D01*
X101552264Y-70860967D01*
X101625321Y-70875499D01*
X101625324Y-70875500D01*
X101625326Y-70875500D01*
X103374676Y-70875500D01*
X103374677Y-70875499D01*
X103447740Y-70860966D01*
X103530601Y-70805601D01*
X103585966Y-70722740D01*
X103600500Y-70649674D01*
X103600500Y-68900326D01*
X103600500Y-68900323D01*
X103600499Y-68900321D01*
X103585967Y-68827264D01*
X103585966Y-68827260D01*
X103565487Y-68796611D01*
X103530601Y-68744399D01*
X103447740Y-68689034D01*
X103447739Y-68689033D01*
X103447735Y-68689032D01*
X103374677Y-68674500D01*
X103374674Y-68674500D01*
X103164950Y-68674500D01*
X103097911Y-68654815D01*
X103052156Y-68602011D01*
X103042212Y-68532853D01*
X103071237Y-68469297D01*
X103108655Y-68440015D01*
X103207554Y-68389622D01*
X103261716Y-68350270D01*
X103261717Y-68350270D01*
X102629408Y-67717962D01*
X102692993Y-67700925D01*
X102807007Y-67635099D01*
X102900099Y-67542007D01*
X102965925Y-67427993D01*
X102982962Y-67364409D01*
X103615270Y-67996717D01*
X103615270Y-67996716D01*
X103654626Y-67942549D01*
X103688881Y-67875321D01*
X113124500Y-67875321D01*
X113124500Y-69624678D01*
X113139032Y-69697735D01*
X113139033Y-69697739D01*
X113139034Y-69697740D01*
X113194399Y-69780601D01*
X113277260Y-69835966D01*
X113277264Y-69835967D01*
X113350321Y-69850499D01*
X113350324Y-69850500D01*
X113350326Y-69850500D01*
X115099676Y-69850500D01*
X115099677Y-69850499D01*
X115172740Y-69835966D01*
X115255601Y-69780601D01*
X115310966Y-69697740D01*
X115325500Y-69624674D01*
X115325500Y-68663389D01*
X115664500Y-68663389D01*
X115664500Y-68836610D01*
X115685262Y-68967701D01*
X115691598Y-69007701D01*
X115745127Y-69172445D01*
X115823768Y-69326788D01*
X115925586Y-69466928D01*
X116048072Y-69589414D01*
X116188212Y-69691232D01*
X116342555Y-69769873D01*
X116507299Y-69823402D01*
X116678389Y-69850500D01*
X116678390Y-69850500D01*
X116851610Y-69850500D01*
X116851611Y-69850500D01*
X117022701Y-69823402D01*
X117187445Y-69769873D01*
X117341788Y-69691232D01*
X117481928Y-69589414D01*
X117604414Y-69466928D01*
X117706232Y-69326788D01*
X117784873Y-69172445D01*
X117838402Y-69007701D01*
X117865500Y-68836611D01*
X117865500Y-68663389D01*
X117838402Y-68492299D01*
X117784873Y-68327555D01*
X117706232Y-68173212D01*
X117604414Y-68033072D01*
X117481928Y-67910586D01*
X117341788Y-67808768D01*
X117187445Y-67730127D01*
X117022701Y-67676598D01*
X117022699Y-67676597D01*
X117022698Y-67676597D01*
X116891271Y-67655781D01*
X116851611Y-67649500D01*
X116678389Y-67649500D01*
X116638728Y-67655781D01*
X116507302Y-67676597D01*
X116342552Y-67730128D01*
X116188211Y-67808768D01*
X116108256Y-67866859D01*
X116048072Y-67910586D01*
X116048070Y-67910588D01*
X116048069Y-67910588D01*
X115925588Y-68033069D01*
X115925588Y-68033070D01*
X115925586Y-68033072D01*
X115881859Y-68093256D01*
X115823768Y-68173211D01*
X115745128Y-68327552D01*
X115691597Y-68492302D01*
X115664500Y-68663389D01*
X115325500Y-68663389D01*
X115325500Y-67875326D01*
X115325500Y-67875323D01*
X115325499Y-67875321D01*
X115310967Y-67802264D01*
X115310966Y-67802260D01*
X115255601Y-67719399D01*
X115172740Y-67664034D01*
X115172739Y-67664033D01*
X115172735Y-67664032D01*
X115099677Y-67649500D01*
X115099674Y-67649500D01*
X113350326Y-67649500D01*
X113350323Y-67649500D01*
X113277264Y-67664032D01*
X113277260Y-67664033D01*
X113194399Y-67719399D01*
X113139033Y-67802260D01*
X113139032Y-67802264D01*
X113124500Y-67875321D01*
X103688881Y-67875321D01*
X103720664Y-67812944D01*
X103720666Y-67812939D01*
X103751095Y-67753217D01*
X103816757Y-67551130D01*
X103816757Y-67551127D01*
X103850000Y-67341246D01*
X103850000Y-67128753D01*
X103816757Y-66918872D01*
X103816757Y-66918869D01*
X103751095Y-66716782D01*
X103654624Y-66527449D01*
X103615270Y-66473282D01*
X103615269Y-66473282D01*
X102982962Y-67105590D01*
X102965925Y-67042007D01*
X102900099Y-66927993D01*
X102807007Y-66834901D01*
X102692993Y-66769075D01*
X102629409Y-66752037D01*
X103261716Y-66119728D01*
X103207550Y-66080375D01*
X103018217Y-65983904D01*
X102816129Y-65918242D01*
X102606246Y-65885000D01*
X102393754Y-65885000D01*
X102183872Y-65918242D01*
X102183869Y-65918242D01*
X101981782Y-65983904D01*
X101792439Y-66080380D01*
X101738282Y-66119727D01*
X101738282Y-66119728D01*
X102370591Y-66752037D01*
X102307007Y-66769075D01*
X102192993Y-66834901D01*
X102099901Y-66927993D01*
X102034075Y-67042007D01*
X102017037Y-67105591D01*
X101384728Y-66473282D01*
X101384727Y-66473282D01*
X101345380Y-66527439D01*
X101248904Y-66716782D01*
X101183242Y-66918869D01*
X101183242Y-66918872D01*
X101150000Y-67128753D01*
X100500500Y-67128753D01*
X100500500Y-65272155D01*
X145650000Y-65272155D01*
X145650000Y-65920000D01*
X146566988Y-65920000D01*
X146534075Y-65977007D01*
X146500000Y-66104174D01*
X146500000Y-66235826D01*
X146534075Y-66362993D01*
X146566988Y-66420000D01*
X145650000Y-66420000D01*
X145650000Y-67067844D01*
X145656401Y-67127372D01*
X145656403Y-67127379D01*
X145706645Y-67262086D01*
X145706649Y-67262093D01*
X145792809Y-67377187D01*
X145792812Y-67377190D01*
X145907906Y-67463350D01*
X145907913Y-67463354D01*
X146042620Y-67513596D01*
X146042627Y-67513598D01*
X146102155Y-67519999D01*
X146102172Y-67520000D01*
X146394949Y-67520000D01*
X146461988Y-67539685D01*
X146507743Y-67592489D01*
X146517687Y-67661647D01*
X146488662Y-67725203D01*
X146451244Y-67754485D01*
X146423211Y-67768768D01*
X146368157Y-67808768D01*
X146283072Y-67870586D01*
X146283070Y-67870588D01*
X146283069Y-67870588D01*
X146160588Y-67993069D01*
X146160588Y-67993070D01*
X146160586Y-67993072D01*
X146131526Y-68033070D01*
X146058768Y-68133211D01*
X145980128Y-68287552D01*
X145980127Y-68287554D01*
X145980127Y-68287555D01*
X145953362Y-68369927D01*
X145926597Y-68452302D01*
X145920262Y-68492302D01*
X145899500Y-68623389D01*
X145899500Y-68796611D01*
X145926598Y-68967701D01*
X145980127Y-69132445D01*
X146058768Y-69286788D01*
X146160586Y-69426928D01*
X146283072Y-69549414D01*
X146423212Y-69651232D01*
X146577555Y-69729873D01*
X146742299Y-69783402D01*
X146913389Y-69810500D01*
X146913390Y-69810500D01*
X147086610Y-69810500D01*
X147086611Y-69810500D01*
X147257701Y-69783402D01*
X147422445Y-69729873D01*
X147576788Y-69651232D01*
X147716928Y-69549414D01*
X147839414Y-69426928D01*
X147941232Y-69286788D01*
X148019873Y-69132445D01*
X148073402Y-68967701D01*
X148100500Y-68796611D01*
X148100500Y-68623389D01*
X148073402Y-68452299D01*
X148019873Y-68287555D01*
X147941232Y-68133212D01*
X147839414Y-67993072D01*
X147716928Y-67870586D01*
X147576788Y-67768768D01*
X147548756Y-67754485D01*
X147497960Y-67706510D01*
X147481165Y-67638689D01*
X147503703Y-67572554D01*
X147558418Y-67529103D01*
X147605051Y-67520000D01*
X147897828Y-67520000D01*
X147897844Y-67519999D01*
X147957372Y-67513598D01*
X147957379Y-67513596D01*
X148092086Y-67463354D01*
X148092093Y-67463350D01*
X148207187Y-67377190D01*
X148207190Y-67377187D01*
X148293350Y-67262093D01*
X148293354Y-67262086D01*
X148343596Y-67127379D01*
X148343598Y-67127372D01*
X148349999Y-67067844D01*
X148350000Y-67067827D01*
X148350000Y-66420000D01*
X147433012Y-66420000D01*
X147465925Y-66362993D01*
X147500000Y-66235826D01*
X147500000Y-66104174D01*
X147465925Y-65977007D01*
X147433012Y-65920000D01*
X148350000Y-65920000D01*
X148350000Y-65272172D01*
X148349999Y-65272155D01*
X148343598Y-65212627D01*
X148343596Y-65212620D01*
X148293354Y-65077913D01*
X148293350Y-65077906D01*
X148207190Y-64962812D01*
X148207187Y-64962809D01*
X148092093Y-64876649D01*
X148092086Y-64876645D01*
X147957379Y-64826403D01*
X147957372Y-64826401D01*
X147897844Y-64820000D01*
X147250000Y-64820000D01*
X147250000Y-65736988D01*
X147192993Y-65704075D01*
X147065826Y-65670000D01*
X146934174Y-65670000D01*
X146807007Y-65704075D01*
X146750000Y-65736988D01*
X146750000Y-64820000D01*
X146102155Y-64820000D01*
X146042627Y-64826401D01*
X146042620Y-64826403D01*
X145907913Y-64876645D01*
X145907906Y-64876649D01*
X145792812Y-64962809D01*
X145792809Y-64962812D01*
X145706649Y-65077906D01*
X145706645Y-65077913D01*
X145656403Y-65212620D01*
X145656401Y-65212627D01*
X145650000Y-65272155D01*
X100500500Y-65272155D01*
X100500500Y-62900321D01*
X113649500Y-62900321D01*
X113649500Y-64649678D01*
X113664032Y-64722735D01*
X113664033Y-64722739D01*
X113664034Y-64722740D01*
X113719399Y-64805601D01*
X113802260Y-64860966D01*
X113802264Y-64860967D01*
X113875321Y-64875499D01*
X113875324Y-64875500D01*
X113875326Y-64875500D01*
X115624676Y-64875500D01*
X115624677Y-64875499D01*
X115697740Y-64860966D01*
X115780601Y-64805601D01*
X115835966Y-64722740D01*
X115850500Y-64649674D01*
X115850500Y-62900326D01*
X115850500Y-62900323D01*
X115850499Y-62900321D01*
X115835967Y-62827264D01*
X115835966Y-62827260D01*
X115780601Y-62744399D01*
X115697740Y-62689034D01*
X115697739Y-62689033D01*
X115697735Y-62689032D01*
X115624677Y-62674500D01*
X115624674Y-62674500D01*
X113875326Y-62674500D01*
X113875323Y-62674500D01*
X113802264Y-62689032D01*
X113802260Y-62689033D01*
X113719399Y-62744399D01*
X113664033Y-62827260D01*
X113664032Y-62827264D01*
X113649500Y-62900321D01*
X100500500Y-62900321D01*
X100500500Y-60677525D01*
X103699500Y-60677525D01*
X103699500Y-60822475D01*
X103737016Y-60962485D01*
X103737017Y-60962488D01*
X103809488Y-61088011D01*
X103809490Y-61088013D01*
X103809491Y-61088015D01*
X103911985Y-61190509D01*
X103911986Y-61190510D01*
X103911988Y-61190511D01*
X104037511Y-61262982D01*
X104037512Y-61262982D01*
X104037515Y-61262984D01*
X104177525Y-61300500D01*
X104177528Y-61300500D01*
X104322472Y-61300500D01*
X104322475Y-61300500D01*
X104462485Y-61262984D01*
X104588015Y-61190509D01*
X104630135Y-61148389D01*
X113649500Y-61148389D01*
X113649500Y-61321611D01*
X113676598Y-61492701D01*
X113730127Y-61657445D01*
X113808768Y-61811788D01*
X113910586Y-61951928D01*
X114033072Y-62074414D01*
X114173212Y-62176232D01*
X114327555Y-62254873D01*
X114492299Y-62308402D01*
X114663389Y-62335500D01*
X114663390Y-62335500D01*
X114836610Y-62335500D01*
X114836611Y-62335500D01*
X115007701Y-62308402D01*
X115172445Y-62254873D01*
X115326788Y-62176232D01*
X115466928Y-62074414D01*
X115589414Y-61951928D01*
X115691232Y-61811788D01*
X115769873Y-61657445D01*
X115823402Y-61492701D01*
X115850500Y-61321611D01*
X115850500Y-61148389D01*
X115823402Y-60977299D01*
X115769873Y-60812555D01*
X115691232Y-60658212D01*
X115589414Y-60518072D01*
X115466928Y-60395586D01*
X115326788Y-60293768D01*
X115172445Y-60215127D01*
X115007701Y-60161598D01*
X115007699Y-60161597D01*
X115007698Y-60161597D01*
X114871330Y-60139999D01*
X114836611Y-60134500D01*
X114663389Y-60134500D01*
X114628670Y-60139999D01*
X114492302Y-60161597D01*
X114327552Y-60215128D01*
X114173211Y-60293768D01*
X114151568Y-60309493D01*
X114033072Y-60395586D01*
X114033070Y-60395588D01*
X114033069Y-60395588D01*
X113910588Y-60518069D01*
X113910588Y-60518070D01*
X113910586Y-60518072D01*
X113896463Y-60537511D01*
X113808768Y-60658211D01*
X113730128Y-60812552D01*
X113676597Y-60977302D01*
X113660092Y-61081514D01*
X113649500Y-61148389D01*
X104630135Y-61148389D01*
X104690509Y-61088015D01*
X104762984Y-60962485D01*
X104800500Y-60822475D01*
X104800500Y-60746544D01*
X104820185Y-60679505D01*
X104836819Y-60658863D01*
X107603527Y-57892155D01*
X145650000Y-57892155D01*
X145650000Y-58540000D01*
X146566988Y-58540000D01*
X146534075Y-58597007D01*
X146500000Y-58724174D01*
X146500000Y-58855826D01*
X146534075Y-58982993D01*
X146566988Y-59040000D01*
X145650000Y-59040000D01*
X145650000Y-59687844D01*
X145656401Y-59747372D01*
X145656403Y-59747379D01*
X145706645Y-59882086D01*
X145706649Y-59882093D01*
X145792809Y-59997187D01*
X145792812Y-59997190D01*
X145907906Y-60083350D01*
X145907913Y-60083354D01*
X146042620Y-60133596D01*
X146042627Y-60133598D01*
X146102155Y-60139999D01*
X146102172Y-60140000D01*
X146750000Y-60140000D01*
X146750000Y-59223012D01*
X146807007Y-59255925D01*
X146934174Y-59290000D01*
X147065826Y-59290000D01*
X147192993Y-59255925D01*
X147250000Y-59223012D01*
X147250000Y-60140000D01*
X147897828Y-60140000D01*
X147897844Y-60139999D01*
X147957372Y-60133598D01*
X147957379Y-60133596D01*
X148092086Y-60083354D01*
X148092093Y-60083350D01*
X148207187Y-59997190D01*
X148207190Y-59997187D01*
X148293350Y-59882093D01*
X148293354Y-59882086D01*
X148343596Y-59747379D01*
X148343598Y-59747372D01*
X148349999Y-59687844D01*
X148350000Y-59687827D01*
X148350000Y-59040000D01*
X147433012Y-59040000D01*
X147465925Y-58982993D01*
X147500000Y-58855826D01*
X147500000Y-58724174D01*
X147465925Y-58597007D01*
X147433012Y-58540000D01*
X148350000Y-58540000D01*
X148350000Y-57892172D01*
X148349999Y-57892155D01*
X148343598Y-57832627D01*
X148343596Y-57832620D01*
X148293354Y-57697913D01*
X148293350Y-57697906D01*
X148207190Y-57582812D01*
X148207187Y-57582809D01*
X148092093Y-57496649D01*
X148092086Y-57496645D01*
X147957379Y-57446403D01*
X147957372Y-57446401D01*
X147897844Y-57440000D01*
X147605051Y-57440000D01*
X147538012Y-57420315D01*
X147492257Y-57367511D01*
X147482313Y-57298353D01*
X147511338Y-57234797D01*
X147548756Y-57205515D01*
X147551471Y-57204131D01*
X147576788Y-57191232D01*
X147716928Y-57089414D01*
X147839414Y-56966928D01*
X147941232Y-56826788D01*
X148019873Y-56672445D01*
X148073402Y-56507701D01*
X148100500Y-56336611D01*
X148100500Y-56163389D01*
X148073402Y-55992299D01*
X148019873Y-55827555D01*
X147941232Y-55673212D01*
X147839414Y-55533072D01*
X147716928Y-55410586D01*
X147576788Y-55308768D01*
X147422445Y-55230127D01*
X147257701Y-55176598D01*
X147257699Y-55176597D01*
X147257698Y-55176597D01*
X147126271Y-55155781D01*
X147086611Y-55149500D01*
X146913389Y-55149500D01*
X146873728Y-55155781D01*
X146742302Y-55176597D01*
X146577552Y-55230128D01*
X146423211Y-55308768D01*
X146390143Y-55332794D01*
X146283072Y-55410586D01*
X146283070Y-55410588D01*
X146283069Y-55410588D01*
X146160588Y-55533069D01*
X146160588Y-55533070D01*
X146160586Y-55533072D01*
X146145452Y-55553902D01*
X146058768Y-55673211D01*
X145980128Y-55827552D01*
X145926597Y-55992302D01*
X145899894Y-56160904D01*
X145899500Y-56163389D01*
X145899500Y-56336611D01*
X145904416Y-56367651D01*
X145922071Y-56479122D01*
X145926598Y-56507701D01*
X145980127Y-56672445D01*
X146058768Y-56826788D01*
X146160586Y-56966928D01*
X146283072Y-57089414D01*
X146423212Y-57191232D01*
X146446213Y-57202951D01*
X146451244Y-57205515D01*
X146502040Y-57253490D01*
X146518835Y-57321311D01*
X146496297Y-57387446D01*
X146441582Y-57430897D01*
X146394949Y-57440000D01*
X146102155Y-57440000D01*
X146042627Y-57446401D01*
X146042620Y-57446403D01*
X145907913Y-57496645D01*
X145907906Y-57496649D01*
X145792812Y-57582809D01*
X145792809Y-57582812D01*
X145706649Y-57697906D01*
X145706645Y-57697913D01*
X145656403Y-57832620D01*
X145656401Y-57832627D01*
X145650000Y-57892155D01*
X107603527Y-57892155D01*
X108858863Y-56636819D01*
X108920186Y-56603334D01*
X108946544Y-56600500D01*
X119815204Y-56600500D01*
X119882243Y-56620185D01*
X119918306Y-56655609D01*
X119981861Y-56750727D01*
X120091269Y-56860135D01*
X120091273Y-56860138D01*
X120219919Y-56946097D01*
X120219925Y-56946100D01*
X120219926Y-56946101D01*
X120362878Y-57005314D01*
X120514630Y-57035499D01*
X120514634Y-57035500D01*
X120514635Y-57035500D01*
X120669366Y-57035500D01*
X120669367Y-57035499D01*
X120821122Y-57005314D01*
X120964074Y-56946101D01*
X121092727Y-56860138D01*
X121092730Y-56860135D01*
X121139319Y-56813547D01*
X121200642Y-56780062D01*
X121270334Y-56785046D01*
X121314681Y-56813547D01*
X121361269Y-56860135D01*
X121361273Y-56860138D01*
X121489919Y-56946097D01*
X121489925Y-56946100D01*
X121489926Y-56946101D01*
X121632878Y-57005314D01*
X121784630Y-57035499D01*
X121784634Y-57035500D01*
X121784635Y-57035500D01*
X121939366Y-57035500D01*
X121939367Y-57035499D01*
X122091122Y-57005314D01*
X122234074Y-56946101D01*
X122362727Y-56860138D01*
X122472138Y-56750727D01*
X122558101Y-56622074D01*
X122617314Y-56479122D01*
X122626858Y-56431139D01*
X122659240Y-56369233D01*
X122660793Y-56367651D01*
X122762000Y-56266444D01*
X122762000Y-56298711D01*
X122787215Y-56392815D01*
X122835926Y-56477186D01*
X122904814Y-56546074D01*
X122989185Y-56594785D01*
X123083289Y-56620000D01*
X123115552Y-56620000D01*
X122597745Y-57137806D01*
X122641746Y-57167206D01*
X122830101Y-57245225D01*
X122830109Y-57245227D01*
X123030056Y-57284999D01*
X123030060Y-57285000D01*
X123233940Y-57285000D01*
X123233943Y-57284999D01*
X123433890Y-57245227D01*
X123433898Y-57245225D01*
X123622252Y-57167206D01*
X123622264Y-57167200D01*
X123698108Y-57116522D01*
X123764785Y-57095643D01*
X123832166Y-57114127D01*
X123835892Y-57116522D01*
X123911735Y-57167200D01*
X123911747Y-57167206D01*
X124100101Y-57245225D01*
X124100109Y-57245227D01*
X124300056Y-57284999D01*
X124300060Y-57285000D01*
X124503940Y-57285000D01*
X124503943Y-57284999D01*
X124703890Y-57245227D01*
X124703898Y-57245225D01*
X124892254Y-57167205D01*
X124892260Y-57167202D01*
X124936252Y-57137806D01*
X124936253Y-57137805D01*
X124418447Y-56620000D01*
X124450711Y-56620000D01*
X124544815Y-56594785D01*
X124629186Y-56546074D01*
X124698074Y-56477186D01*
X124746785Y-56392815D01*
X124772000Y-56298711D01*
X124772000Y-56266446D01*
X124873206Y-56367652D01*
X124906691Y-56428976D01*
X124907142Y-56431143D01*
X124916684Y-56479114D01*
X124916686Y-56479122D01*
X124975897Y-56622071D01*
X124975902Y-56622080D01*
X125061861Y-56750726D01*
X125061864Y-56750730D01*
X125171269Y-56860135D01*
X125171273Y-56860138D01*
X125299919Y-56946097D01*
X125299925Y-56946100D01*
X125299926Y-56946101D01*
X125442878Y-57005314D01*
X125594630Y-57035499D01*
X125594634Y-57035500D01*
X125594635Y-57035500D01*
X125749366Y-57035500D01*
X125749367Y-57035499D01*
X125901122Y-57005314D01*
X126044074Y-56946101D01*
X126172727Y-56860138D01*
X126172730Y-56860135D01*
X126219319Y-56813547D01*
X126280642Y-56780062D01*
X126350334Y-56785046D01*
X126394681Y-56813547D01*
X126441269Y-56860135D01*
X126441273Y-56860138D01*
X126569919Y-56946097D01*
X126569925Y-56946100D01*
X126569926Y-56946101D01*
X126712878Y-57005314D01*
X126864630Y-57035499D01*
X126864634Y-57035500D01*
X126864635Y-57035500D01*
X127019366Y-57035500D01*
X127019367Y-57035499D01*
X127171122Y-57005314D01*
X127314074Y-56946101D01*
X127442727Y-56860138D01*
X127442730Y-56860135D01*
X127489319Y-56813547D01*
X127550642Y-56780062D01*
X127620334Y-56785046D01*
X127664681Y-56813547D01*
X127711269Y-56860135D01*
X127711273Y-56860138D01*
X127839919Y-56946097D01*
X127839925Y-56946100D01*
X127839926Y-56946101D01*
X127982878Y-57005314D01*
X128134630Y-57035499D01*
X128134634Y-57035500D01*
X128134635Y-57035500D01*
X128289366Y-57035500D01*
X128289367Y-57035499D01*
X128441122Y-57005314D01*
X128584074Y-56946101D01*
X128712727Y-56860138D01*
X128712730Y-56860135D01*
X128759319Y-56813547D01*
X128820642Y-56780062D01*
X128890334Y-56785046D01*
X128934681Y-56813547D01*
X128981269Y-56860135D01*
X128981273Y-56860138D01*
X129109919Y-56946097D01*
X129109925Y-56946100D01*
X129109926Y-56946101D01*
X129252878Y-57005314D01*
X129404630Y-57035499D01*
X129404634Y-57035500D01*
X129404635Y-57035500D01*
X129559366Y-57035500D01*
X129559367Y-57035499D01*
X129711122Y-57005314D01*
X129854074Y-56946101D01*
X129982727Y-56860138D01*
X130092138Y-56750727D01*
X130178101Y-56622074D01*
X130237314Y-56479122D01*
X130267500Y-56327365D01*
X130267500Y-56172635D01*
X130237314Y-56020878D01*
X130178101Y-55877926D01*
X130178100Y-55877925D01*
X130178097Y-55877919D01*
X130092138Y-55749273D01*
X130092135Y-55749269D01*
X129982730Y-55639864D01*
X129982726Y-55639861D01*
X129854080Y-55553902D01*
X129854071Y-55553897D01*
X129711122Y-55494686D01*
X129711114Y-55494684D01*
X129559369Y-55464500D01*
X129559365Y-55464500D01*
X129404635Y-55464500D01*
X129404630Y-55464500D01*
X129252885Y-55494684D01*
X129252877Y-55494686D01*
X129109928Y-55553897D01*
X129109919Y-55553902D01*
X128981273Y-55639861D01*
X128981269Y-55639864D01*
X128934681Y-55686453D01*
X128873358Y-55719938D01*
X128803666Y-55714954D01*
X128759319Y-55686453D01*
X128712730Y-55639864D01*
X128712726Y-55639861D01*
X128584080Y-55553902D01*
X128584071Y-55553897D01*
X128441122Y-55494686D01*
X128441114Y-55494684D01*
X128289369Y-55464500D01*
X128289365Y-55464500D01*
X128134635Y-55464500D01*
X128134630Y-55464500D01*
X127982885Y-55494684D01*
X127982877Y-55494686D01*
X127839928Y-55553897D01*
X127839919Y-55553902D01*
X127711273Y-55639861D01*
X127711269Y-55639864D01*
X127664681Y-55686453D01*
X127603358Y-55719938D01*
X127533666Y-55714954D01*
X127489319Y-55686453D01*
X127442730Y-55639864D01*
X127442726Y-55639861D01*
X127314080Y-55553902D01*
X127314071Y-55553897D01*
X127171122Y-55494686D01*
X127171114Y-55494684D01*
X127019369Y-55464500D01*
X127019365Y-55464500D01*
X126864635Y-55464500D01*
X126864630Y-55464500D01*
X126712885Y-55494684D01*
X126712877Y-55494686D01*
X126569928Y-55553897D01*
X126569919Y-55553902D01*
X126441273Y-55639861D01*
X126441269Y-55639864D01*
X126394681Y-55686453D01*
X126333358Y-55719938D01*
X126263666Y-55714954D01*
X126219319Y-55686453D01*
X126172730Y-55639864D01*
X126172726Y-55639861D01*
X126044080Y-55553902D01*
X126044071Y-55553897D01*
X125901122Y-55494686D01*
X125901114Y-55494684D01*
X125749369Y-55464500D01*
X125749365Y-55464500D01*
X125594635Y-55464500D01*
X125594630Y-55464500D01*
X125442885Y-55494684D01*
X125442877Y-55494686D01*
X125299928Y-55553897D01*
X125299919Y-55553902D01*
X125171273Y-55639861D01*
X125171269Y-55639864D01*
X125061864Y-55749269D01*
X125061861Y-55749273D01*
X124975902Y-55877919D01*
X124975897Y-55877928D01*
X124916686Y-56020877D01*
X124916684Y-56020885D01*
X124907142Y-56068856D01*
X124874757Y-56130767D01*
X124873207Y-56132346D01*
X124772000Y-56233553D01*
X124772000Y-56201289D01*
X124746785Y-56107185D01*
X124698074Y-56022814D01*
X124629186Y-55953926D01*
X124544815Y-55905215D01*
X124450711Y-55880000D01*
X124418446Y-55880000D01*
X124936252Y-55362193D01*
X124892253Y-55332793D01*
X124703898Y-55254774D01*
X124703890Y-55254772D01*
X124503943Y-55215000D01*
X124300056Y-55215000D01*
X124100109Y-55254772D01*
X124100101Y-55254774D01*
X123911745Y-55332794D01*
X123835890Y-55383478D01*
X123769212Y-55404355D01*
X123701832Y-55385870D01*
X123698110Y-55383478D01*
X123622254Y-55332794D01*
X123433898Y-55254774D01*
X123433890Y-55254772D01*
X123233943Y-55215000D01*
X123030056Y-55215000D01*
X122830109Y-55254772D01*
X122830101Y-55254774D01*
X122641745Y-55332794D01*
X122597746Y-55362193D01*
X122597745Y-55362193D01*
X123115553Y-55880000D01*
X123083289Y-55880000D01*
X122989185Y-55905215D01*
X122904814Y-55953926D01*
X122835926Y-56022814D01*
X122787215Y-56107185D01*
X122762000Y-56201289D01*
X122762000Y-56233554D01*
X122660793Y-56132347D01*
X122627308Y-56071024D01*
X122626880Y-56068972D01*
X122617314Y-56020878D01*
X122558101Y-55877926D01*
X122558100Y-55877925D01*
X122558097Y-55877919D01*
X122472138Y-55749273D01*
X122472135Y-55749269D01*
X122362730Y-55639864D01*
X122362726Y-55639861D01*
X122234080Y-55553902D01*
X122234071Y-55553897D01*
X122159393Y-55522965D01*
X122091122Y-55494686D01*
X122091114Y-55494684D01*
X121939369Y-55464500D01*
X121939365Y-55464500D01*
X121784635Y-55464500D01*
X121784630Y-55464500D01*
X121632885Y-55494684D01*
X121632877Y-55494686D01*
X121489928Y-55553897D01*
X121489919Y-55553902D01*
X121361273Y-55639861D01*
X121361269Y-55639864D01*
X121314681Y-55686453D01*
X121253358Y-55719938D01*
X121183666Y-55714954D01*
X121139319Y-55686453D01*
X121092730Y-55639864D01*
X121092726Y-55639861D01*
X120964080Y-55553902D01*
X120964071Y-55553897D01*
X120821122Y-55494686D01*
X120821114Y-55494684D01*
X120669369Y-55464500D01*
X120669365Y-55464500D01*
X120514635Y-55464500D01*
X120514630Y-55464500D01*
X120362885Y-55494684D01*
X120362877Y-55494686D01*
X120219928Y-55553897D01*
X120219919Y-55553902D01*
X120091273Y-55639861D01*
X120091269Y-55639864D01*
X119981861Y-55749272D01*
X119918306Y-55844391D01*
X119864694Y-55889196D01*
X119815204Y-55899500D01*
X108703856Y-55899500D01*
X108614712Y-55923386D01*
X108614709Y-55923387D01*
X108534791Y-55969527D01*
X108534786Y-55969531D01*
X104341137Y-60163181D01*
X104279814Y-60196666D01*
X104253456Y-60199500D01*
X104177525Y-60199500D01*
X104048993Y-60233940D01*
X104037511Y-60237017D01*
X103911988Y-60309488D01*
X103911982Y-60309493D01*
X103809493Y-60411982D01*
X103809488Y-60411988D01*
X103737017Y-60537511D01*
X103737016Y-60537515D01*
X103699500Y-60677525D01*
X100500500Y-60677525D01*
X100500500Y-52893753D01*
X101150000Y-52893753D01*
X101150000Y-53106246D01*
X101183242Y-53316127D01*
X101183242Y-53316130D01*
X101248904Y-53518217D01*
X101345375Y-53707550D01*
X101384728Y-53761716D01*
X102017037Y-53129408D01*
X102034075Y-53192993D01*
X102099901Y-53307007D01*
X102192993Y-53400099D01*
X102307007Y-53465925D01*
X102370590Y-53482962D01*
X101738282Y-54115269D01*
X101738282Y-54115270D01*
X101792449Y-54154624D01*
X101981782Y-54251095D01*
X102183870Y-54316757D01*
X102393754Y-54350000D01*
X102606246Y-54350000D01*
X102816127Y-54316757D01*
X102816130Y-54316757D01*
X103018217Y-54251095D01*
X103207554Y-54154622D01*
X103261716Y-54115270D01*
X103261717Y-54115270D01*
X102629408Y-53482962D01*
X102692993Y-53465925D01*
X102807007Y-53400099D01*
X102900099Y-53307007D01*
X102965925Y-53192993D01*
X102982962Y-53129409D01*
X103615270Y-53761717D01*
X103615270Y-53761716D01*
X103654622Y-53707554D01*
X103751096Y-53518215D01*
X103783239Y-53419288D01*
X103822676Y-53361612D01*
X103887034Y-53334413D01*
X103955880Y-53346327D01*
X104007357Y-53393571D01*
X104019100Y-53419284D01*
X104020127Y-53422446D01*
X104042281Y-53465925D01*
X104098768Y-53576788D01*
X104200586Y-53716928D01*
X104323072Y-53839414D01*
X104463212Y-53941232D01*
X104617555Y-54019873D01*
X104782299Y-54073402D01*
X104953389Y-54100500D01*
X104953390Y-54100500D01*
X105126610Y-54100500D01*
X105126611Y-54100500D01*
X105297701Y-54073402D01*
X105462445Y-54019873D01*
X105616788Y-53941232D01*
X105756928Y-53839414D01*
X105879414Y-53716928D01*
X105981232Y-53576788D01*
X106059873Y-53422445D01*
X106060896Y-53419294D01*
X106061610Y-53418250D01*
X106061734Y-53417952D01*
X106061796Y-53417977D01*
X106100327Y-53361618D01*
X106164683Y-53334415D01*
X106233530Y-53346323D01*
X106285011Y-53393562D01*
X106296760Y-53419287D01*
X106328904Y-53518217D01*
X106425375Y-53707550D01*
X106464728Y-53761716D01*
X107097037Y-53129408D01*
X107114075Y-53192993D01*
X107179901Y-53307007D01*
X107272993Y-53400099D01*
X107387007Y-53465925D01*
X107450590Y-53482962D01*
X106818282Y-54115269D01*
X106818282Y-54115270D01*
X106872449Y-54154624D01*
X107061782Y-54251095D01*
X107263870Y-54316757D01*
X107473754Y-54350000D01*
X107686246Y-54350000D01*
X107896127Y-54316757D01*
X107896129Y-54316757D01*
X107909619Y-54312374D01*
X107979460Y-54310377D01*
X108039294Y-54346456D01*
X108070123Y-54409156D01*
X108062161Y-54478570D01*
X108035621Y-54517985D01*
X106240426Y-56313181D01*
X106179103Y-56346666D01*
X106152745Y-56349500D01*
X104679386Y-56349500D01*
X104612347Y-56329815D01*
X104591705Y-56313181D01*
X104588017Y-56309493D01*
X104588011Y-56309488D01*
X104462488Y-56237017D01*
X104462489Y-56237017D01*
X104451006Y-56233940D01*
X104322475Y-56199500D01*
X104177525Y-56199500D01*
X104048993Y-56233940D01*
X104037511Y-56237017D01*
X103911988Y-56309488D01*
X103911982Y-56309493D01*
X103809493Y-56411982D01*
X103809488Y-56411988D01*
X103737017Y-56537511D01*
X103737016Y-56537515D01*
X103699500Y-56677525D01*
X103699500Y-56822475D01*
X103732625Y-56946097D01*
X103737017Y-56962488D01*
X103809488Y-57088011D01*
X103809490Y-57088013D01*
X103809491Y-57088015D01*
X103911985Y-57190509D01*
X103911986Y-57190510D01*
X103911988Y-57190511D01*
X104037511Y-57262982D01*
X104037512Y-57262982D01*
X104037515Y-57262984D01*
X104177525Y-57300500D01*
X104177528Y-57300500D01*
X104322472Y-57300500D01*
X104322475Y-57300500D01*
X104462485Y-57262984D01*
X104588015Y-57190509D01*
X104591705Y-57186819D01*
X104653028Y-57153334D01*
X104679386Y-57150500D01*
X106422725Y-57150500D01*
X106422727Y-57150500D01*
X106524588Y-57123207D01*
X106615913Y-57070480D01*
X109549574Y-54136819D01*
X109610897Y-54103334D01*
X109637255Y-54100500D01*
X110994676Y-54100500D01*
X110994677Y-54100499D01*
X111067740Y-54085966D01*
X111150601Y-54030601D01*
X111205966Y-53947740D01*
X111220500Y-53874674D01*
X111220500Y-53623389D01*
X145899500Y-53623389D01*
X145899500Y-53796610D01*
X145923435Y-53947735D01*
X145926598Y-53967701D01*
X145980127Y-54132445D01*
X146058768Y-54286788D01*
X146160586Y-54426928D01*
X146283072Y-54549414D01*
X146423212Y-54651232D01*
X146577555Y-54729873D01*
X146742299Y-54783402D01*
X146913389Y-54810500D01*
X146913390Y-54810500D01*
X147086610Y-54810500D01*
X147086611Y-54810500D01*
X147257701Y-54783402D01*
X147422445Y-54729873D01*
X147576788Y-54651232D01*
X147716928Y-54549414D01*
X147839414Y-54426928D01*
X147941232Y-54286788D01*
X148019873Y-54132445D01*
X148073402Y-53967701D01*
X148100500Y-53796611D01*
X148100500Y-53623389D01*
X148073402Y-53452299D01*
X148019873Y-53287555D01*
X147941232Y-53133212D01*
X147839414Y-52993072D01*
X147716928Y-52870586D01*
X147576788Y-52768768D01*
X147422445Y-52690127D01*
X147257701Y-52636598D01*
X147257699Y-52636597D01*
X147257698Y-52636597D01*
X147126271Y-52615781D01*
X147086611Y-52609500D01*
X146913389Y-52609500D01*
X146873728Y-52615781D01*
X146742302Y-52636597D01*
X146577552Y-52690128D01*
X146423211Y-52768768D01*
X146343256Y-52826859D01*
X146283072Y-52870586D01*
X146283070Y-52870588D01*
X146283069Y-52870588D01*
X146160588Y-52993069D01*
X146160588Y-52993070D01*
X146160586Y-52993072D01*
X146155552Y-53000001D01*
X146058768Y-53133211D01*
X145980128Y-53287552D01*
X145926597Y-53452302D01*
X145899500Y-53623389D01*
X111220500Y-53623389D01*
X111220500Y-52125326D01*
X111220500Y-52125323D01*
X111220499Y-52125321D01*
X111205967Y-52052264D01*
X111205966Y-52052260D01*
X111199426Y-52042472D01*
X111150601Y-51969399D01*
X111067740Y-51914034D01*
X111067739Y-51914033D01*
X111067735Y-51914032D01*
X110994677Y-51899500D01*
X110994674Y-51899500D01*
X109245326Y-51899500D01*
X109245323Y-51899500D01*
X109172264Y-51914032D01*
X109172260Y-51914033D01*
X109089399Y-51969399D01*
X109034033Y-52052260D01*
X109034032Y-52052264D01*
X109019500Y-52125321D01*
X109019500Y-52335050D01*
X108999815Y-52402089D01*
X108947011Y-52447844D01*
X108877853Y-52457788D01*
X108814297Y-52428763D01*
X108785015Y-52391345D01*
X108734624Y-52292450D01*
X108695270Y-52238282D01*
X108695269Y-52238282D01*
X108062962Y-52870590D01*
X108045925Y-52807007D01*
X107980099Y-52692993D01*
X107887007Y-52599901D01*
X107772993Y-52534075D01*
X107709409Y-52517037D01*
X108341716Y-51884728D01*
X108287550Y-51845375D01*
X108098217Y-51748904D01*
X107896129Y-51683242D01*
X107686246Y-51650000D01*
X107473754Y-51650000D01*
X107263872Y-51683242D01*
X107263869Y-51683242D01*
X107061782Y-51748904D01*
X106872439Y-51845380D01*
X106818282Y-51884727D01*
X106818282Y-51884728D01*
X107450591Y-52517037D01*
X107387007Y-52534075D01*
X107272993Y-52599901D01*
X107179901Y-52692993D01*
X107114075Y-52807007D01*
X107097037Y-52870591D01*
X106464728Y-52238282D01*
X106464727Y-52238282D01*
X106425380Y-52292439D01*
X106328904Y-52481783D01*
X106296760Y-52580712D01*
X106257322Y-52638388D01*
X106192964Y-52665586D01*
X106124117Y-52653671D01*
X106072642Y-52606427D01*
X106060898Y-52580711D01*
X106059873Y-52577555D01*
X105981232Y-52423212D01*
X105879414Y-52283072D01*
X105756928Y-52160586D01*
X105616788Y-52058768D01*
X105462445Y-51980127D01*
X105297701Y-51926598D01*
X105297699Y-51926597D01*
X105297698Y-51926597D01*
X105166271Y-51905781D01*
X105126611Y-51899500D01*
X104953389Y-51899500D01*
X104913728Y-51905781D01*
X104782302Y-51926597D01*
X104617552Y-51980128D01*
X104463211Y-52058768D01*
X104383256Y-52116859D01*
X104323072Y-52160586D01*
X104323070Y-52160588D01*
X104323069Y-52160588D01*
X104200588Y-52283069D01*
X104200588Y-52283070D01*
X104200586Y-52283072D01*
X104162822Y-52335050D01*
X104098768Y-52423211D01*
X104020128Y-52577550D01*
X104019487Y-52579522D01*
X104019102Y-52580712D01*
X104019099Y-52580720D01*
X104018381Y-52581769D01*
X104018266Y-52582048D01*
X104018207Y-52582023D01*
X103979657Y-52638393D01*
X103915297Y-52665587D01*
X103846451Y-52653668D01*
X103794979Y-52606420D01*
X103783239Y-52580711D01*
X103751096Y-52481784D01*
X103654624Y-52292449D01*
X103615270Y-52238282D01*
X103615269Y-52238282D01*
X102982962Y-52870590D01*
X102965925Y-52807007D01*
X102900099Y-52692993D01*
X102807007Y-52599901D01*
X102692993Y-52534075D01*
X102629409Y-52517037D01*
X103261716Y-51884728D01*
X103207550Y-51845375D01*
X103018217Y-51748904D01*
X102816129Y-51683242D01*
X102606246Y-51650000D01*
X102393754Y-51650000D01*
X102183872Y-51683242D01*
X102183869Y-51683242D01*
X101981782Y-51748904D01*
X101792439Y-51845380D01*
X101738282Y-51884727D01*
X101738282Y-51884728D01*
X102370591Y-52517037D01*
X102307007Y-52534075D01*
X102192993Y-52599901D01*
X102099901Y-52692993D01*
X102034075Y-52807007D01*
X102017037Y-52870591D01*
X101384728Y-52238282D01*
X101384727Y-52238282D01*
X101345380Y-52292439D01*
X101248904Y-52481782D01*
X101183242Y-52683869D01*
X101183242Y-52683872D01*
X101150000Y-52893753D01*
X100500500Y-52893753D01*
X100500500Y-50624500D01*
X100520185Y-50557461D01*
X100572989Y-50511706D01*
X100624500Y-50500500D01*
X149375500Y-50500500D01*
X149442539Y-50520185D01*
G37*
%TD.AperFunction*%
%TD*%
%TA.AperFunction,Conductor*%
%TO.N,VCC*%
G36*
X106693039Y-72019685D02*
G01*
X106738794Y-72072489D01*
X106750000Y-72124000D01*
X106750000Y-75626000D01*
X106730315Y-75693039D01*
X106677511Y-75738794D01*
X106626000Y-75750000D01*
X103624000Y-75750000D01*
X103556961Y-75730315D01*
X103511206Y-75677511D01*
X103500000Y-75626000D01*
X103500000Y-72124000D01*
X103519685Y-72056961D01*
X103572489Y-72011206D01*
X103624000Y-72000000D01*
X106626000Y-72000000D01*
X106693039Y-72019685D01*
G37*
%TD.AperFunction*%
%TD*%
M02*
