%TF.GenerationSoftware,KiCad,Pcbnew,9.0.6*%
%TF.CreationDate,2026-07-08T00:43:14+02:00*%
%TF.ProjectId,AD8429,41443834-3239-42e6-9b69-6361645f7063,rev?*%
%TF.SameCoordinates,Original*%
%TF.FileFunction,Copper,L1,Top*%
%TF.FilePolarity,Positive*%
%FSLAX46Y46*%
G04 Gerber Fmt 4.6, Leading zero omitted, Abs format (unit mm)*
G04 Created by KiCad (PCBNEW 9.0.6) date 2026-07-08 00:43:14*
%MOMM*%
%LPD*%
G01*
G04 APERTURE LIST*
G04 Aperture macros list*
%AMRoundRect*
0 Rectangle with rounded corners*
0 $1 Rounding radius*
0 $2 $3 $4 $5 $6 $7 $8 $9 X,Y pos of 4 corners*
0 Add a 4 corners polygon primitive as box body*
4,1,4,$2,$3,$4,$5,$6,$7,$8,$9,$2,$3,0*
0 Add four circle primitives for the rounded corners*
1,1,$1+$1,$2,$3*
1,1,$1+$1,$4,$5*
1,1,$1+$1,$6,$7*
1,1,$1+$1,$8,$9*
0 Add four rect primitives between the rounded corners*
20,1,$1+$1,$2,$3,$4,$5,0*
20,1,$1+$1,$4,$5,$6,$7,0*
20,1,$1+$1,$6,$7,$8,$9,0*
20,1,$1+$1,$8,$9,$2,$3,0*%
G04 Aperture macros list end*
%TA.AperFunction,SMDPad,CuDef*%
%ADD10RoundRect,0.250000X0.450000X-0.350000X0.450000X0.350000X-0.450000X0.350000X-0.450000X-0.350000X0*%
%TD*%
%TA.AperFunction,SMDPad,CuDef*%
%ADD11RoundRect,0.250000X-0.337500X-0.475000X0.337500X-0.475000X0.337500X0.475000X-0.337500X0.475000X0*%
%TD*%
%TA.AperFunction,ComponentPad*%
%ADD12R,1.700000X1.700000*%
%TD*%
%TA.AperFunction,ComponentPad*%
%ADD13C,1.700000*%
%TD*%
%TA.AperFunction,SMDPad,CuDef*%
%ADD14RoundRect,0.250000X-0.350000X-0.450000X0.350000X-0.450000X0.350000X0.450000X-0.350000X0.450000X0*%
%TD*%
%TA.AperFunction,SMDPad,CuDef*%
%ADD15RoundRect,0.250000X0.350000X0.450000X-0.350000X0.450000X-0.350000X-0.450000X0.350000X-0.450000X0*%
%TD*%
%TA.AperFunction,SMDPad,CuDef*%
%ADD16R,1.500000X1.000000*%
%TD*%
%TA.AperFunction,SMDPad,CuDef*%
%ADD17RoundRect,0.250000X0.337500X0.475000X-0.337500X0.475000X-0.337500X-0.475000X0.337500X-0.475000X0*%
%TD*%
%TA.AperFunction,SMDPad,CuDef*%
%ADD18RoundRect,0.150000X0.150000X-0.512500X0.150000X0.512500X-0.150000X0.512500X-0.150000X-0.512500X0*%
%TD*%
%TA.AperFunction,SMDPad,CuDef*%
%ADD19R,0.650000X1.525000*%
%TD*%
%TA.AperFunction,SMDPad,CuDef*%
%ADD20R,0.600000X1.200000*%
%TD*%
%TA.AperFunction,SMDPad,CuDef*%
%ADD21RoundRect,0.250000X-0.475000X0.337500X-0.475000X-0.337500X0.475000X-0.337500X0.475000X0.337500X0*%
%TD*%
%TA.AperFunction,SMDPad,CuDef*%
%ADD22R,1.000000X1.500000*%
%TD*%
%TA.AperFunction,SMDPad,CuDef*%
%ADD23RoundRect,0.250000X-0.450000X0.350000X-0.450000X-0.350000X0.450000X-0.350000X0.450000X0.350000X0*%
%TD*%
%TA.AperFunction,ComponentPad*%
%ADD24C,2.000000*%
%TD*%
%TA.AperFunction,SMDPad,CuDef*%
%ADD25RoundRect,0.150000X-0.150000X0.512500X-0.150000X-0.512500X0.150000X-0.512500X0.150000X0.512500X0*%
%TD*%
%TA.AperFunction,SMDPad,CuDef*%
%ADD26RoundRect,0.250000X0.475000X-0.337500X0.475000X0.337500X-0.475000X0.337500X-0.475000X-0.337500X0*%
%TD*%
%TA.AperFunction,ViaPad*%
%ADD27C,0.600000*%
%TD*%
%TA.AperFunction,Conductor*%
%ADD28C,0.600000*%
%TD*%
%TA.AperFunction,Conductor*%
%ADD29C,0.300000*%
%TD*%
%TA.AperFunction,Conductor*%
%ADD30C,0.200000*%
%TD*%
G04 APERTURE END LIST*
D10*
%TO.P,R4,2*%
%TO.N,Net-(U3-FB)*%
X46750000Y-30500000D03*
%TO.P,R4,1*%
%TO.N,-7V*%
X46750000Y-32500000D03*
%TD*%
%TO.P,R5,2*%
%TO.N,GND*%
X49000000Y-26500000D03*
%TO.P,R5,1*%
%TO.N,Net-(U3-FB)*%
X49000000Y-28500000D03*
%TD*%
D11*
%TO.P,C3,1*%
%TO.N,AD8429_OUT*%
X61462500Y-26250000D03*
%TO.P,C3,2*%
%TO.N,GND*%
X63537500Y-26250000D03*
%TD*%
D12*
%TO.P,J4,1,Pin_1*%
%TO.N,VCC*%
X76750000Y-32975000D03*
D13*
%TO.P,J4,2,Pin_2*%
%TO.N,GND*%
X76750000Y-35515000D03*
%TD*%
D11*
%TO.P,C1,1*%
%TO.N,GND*%
X58212500Y-35000000D03*
%TO.P,C1,2*%
%TO.N,VS+*%
X60287500Y-35000000D03*
%TD*%
D14*
%TO.P,R3,1*%
%TO.N,Net-(U2-+)*%
X70000000Y-36250000D03*
%TO.P,R3,2*%
%TO.N,GND*%
X72000000Y-36250000D03*
%TD*%
D12*
%TO.P,J7,1,Pin_1*%
%TO.N,AD8429_OUT*%
X69000000Y-23000000D03*
D13*
%TO.P,J7,2,Pin_2*%
%TO.N,GND*%
X71540000Y-23000000D03*
%TD*%
D15*
%TO.P,R2,1*%
%TO.N,VCC*%
X72000000Y-34000000D03*
%TO.P,R2,2*%
%TO.N,Net-(U2-+)*%
X70000000Y-34000000D03*
%TD*%
D14*
%TO.P,RG1,1*%
%TO.N,Net-(RG1-Pad1)*%
X61500000Y-45000000D03*
%TO.P,RG1,2*%
%TO.N,Net-(RG1-Pad2)*%
X63500000Y-45000000D03*
%TD*%
D16*
%TO.P,JP1,1,A*%
%TO.N,GND*%
X67250000Y-38500000D03*
%TO.P,JP1,2,C*%
%TO.N,VREF*%
X67250000Y-39800000D03*
%TO.P,JP1,3,B*%
%TO.N,VCC{slash}2*%
X67250000Y-41100000D03*
%TD*%
D17*
%TO.P,C6,1*%
%TO.N,GND*%
X72037500Y-31750000D03*
%TO.P,C6,2*%
%TO.N,Net-(U2-+)*%
X69962500Y-31750000D03*
%TD*%
D12*
%TO.P,J1,1,Pin_1*%
%TO.N,GND*%
X76750000Y-39960000D03*
D13*
%TO.P,J1,2,Pin_2*%
%TO.N,VS-*%
X76750000Y-42500000D03*
%TO.P,J1,3,Pin_3*%
%TO.N,VS+*%
X76750000Y-45040000D03*
%TD*%
D18*
%TO.P,U4,1,VIN*%
%TO.N,VIN+*%
X50786500Y-46787500D03*
%TO.P,U4,2,GND*%
%TO.N,GND*%
X51736500Y-46787500D03*
%TO.P,U4,3,BYP*%
%TO.N,Net-(U4-BYP)*%
X52686500Y-46787500D03*
%TO.P,U4,4,ADJ*%
%TO.N,Net-(U4-ADJ)*%
X52686500Y-44512500D03*
%TO.P,U4,5,VOUT*%
%TO.N,7V*%
X50786500Y-44512500D03*
%TD*%
D19*
%TO.P,U1,1,-*%
%TO.N,IN-*%
X60595000Y-42712000D03*
%TO.P,U1,2,Rg*%
%TO.N,Net-(RG1-Pad1)*%
X61865000Y-42712000D03*
%TO.P,U1,3,Rg*%
%TO.N,Net-(RG1-Pad2)*%
X63135000Y-42712000D03*
%TO.P,U1,4,+*%
%TO.N,IN+*%
X64405000Y-42712000D03*
%TO.P,U1,5,Vs-*%
%TO.N,VS-*%
X64405000Y-37288000D03*
%TO.P,U1,6,Ref*%
%TO.N,VREF*%
X63135000Y-37288000D03*
%TO.P,U1,7*%
%TO.N,Net-(R1-Pad2)*%
X61865000Y-37288000D03*
%TO.P,U1,8,Vs+*%
%TO.N,VS+*%
X60595000Y-37288000D03*
%TD*%
D20*
%TO.P,U2,1*%
%TO.N,VCC{slash}2*%
X72250000Y-38500000D03*
%TO.P,U2,2,V-*%
%TO.N,GND*%
X71300000Y-38500000D03*
%TO.P,U2,3,+*%
%TO.N,Net-(U2-+)*%
X70350000Y-38500000D03*
%TO.P,U2,4,-*%
%TO.N,VCC{slash}2*%
X70350000Y-41000000D03*
%TO.P,U2,5,V+*%
%TO.N,VS+*%
X72250000Y-41000000D03*
%TD*%
D21*
%TO.P,C11,1*%
%TO.N,7V*%
X54736500Y-44612500D03*
%TO.P,C11,2*%
%TO.N,Net-(U4-BYP)*%
X54736500Y-46687500D03*
%TD*%
D17*
%TO.P,C8,1*%
%TO.N,GND*%
X52987500Y-26250000D03*
%TO.P,C8,2*%
%TO.N,VIN-*%
X50912500Y-26250000D03*
%TD*%
D22*
%TO.P,JP3,1,A*%
%TO.N,7V*%
X50600000Y-38750000D03*
%TO.P,JP3,2,B*%
%TO.N,VS+*%
X51900000Y-38750000D03*
%TD*%
%TO.P,JP2,1,A*%
%TO.N,-7V*%
X50600000Y-35750000D03*
%TO.P,JP2,2,B*%
%TO.N,VS-*%
X51900000Y-35750000D03*
%TD*%
D14*
%TO.P,RG2,1*%
%TO.N,unconnected-(RG2-Pad1)*%
X61500000Y-47000000D03*
%TO.P,RG2,2*%
%TO.N,unconnected-(RG2-Pad2)*%
X63500000Y-47000000D03*
%TD*%
D12*
%TO.P,J3,1,Pin_1*%
%TO.N,GND*%
X58710000Y-52000000D03*
D13*
%TO.P,J3,2,Pin_2*%
%TO.N,IN-*%
X61250000Y-52000000D03*
%TO.P,J3,3,Pin_3*%
%TO.N,IN+*%
X63790000Y-52000000D03*
%TO.P,J3,4,Pin_4*%
%TO.N,GND*%
X66330000Y-52000000D03*
%TD*%
D12*
%TO.P,J5,1,Pin_1*%
%TO.N,VIN-*%
X50500000Y-23000000D03*
D13*
%TO.P,J5,2,Pin_2*%
%TO.N,GND*%
X53040000Y-23000000D03*
%TD*%
D12*
%TO.P,J2,1,Pin_1*%
%TO.N,AD8429_OUT*%
X61475000Y-23000000D03*
D13*
%TO.P,J2,2,Pin_2*%
%TO.N,GND*%
X64015000Y-23000000D03*
%TD*%
D23*
%TO.P,R7,1*%
%TO.N,Net-(U4-ADJ)*%
X48000000Y-46049000D03*
%TO.P,R7,2*%
%TO.N,GND*%
X48000000Y-48049000D03*
%TD*%
D12*
%TO.P,J6,1,Pin_1*%
%TO.N,VIN+*%
X50250000Y-52049000D03*
D13*
%TO.P,J6,2,Pin_2*%
%TO.N,GND*%
X52790000Y-52049000D03*
%TD*%
D24*
%TO.P,TP1,1,1*%
%TO.N,GND*%
X76750000Y-24000000D03*
%TD*%
D17*
%TO.P,C10,1*%
%TO.N,GND*%
X53337500Y-32525000D03*
%TO.P,C10,2*%
%TO.N,-7V*%
X51262500Y-32525000D03*
%TD*%
D25*
%TO.P,U3,1,GND*%
%TO.N,GND*%
X52950000Y-28250000D03*
%TO.P,U3,2,IN*%
%TO.N,VIN-*%
X52000000Y-28250000D03*
%TO.P,U3,3,EN*%
X51050000Y-28250000D03*
%TO.P,U3,4,FB*%
%TO.N,Net-(U3-FB)*%
X51050000Y-30525000D03*
%TO.P,U3,5,OUT*%
%TO.N,-7V*%
X52950000Y-30525000D03*
%TD*%
D17*
%TO.P,C5,1*%
%TO.N,GND*%
X66787500Y-32750000D03*
%TO.P,C5,2*%
%TO.N,VS-*%
X64712500Y-32750000D03*
%TD*%
%TO.P,C4,1*%
%TO.N,GND*%
X66787500Y-35000000D03*
%TO.P,C4,2*%
%TO.N,VS-*%
X64712500Y-35000000D03*
%TD*%
D23*
%TO.P,R6,1*%
%TO.N,7V*%
X48000000Y-42299000D03*
%TO.P,R6,2*%
%TO.N,Net-(U4-ADJ)*%
X48000000Y-44299000D03*
%TD*%
%TO.P,R1,1*%
%TO.N,AD8429_OUT*%
X61500000Y-28250000D03*
%TO.P,R1,2*%
%TO.N,Net-(R1-Pad2)*%
X61500000Y-30250000D03*
%TD*%
D17*
%TO.P,C12,1*%
%TO.N,GND*%
X52274000Y-48900000D03*
%TO.P,C12,2*%
%TO.N,VIN+*%
X50199000Y-48900000D03*
%TD*%
D26*
%TO.P,C2,1*%
%TO.N,GND*%
X58250000Y-39287500D03*
%TO.P,C2,2*%
%TO.N,VS+*%
X58250000Y-37212500D03*
%TD*%
D17*
%TO.P,C13,1*%
%TO.N,GND*%
X52524000Y-42400000D03*
%TO.P,C13,2*%
%TO.N,7V*%
X50449000Y-42400000D03*
%TD*%
D21*
%TO.P,C9,2*%
%TO.N,-7V*%
X49000000Y-32537500D03*
%TO.P,C9,1*%
%TO.N,Net-(U3-FB)*%
X49000000Y-30462500D03*
%TD*%
D11*
%TO.P,C7,1*%
%TO.N,GND*%
X70212500Y-43250000D03*
%TO.P,C7,2*%
%TO.N,VS+*%
X72287500Y-43250000D03*
%TD*%
D24*
%TO.P,TP2,1,1*%
%TO.N,GND*%
X76750000Y-51000000D03*
%TD*%
D27*
%TO.N,GND*%
X46750000Y-25250000D03*
X46750000Y-28500000D03*
X53750000Y-29500000D03*
X52000000Y-30750000D03*
X52000000Y-29750000D03*
X49000000Y-25500000D03*
X52000000Y-45750000D03*
X53500000Y-44750000D03*
X75000000Y-26000000D03*
X46750000Y-45049000D03*
X59250000Y-28750000D03*
X66500000Y-22500000D03*
X74250000Y-43750000D03*
X46750000Y-35250000D03*
X46750000Y-52250000D03*
X75000000Y-22500000D03*
X54500000Y-32500000D03*
X78500000Y-52750000D03*
X68000000Y-32750000D03*
X71000000Y-26000000D03*
X66000000Y-45750000D03*
X78500000Y-49250000D03*
X57250000Y-35000000D03*
X64807500Y-26250000D03*
X58246630Y-36121630D03*
X63750000Y-40000000D03*
X73250000Y-36250000D03*
X59250000Y-26250000D03*
X57500000Y-22500000D03*
X66750000Y-36250000D03*
X48000000Y-49299000D03*
X67250000Y-37500000D03*
X53025000Y-25000000D03*
X53500000Y-33750000D03*
X70250000Y-44500000D03*
X71000000Y-49250000D03*
X53500000Y-45549000D03*
X46750000Y-42049000D03*
X63000000Y-35000000D03*
X69000000Y-43250000D03*
X53486500Y-42400000D03*
X78500000Y-29500000D03*
X52250000Y-50000000D03*
X46750000Y-22500000D03*
X58750000Y-48250000D03*
X73250000Y-31750000D03*
X67500000Y-26000000D03*
X74750000Y-49250000D03*
X71000000Y-52750000D03*
X53236500Y-48900000D03*
X59192500Y-31500000D03*
X66000000Y-43250000D03*
X62500000Y-49500000D03*
X61250000Y-40000000D03*
X54000000Y-26250000D03*
X78500000Y-22500000D03*
X46750000Y-38500000D03*
X68000000Y-35000000D03*
X74750000Y-52750000D03*
X58750000Y-43250000D03*
X70000000Y-39750000D03*
X66750000Y-31500000D03*
X53750000Y-28250000D03*
X52500000Y-41250000D03*
X46750000Y-48049000D03*
X58750000Y-45750000D03*
X64807500Y-28750000D03*
X58250000Y-40250000D03*
X66000000Y-48250000D03*
X78500000Y-26000000D03*
%TO.N,VS+*%
X56750000Y-38750000D03*
X72250000Y-44500000D03*
%TO.N,VS-*%
X63750000Y-32750000D03*
X54250000Y-35750000D03*
%TD*%
D28*
%TO.N,GND*%
X52950000Y-28175000D02*
X52987500Y-28212500D01*
X52987500Y-26250000D02*
X52950000Y-26287500D01*
X52950000Y-26287500D02*
X52950000Y-28175000D01*
D29*
X53750000Y-28250000D02*
X52950000Y-28250000D01*
X52950000Y-28800000D02*
X52950000Y-28250000D01*
X52000000Y-29750000D02*
X52950000Y-28800000D01*
%TO.N,-7V*%
X52950000Y-30837500D02*
X51262500Y-32525000D01*
X52950000Y-30525000D02*
X52950000Y-30837500D01*
%TO.N,GND*%
X54000000Y-31862500D02*
X53337500Y-32525000D01*
X54000000Y-30199822D02*
X54000000Y-31862500D01*
X52950000Y-28250000D02*
X52950000Y-29149822D01*
X52950000Y-29149822D02*
X54000000Y-30199822D01*
X49000000Y-26500000D02*
X49000000Y-25500000D01*
D30*
%TO.N,Net-(U3-FB)*%
X50987500Y-30462500D02*
X51050000Y-30525000D01*
X49000000Y-30462500D02*
X50987500Y-30462500D01*
X49000000Y-30462500D02*
X49000000Y-28500000D01*
X46750000Y-30500000D02*
X48962500Y-30500000D01*
X48962500Y-30500000D02*
X49000000Y-30462500D01*
D29*
%TO.N,-7V*%
X48962500Y-32500000D02*
X49000000Y-32537500D01*
X46750000Y-32500000D02*
X48962500Y-32500000D01*
X49012500Y-32525000D02*
X49000000Y-32537500D01*
X51262500Y-32525000D02*
X49012500Y-32525000D01*
%TO.N,GND*%
X51736500Y-46013500D02*
X51736500Y-46787500D01*
X52201000Y-45549000D02*
X51736500Y-46013500D01*
X53500000Y-45549000D02*
X52201000Y-45549000D01*
D28*
X51736500Y-46787500D02*
X51736500Y-48362500D01*
D30*
%TO.N,Net-(U4-ADJ)*%
X52212000Y-44512500D02*
X52686500Y-44512500D01*
X51224500Y-45500000D02*
X52212000Y-44512500D01*
X48250000Y-46049000D02*
X48799000Y-45500000D01*
X48799000Y-45500000D02*
X51224500Y-45500000D01*
D29*
%TO.N,GND*%
X71300000Y-36950000D02*
X72000000Y-36250000D01*
X63537500Y-26250000D02*
X63537500Y-23477500D01*
X52987500Y-28212500D02*
X52950000Y-28250000D01*
X63537500Y-26250000D02*
X64807500Y-26250000D01*
X69000000Y-43250000D02*
X70212500Y-43250000D01*
X54250000Y-32500000D02*
X54225000Y-32525000D01*
X70000000Y-39750000D02*
X70500000Y-39750000D01*
X70500000Y-39750000D02*
X71300000Y-38950000D01*
X52274000Y-48900000D02*
X53236500Y-48900000D01*
X58212500Y-36087500D02*
X58212500Y-35000000D01*
X54225000Y-32525000D02*
X53337500Y-32525000D01*
X52524000Y-42400000D02*
X53486500Y-42400000D01*
X63537500Y-23477500D02*
X64015000Y-23000000D01*
X66787500Y-35000000D02*
X68000000Y-35000000D01*
X67250000Y-38500000D02*
X67250000Y-37500000D01*
X72037500Y-31750000D02*
X73250000Y-31750000D01*
X52987500Y-26250000D02*
X54000000Y-26250000D01*
X48000000Y-48049000D02*
X48000000Y-49299000D01*
X54500000Y-32500000D02*
X54250000Y-32500000D01*
X72000000Y-36250000D02*
X73250000Y-36250000D01*
X71300000Y-38500000D02*
X71300000Y-36950000D01*
X58250000Y-39287500D02*
X58250000Y-40250000D01*
X58246630Y-36121630D02*
X58212500Y-36087500D01*
X71300000Y-38950000D02*
X71300000Y-38500000D01*
D28*
X51736500Y-48362500D02*
X52274000Y-48900000D01*
D29*
X66787500Y-32750000D02*
X68000000Y-32750000D01*
D30*
%TO.N,AD8429_OUT*%
X61500000Y-28250000D02*
X61500000Y-26287500D01*
X62725000Y-21750000D02*
X67750000Y-21750000D01*
X61500000Y-26287500D02*
X61462500Y-26250000D01*
X61475000Y-23000000D02*
X62725000Y-21750000D01*
X61462500Y-26250000D02*
X61462500Y-23012500D01*
X61462500Y-23012500D02*
X61475000Y-23000000D01*
X67750000Y-21750000D02*
X69000000Y-23000000D01*
%TO.N,IN-*%
X60595000Y-42712000D02*
X60595000Y-51345000D01*
X60595000Y-51345000D02*
X61250000Y-52000000D01*
%TO.N,IN+*%
X64405000Y-42712000D02*
X64405000Y-51385000D01*
X64405000Y-51385000D02*
X63790000Y-52000000D01*
D29*
%TO.N,VCC*%
X72000000Y-34000000D02*
X75725000Y-34000000D01*
X76750000Y-32975000D02*
X76500000Y-32975000D01*
X75725000Y-34000000D02*
X76750000Y-32975000D01*
%TO.N,VREF*%
X63135000Y-37288000D02*
X63135000Y-37725500D01*
X65209500Y-39800000D02*
X67250000Y-39800000D01*
X63135000Y-37725500D02*
X65209500Y-39800000D01*
%TO.N,VCC{slash}2*%
X72250000Y-38500000D02*
X72250000Y-39100000D01*
X67250000Y-41100000D02*
X70250000Y-41100000D01*
X70250000Y-41100000D02*
X70350000Y-41000000D01*
X72250000Y-39100000D02*
X70350000Y-41000000D01*
D30*
%TO.N,Net-(U2-+)*%
X70350000Y-36600000D02*
X70000000Y-36250000D01*
X70000000Y-31787500D02*
X69962500Y-31750000D01*
X70350000Y-38500000D02*
X70350000Y-36600000D01*
X70000000Y-34000000D02*
X70000000Y-31787500D01*
X70000000Y-36250000D02*
X70000000Y-34000000D01*
D29*
%TO.N,VS+*%
X58250000Y-37212500D02*
X56712500Y-38750000D01*
X51900000Y-38750000D02*
X56750000Y-38750000D01*
X60557000Y-37250000D02*
X60595000Y-37288000D01*
X58250000Y-37212500D02*
X58250000Y-37037500D01*
X72250000Y-44500000D02*
X72250000Y-43287500D01*
X58250000Y-37037500D02*
X60287500Y-35000000D01*
X60595000Y-37288000D02*
X60595000Y-35307500D01*
X72287500Y-41037500D02*
X72250000Y-41000000D01*
D30*
X58212500Y-37250000D02*
X58250000Y-37212500D01*
D29*
X72250000Y-43287500D02*
X72287500Y-43250000D01*
X72287500Y-43250000D02*
X72287500Y-41037500D01*
X60595000Y-35307500D02*
X60287500Y-35000000D01*
%TO.N,VS-*%
X64405000Y-37288000D02*
X64405000Y-35307500D01*
X54250000Y-35750000D02*
X51900000Y-35750000D01*
X63750000Y-32750000D02*
X64712500Y-32750000D01*
X64538000Y-37288000D02*
X64405000Y-37288000D01*
X64712500Y-35000000D02*
X64712500Y-32750000D01*
D30*
X64750000Y-32712500D02*
X64712500Y-32750000D01*
D29*
X64405000Y-35307500D02*
X64712500Y-35000000D01*
D30*
%TO.N,Net-(U3-FB)*%
X49000000Y-30525000D02*
X48975000Y-30500000D01*
X51037500Y-30537500D02*
X51050000Y-30525000D01*
D29*
%TO.N,VIN-*%
X51050000Y-26387500D02*
X50912500Y-26250000D01*
X50887500Y-25750000D02*
X50887500Y-23387500D01*
X52000000Y-28250000D02*
X51050000Y-28250000D01*
X51050000Y-28250000D02*
X51050000Y-26387500D01*
%TO.N,VIN+*%
X50786500Y-48312500D02*
X50199000Y-48900000D01*
X50786500Y-46787500D02*
X50786500Y-48312500D01*
X50250000Y-52049000D02*
X50250000Y-48951000D01*
X50250000Y-48951000D02*
X50199000Y-48900000D01*
X49961500Y-49137500D02*
X50199000Y-48900000D01*
D30*
%TO.N,Net-(U4-BYP)*%
X54636500Y-46787500D02*
X54736500Y-46687500D01*
X52686500Y-46787500D02*
X54636500Y-46787500D01*
%TO.N,Net-(U4-ADJ)*%
X48000000Y-46049000D02*
X48000000Y-44299000D01*
D29*
%TO.N,-7V*%
X51262500Y-32212500D02*
X51262500Y-32525000D01*
X50950000Y-35750000D02*
X50950000Y-32812500D01*
X49000000Y-32525000D02*
X48975000Y-32500000D01*
X50850000Y-32937500D02*
X51262500Y-32525000D01*
X50975000Y-32812500D02*
X51262500Y-32525000D01*
X51237500Y-32500000D02*
X51262500Y-32525000D01*
%TO.N,7V*%
X50786500Y-42737500D02*
X50449000Y-42400000D01*
X54736500Y-44612500D02*
X53623000Y-43499000D01*
X53623000Y-43499000D02*
X51800000Y-43499000D01*
X50449000Y-42400000D02*
X48351000Y-42400000D01*
X50649000Y-44650000D02*
X50786500Y-44512500D01*
X50786500Y-44512500D02*
X50786500Y-42737500D01*
X50449000Y-42400000D02*
X50449000Y-39251000D01*
X50674000Y-44400000D02*
X50786500Y-44512500D01*
X50600000Y-42249000D02*
X50449000Y-42400000D01*
X51800000Y-43499000D02*
X50786500Y-44512500D01*
X50449000Y-39251000D02*
X50950000Y-38750000D01*
X48351000Y-42400000D02*
X48250000Y-42299000D01*
D30*
%TO.N,Net-(R1-Pad2)*%
X61865000Y-37288000D02*
X61865000Y-30115000D01*
X61865000Y-30615000D02*
X61500000Y-30250000D01*
%TO.N,Net-(RG1-Pad1)*%
X61865000Y-42712000D02*
X61865000Y-44635000D01*
X61865000Y-44635000D02*
X61500000Y-45000000D01*
%TO.N,Net-(RG1-Pad2)*%
X63135000Y-44635000D02*
X63500000Y-45000000D01*
X63135000Y-42712000D02*
X63135000Y-44635000D01*
%TD*%
%TA.AperFunction,Conductor*%
%TO.N,GND*%
G36*
X79442539Y-20520185D02*
G01*
X79488294Y-20572989D01*
X79499500Y-20624500D01*
X79499500Y-54375500D01*
X79479815Y-54442539D01*
X79427011Y-54488294D01*
X79375500Y-54499500D01*
X45624500Y-54499500D01*
X45557461Y-54479815D01*
X45511706Y-54427011D01*
X45500500Y-54375500D01*
X45500500Y-48448986D01*
X46800001Y-48448986D01*
X46810494Y-48551697D01*
X46865641Y-48718119D01*
X46865643Y-48718124D01*
X46957684Y-48867345D01*
X47081654Y-48991315D01*
X47230875Y-49083356D01*
X47230880Y-49083358D01*
X47397302Y-49138505D01*
X47397309Y-49138506D01*
X47500019Y-49148999D01*
X47749999Y-49148999D01*
X47750000Y-49148998D01*
X47750000Y-48299000D01*
X46800001Y-48299000D01*
X46800001Y-48448986D01*
X45500500Y-48448986D01*
X45500500Y-47649013D01*
X46800000Y-47649013D01*
X46800000Y-47799000D01*
X49199999Y-47799000D01*
X49199999Y-47649028D01*
X49199998Y-47649013D01*
X49189505Y-47546302D01*
X49145335Y-47413004D01*
X49142933Y-47343176D01*
X49178665Y-47283134D01*
X49241185Y-47251941D01*
X49263041Y-47250000D01*
X50117183Y-47250000D01*
X50184222Y-47269685D01*
X50229977Y-47322489D01*
X50239656Y-47354603D01*
X50250852Y-47425299D01*
X50250852Y-47425300D01*
X50250853Y-47425303D01*
X50250854Y-47425304D01*
X50308450Y-47538342D01*
X50308452Y-47538344D01*
X50308453Y-47538346D01*
X50349680Y-47579572D01*
X50364384Y-47606500D01*
X50380977Y-47632319D01*
X50381868Y-47638518D01*
X50383166Y-47640895D01*
X50386000Y-47667254D01*
X50386000Y-47800500D01*
X50366315Y-47867539D01*
X50313511Y-47913294D01*
X50262000Y-47924500D01*
X49813629Y-47924500D01*
X49813623Y-47924501D01*
X49754016Y-47930908D01*
X49619171Y-47981202D01*
X49619164Y-47981206D01*
X49503955Y-48067452D01*
X49503952Y-48067455D01*
X49417706Y-48182664D01*
X49417702Y-48182671D01*
X49394389Y-48245178D01*
X49352518Y-48301112D01*
X49287053Y-48325529D01*
X49218780Y-48310677D01*
X49203182Y-48299000D01*
X48250000Y-48299000D01*
X48250000Y-49148999D01*
X48499972Y-49148999D01*
X48499986Y-49148998D01*
X48602697Y-49138505D01*
X48769119Y-49083358D01*
X48769124Y-49083356D01*
X48918345Y-48991315D01*
X49042315Y-48867345D01*
X49131461Y-48722817D01*
X49183409Y-48676093D01*
X49252371Y-48664870D01*
X49316454Y-48692714D01*
X49355310Y-48750782D01*
X49361000Y-48787914D01*
X49361000Y-49422870D01*
X49361001Y-49422876D01*
X49367408Y-49482483D01*
X49417702Y-49617328D01*
X49417706Y-49617335D01*
X49503952Y-49732544D01*
X49503955Y-49732547D01*
X49619164Y-49818793D01*
X49619171Y-49818797D01*
X49761285Y-49871802D01*
X49760845Y-49872981D01*
X49814725Y-49903658D01*
X49847115Y-49965566D01*
X49849500Y-49989767D01*
X49849500Y-50824500D01*
X49829815Y-50891539D01*
X49777011Y-50937294D01*
X49725500Y-50948500D01*
X49375323Y-50948500D01*
X49302264Y-50963032D01*
X49302260Y-50963033D01*
X49219399Y-51018399D01*
X49164033Y-51101260D01*
X49164032Y-51101264D01*
X49149500Y-51174321D01*
X49149500Y-52923678D01*
X49164032Y-52996735D01*
X49164033Y-52996739D01*
X49164034Y-52996740D01*
X49219399Y-53079601D01*
X49302260Y-53134966D01*
X49302264Y-53134967D01*
X49375321Y-53149499D01*
X49375324Y-53149500D01*
X49375326Y-53149500D01*
X51124676Y-53149500D01*
X51124677Y-53149499D01*
X51197740Y-53134966D01*
X51280601Y-53079601D01*
X51335966Y-52996740D01*
X51350500Y-52923674D01*
X51350500Y-52713949D01*
X51370185Y-52646910D01*
X51422989Y-52601155D01*
X51492147Y-52591211D01*
X51555703Y-52620236D01*
X51584985Y-52657654D01*
X51635375Y-52756550D01*
X51674728Y-52810716D01*
X52307037Y-52178408D01*
X52324075Y-52241993D01*
X52389901Y-52356007D01*
X52482993Y-52449099D01*
X52597007Y-52514925D01*
X52660590Y-52531962D01*
X52028282Y-53164269D01*
X52028282Y-53164270D01*
X52082449Y-53203624D01*
X52271782Y-53300095D01*
X52473870Y-53365757D01*
X52683754Y-53399000D01*
X52896246Y-53399000D01*
X53106127Y-53365757D01*
X53106130Y-53365757D01*
X53308217Y-53300095D01*
X53497554Y-53203622D01*
X53551716Y-53164270D01*
X53551717Y-53164270D01*
X52919408Y-52531962D01*
X52982993Y-52514925D01*
X53097007Y-52449099D01*
X53190099Y-52356007D01*
X53255925Y-52241993D01*
X53272962Y-52178409D01*
X53905270Y-52810717D01*
X53905270Y-52810716D01*
X53944622Y-52756554D01*
X54041095Y-52567217D01*
X54106757Y-52365130D01*
X54106757Y-52365127D01*
X54136182Y-52179352D01*
X54136199Y-52179241D01*
X54140000Y-52155241D01*
X54140000Y-51942753D01*
X54106757Y-51732872D01*
X54106757Y-51732869D01*
X54041095Y-51530782D01*
X53944624Y-51341449D01*
X53905270Y-51287282D01*
X53905269Y-51287282D01*
X53272962Y-51919590D01*
X53255925Y-51856007D01*
X53190099Y-51741993D01*
X53097007Y-51648901D01*
X52982993Y-51583075D01*
X52919409Y-51566037D01*
X53383290Y-51102155D01*
X57360000Y-51102155D01*
X57360000Y-51750000D01*
X58276988Y-51750000D01*
X58244075Y-51807007D01*
X58210000Y-51934174D01*
X58210000Y-52065826D01*
X58244075Y-52192993D01*
X58276988Y-52250000D01*
X57360000Y-52250000D01*
X57360000Y-52897844D01*
X57366401Y-52957372D01*
X57366403Y-52957379D01*
X57416645Y-53092086D01*
X57416649Y-53092093D01*
X57502809Y-53207187D01*
X57502812Y-53207190D01*
X57617906Y-53293350D01*
X57617913Y-53293354D01*
X57752620Y-53343596D01*
X57752627Y-53343598D01*
X57812155Y-53349999D01*
X57812172Y-53350000D01*
X58460000Y-53350000D01*
X58460000Y-52433012D01*
X58517007Y-52465925D01*
X58644174Y-52500000D01*
X58775826Y-52500000D01*
X58902993Y-52465925D01*
X58960000Y-52433012D01*
X58960000Y-53350000D01*
X59607828Y-53350000D01*
X59607844Y-53349999D01*
X59667372Y-53343598D01*
X59667379Y-53343596D01*
X59802086Y-53293354D01*
X59802093Y-53293350D01*
X59917187Y-53207190D01*
X59917190Y-53207187D01*
X60003350Y-53092093D01*
X60003354Y-53092086D01*
X60053596Y-52957379D01*
X60053598Y-52957372D01*
X60059999Y-52897844D01*
X60060000Y-52897827D01*
X60060000Y-52605050D01*
X60079685Y-52538011D01*
X60132489Y-52492256D01*
X60201647Y-52482312D01*
X60265203Y-52511337D01*
X60294485Y-52548756D01*
X60308766Y-52576786D01*
X60339357Y-52618890D01*
X60410586Y-52716928D01*
X60533072Y-52839414D01*
X60673212Y-52941232D01*
X60827555Y-53019873D01*
X60992299Y-53073402D01*
X61163389Y-53100500D01*
X61163390Y-53100500D01*
X61336610Y-53100500D01*
X61336611Y-53100500D01*
X61507701Y-53073402D01*
X61672445Y-53019873D01*
X61826788Y-52941232D01*
X61966928Y-52839414D01*
X62089414Y-52716928D01*
X62191232Y-52576788D01*
X62269873Y-52422445D01*
X62323402Y-52257701D01*
X62350500Y-52086611D01*
X62350500Y-51913389D01*
X62323402Y-51742299D01*
X62269873Y-51577555D01*
X62191232Y-51423212D01*
X62089414Y-51283072D01*
X61966928Y-51160586D01*
X61826788Y-51058768D01*
X61672445Y-50980127D01*
X61507701Y-50926598D01*
X61507699Y-50926597D01*
X61507698Y-50926597D01*
X61371103Y-50904963D01*
X61336611Y-50899500D01*
X61163389Y-50899500D01*
X61088897Y-50911298D01*
X61019604Y-50902343D01*
X60966152Y-50857347D01*
X60945513Y-50790595D01*
X60945500Y-50788825D01*
X60945500Y-48071706D01*
X60965185Y-48004667D01*
X61017989Y-47958912D01*
X61082755Y-47948417D01*
X61102127Y-47950500D01*
X61897872Y-47950499D01*
X61957483Y-47944091D01*
X62092331Y-47893796D01*
X62207546Y-47807546D01*
X62213428Y-47799687D01*
X62269361Y-47757818D01*
X62312694Y-47750000D01*
X62687306Y-47750000D01*
X62754345Y-47769685D01*
X62786570Y-47799686D01*
X62792454Y-47807546D01*
X62792455Y-47807546D01*
X62792456Y-47807548D01*
X62907664Y-47893793D01*
X62907671Y-47893797D01*
X63042517Y-47944091D01*
X63042516Y-47944091D01*
X63049444Y-47944835D01*
X63102127Y-47950500D01*
X63897872Y-47950499D01*
X63899977Y-47950272D01*
X63917245Y-47948417D01*
X63986004Y-47960822D01*
X64037142Y-48008432D01*
X64054500Y-48071706D01*
X64054500Y-50782489D01*
X64034815Y-50849528D01*
X63982011Y-50895283D01*
X63912853Y-50905227D01*
X63911105Y-50904963D01*
X63894561Y-50902343D01*
X63876611Y-50899500D01*
X63703389Y-50899500D01*
X63668897Y-50904963D01*
X63532302Y-50926597D01*
X63367552Y-50980128D01*
X63213211Y-51058768D01*
X63154727Y-51101260D01*
X63073072Y-51160586D01*
X63073070Y-51160588D01*
X63073069Y-51160588D01*
X62950588Y-51283069D01*
X62950588Y-51283070D01*
X62950586Y-51283072D01*
X62906859Y-51343256D01*
X62848768Y-51423211D01*
X62770128Y-51577552D01*
X62716597Y-51742302D01*
X62689500Y-51913389D01*
X62689500Y-52086610D01*
X62711047Y-52222658D01*
X62716598Y-52257701D01*
X62768675Y-52417977D01*
X62770128Y-52422447D01*
X62818925Y-52518217D01*
X62848768Y-52576788D01*
X62950586Y-52716928D01*
X63073072Y-52839414D01*
X63213212Y-52941232D01*
X63367555Y-53019873D01*
X63532299Y-53073402D01*
X63703389Y-53100500D01*
X63703390Y-53100500D01*
X63876610Y-53100500D01*
X63876611Y-53100500D01*
X64047701Y-53073402D01*
X64212445Y-53019873D01*
X64366788Y-52941232D01*
X64506928Y-52839414D01*
X64629414Y-52716928D01*
X64731232Y-52576788D01*
X64809873Y-52422445D01*
X64810896Y-52419294D01*
X64811610Y-52418250D01*
X64811734Y-52417952D01*
X64811796Y-52417977D01*
X64850327Y-52361618D01*
X64914683Y-52334415D01*
X64983530Y-52346323D01*
X65035011Y-52393562D01*
X65046760Y-52419287D01*
X65078904Y-52518217D01*
X65175375Y-52707550D01*
X65214728Y-52761716D01*
X65847037Y-52129408D01*
X65864075Y-52192993D01*
X65929901Y-52307007D01*
X66022993Y-52400099D01*
X66137007Y-52465925D01*
X66200590Y-52482962D01*
X65568282Y-53115269D01*
X65568282Y-53115270D01*
X65622449Y-53154624D01*
X65811782Y-53251095D01*
X66013870Y-53316757D01*
X66223754Y-53350000D01*
X66436246Y-53350000D01*
X66646127Y-53316757D01*
X66646130Y-53316757D01*
X66848217Y-53251095D01*
X67037554Y-53154622D01*
X67091716Y-53115270D01*
X67091717Y-53115270D01*
X66459408Y-52482962D01*
X66522993Y-52465925D01*
X66637007Y-52400099D01*
X66730099Y-52307007D01*
X66795925Y-52192993D01*
X66812962Y-52129408D01*
X67445270Y-52761717D01*
X67445270Y-52761716D01*
X67484622Y-52707554D01*
X67581095Y-52518217D01*
X67646757Y-52316130D01*
X67646757Y-52316127D01*
X67672120Y-52156001D01*
X67672120Y-52156000D01*
X67680000Y-52106247D01*
X67680000Y-51893753D01*
X67646757Y-51683872D01*
X67646757Y-51683869D01*
X67581095Y-51481782D01*
X67484624Y-51292449D01*
X67445270Y-51238282D01*
X67445269Y-51238282D01*
X66812962Y-51870590D01*
X66795925Y-51807007D01*
X66730099Y-51692993D01*
X66637007Y-51599901D01*
X66522993Y-51534075D01*
X66459409Y-51517037D01*
X67091716Y-50884728D01*
X67087888Y-50881947D01*
X75250000Y-50881947D01*
X75250000Y-51118052D01*
X75286934Y-51351247D01*
X75359897Y-51575802D01*
X75467087Y-51786174D01*
X75527338Y-51869104D01*
X75527340Y-51869105D01*
X76267037Y-51129408D01*
X76284075Y-51192993D01*
X76349901Y-51307007D01*
X76442993Y-51400099D01*
X76557007Y-51465925D01*
X76620590Y-51482962D01*
X75880893Y-52222658D01*
X75963828Y-52282914D01*
X76174197Y-52390102D01*
X76398752Y-52463065D01*
X76398751Y-52463065D01*
X76631948Y-52500000D01*
X76868052Y-52500000D01*
X77101247Y-52463065D01*
X77325802Y-52390102D01*
X77536163Y-52282918D01*
X77536169Y-52282914D01*
X77619104Y-52222658D01*
X77619105Y-52222658D01*
X76879408Y-51482962D01*
X76942993Y-51465925D01*
X77057007Y-51400099D01*
X77150099Y-51307007D01*
X77215925Y-51192993D01*
X77232962Y-51129409D01*
X77972658Y-51869105D01*
X77972658Y-51869104D01*
X78032914Y-51786169D01*
X78032918Y-51786163D01*
X78140102Y-51575802D01*
X78213065Y-51351247D01*
X78250000Y-51118052D01*
X78250000Y-50881947D01*
X78213065Y-50648752D01*
X78140102Y-50424197D01*
X78032914Y-50213828D01*
X77972658Y-50130894D01*
X77972658Y-50130893D01*
X77232962Y-50870590D01*
X77215925Y-50807007D01*
X77150099Y-50692993D01*
X77057007Y-50599901D01*
X76942993Y-50534075D01*
X76879409Y-50517037D01*
X77619105Y-49777340D01*
X77619104Y-49777338D01*
X77536174Y-49717087D01*
X77325802Y-49609897D01*
X77101247Y-49536934D01*
X77101248Y-49536934D01*
X76868052Y-49500000D01*
X76631948Y-49500000D01*
X76398752Y-49536934D01*
X76174197Y-49609897D01*
X75963830Y-49717084D01*
X75880894Y-49777340D01*
X76620591Y-50517037D01*
X76557007Y-50534075D01*
X76442993Y-50599901D01*
X76349901Y-50692993D01*
X76284075Y-50807007D01*
X76267037Y-50870591D01*
X75527340Y-50130894D01*
X75467084Y-50213830D01*
X75359897Y-50424197D01*
X75286934Y-50648752D01*
X75250000Y-50881947D01*
X67087888Y-50881947D01*
X67037550Y-50845375D01*
X66848217Y-50748904D01*
X66646129Y-50683242D01*
X66436246Y-50650000D01*
X66223754Y-50650000D01*
X66013872Y-50683242D01*
X66013869Y-50683242D01*
X65811782Y-50748904D01*
X65622439Y-50845380D01*
X65568282Y-50884727D01*
X65568282Y-50884728D01*
X66200591Y-51517037D01*
X66137007Y-51534075D01*
X66022993Y-51599901D01*
X65929901Y-51692993D01*
X65864075Y-51807007D01*
X65847037Y-51870591D01*
X65214728Y-51238282D01*
X65214727Y-51238282D01*
X65175380Y-51292439D01*
X65078904Y-51481783D01*
X65046760Y-51580712D01*
X65033646Y-51599889D01*
X65024522Y-51621253D01*
X65014296Y-51628187D01*
X65007322Y-51638388D01*
X64985921Y-51647432D01*
X64966697Y-51660470D01*
X64954346Y-51660775D01*
X64942964Y-51665586D01*
X64920071Y-51661624D01*
X64896848Y-51662199D01*
X64886291Y-51655777D01*
X64874117Y-51653671D01*
X64857001Y-51637962D01*
X64837154Y-51625890D01*
X64829502Y-51612723D01*
X64822642Y-51606427D01*
X64817344Y-51596680D01*
X64813566Y-51588922D01*
X64809873Y-51577555D01*
X64768320Y-51496002D01*
X64767826Y-51494987D01*
X64762181Y-51461615D01*
X64757986Y-51439272D01*
X64755500Y-51439272D01*
X64755500Y-43823243D01*
X64769670Y-43774986D01*
X69125001Y-43774986D01*
X69135494Y-43877697D01*
X69190641Y-44044119D01*
X69190643Y-44044124D01*
X69282684Y-44193345D01*
X69406654Y-44317315D01*
X69555875Y-44409356D01*
X69555880Y-44409358D01*
X69722302Y-44464505D01*
X69722309Y-44464506D01*
X69825019Y-44474999D01*
X69962499Y-44474999D01*
X69962500Y-44474998D01*
X69962500Y-43500000D01*
X69125001Y-43500000D01*
X69125001Y-43774986D01*
X64769670Y-43774986D01*
X64775185Y-43756204D01*
X64818521Y-43718652D01*
X64817585Y-43717251D01*
X64827739Y-43710466D01*
X64827740Y-43710466D01*
X64910601Y-43655101D01*
X64965966Y-43572240D01*
X64980500Y-43499174D01*
X64980500Y-41924826D01*
X64980500Y-41924823D01*
X64980499Y-41924821D01*
X64965967Y-41851764D01*
X64965966Y-41851760D01*
X64956998Y-41838338D01*
X64910601Y-41768899D01*
X64827740Y-41713534D01*
X64827739Y-41713533D01*
X64827735Y-41713532D01*
X64754677Y-41699000D01*
X64754674Y-41699000D01*
X64055326Y-41699000D01*
X64055323Y-41699000D01*
X63982264Y-41713532D01*
X63982260Y-41713533D01*
X63899397Y-41768900D01*
X63873102Y-41808255D01*
X63819490Y-41853061D01*
X63750165Y-41861768D01*
X63687138Y-41831614D01*
X63666898Y-41808255D01*
X63640602Y-41768900D01*
X63557739Y-41713533D01*
X63557735Y-41713532D01*
X63484677Y-41699000D01*
X63484674Y-41699000D01*
X62785326Y-41699000D01*
X62785323Y-41699000D01*
X62712264Y-41713532D01*
X62712260Y-41713533D01*
X62629397Y-41768900D01*
X62603102Y-41808255D01*
X62549490Y-41853061D01*
X62480165Y-41861768D01*
X62417138Y-41831614D01*
X62396898Y-41808255D01*
X62370602Y-41768900D01*
X62287739Y-41713533D01*
X62287735Y-41713532D01*
X62214677Y-41699000D01*
X62214674Y-41699000D01*
X61515326Y-41699000D01*
X61515323Y-41699000D01*
X61442264Y-41713532D01*
X61442260Y-41713533D01*
X61359397Y-41768900D01*
X61333102Y-41808255D01*
X61279490Y-41853061D01*
X61210165Y-41861768D01*
X61147138Y-41831614D01*
X61126898Y-41808255D01*
X61100602Y-41768900D01*
X61017739Y-41713533D01*
X61017735Y-41713532D01*
X60944677Y-41699000D01*
X60944674Y-41699000D01*
X60245326Y-41699000D01*
X60245323Y-41699000D01*
X60172264Y-41713532D01*
X60172260Y-41713533D01*
X60089399Y-41768899D01*
X60034033Y-41851760D01*
X60034032Y-41851764D01*
X60019500Y-41924821D01*
X60019500Y-43499178D01*
X60034032Y-43572235D01*
X60034033Y-43572239D01*
X60052405Y-43599735D01*
X60089399Y-43655101D01*
X60172260Y-43710466D01*
X60182415Y-43717251D01*
X60181074Y-43719256D01*
X60222355Y-43752521D01*
X60244421Y-43818815D01*
X60244500Y-43823243D01*
X60244500Y-50867164D01*
X60224815Y-50934203D01*
X60172011Y-50979958D01*
X60102853Y-50989902D01*
X60039297Y-50960877D01*
X60007838Y-50915568D01*
X60007604Y-50915696D01*
X60006414Y-50913517D01*
X60004318Y-50910498D01*
X60003353Y-50907911D01*
X60003350Y-50907906D01*
X59917190Y-50792812D01*
X59917187Y-50792809D01*
X59802093Y-50706649D01*
X59802086Y-50706645D01*
X59667379Y-50656403D01*
X59667372Y-50656401D01*
X59607844Y-50650000D01*
X58960000Y-50650000D01*
X58960000Y-51566988D01*
X58902993Y-51534075D01*
X58775826Y-51500000D01*
X58644174Y-51500000D01*
X58517007Y-51534075D01*
X58460000Y-51566988D01*
X58460000Y-50650000D01*
X57812155Y-50650000D01*
X57752627Y-50656401D01*
X57752620Y-50656403D01*
X57617913Y-50706645D01*
X57617906Y-50706649D01*
X57502812Y-50792809D01*
X57502809Y-50792812D01*
X57416649Y-50907906D01*
X57416645Y-50907913D01*
X57366403Y-51042620D01*
X57366401Y-51042627D01*
X57360000Y-51102155D01*
X53383290Y-51102155D01*
X53474275Y-51011170D01*
X53551716Y-50933728D01*
X53497550Y-50894375D01*
X53308217Y-50797904D01*
X53106129Y-50732242D01*
X52896246Y-50699000D01*
X52683754Y-50699000D01*
X52473872Y-50732242D01*
X52473869Y-50732242D01*
X52271782Y-50797904D01*
X52082439Y-50894380D01*
X52028282Y-50933727D01*
X52028282Y-50933728D01*
X52660591Y-51566037D01*
X52597007Y-51583075D01*
X52482993Y-51648901D01*
X52389901Y-51741993D01*
X52324075Y-51856007D01*
X52307037Y-51919591D01*
X51674728Y-51287282D01*
X51674727Y-51287282D01*
X51635380Y-51341440D01*
X51635378Y-51341443D01*
X51584984Y-51440346D01*
X51537010Y-51491141D01*
X51469188Y-51507936D01*
X51403054Y-51485398D01*
X51359603Y-51430683D01*
X51350500Y-51384050D01*
X51350500Y-51174323D01*
X51350499Y-51174321D01*
X51335967Y-51101264D01*
X51335966Y-51101260D01*
X51307574Y-51058768D01*
X51280601Y-51018399D01*
X51197740Y-50963034D01*
X51197739Y-50963033D01*
X51197735Y-50963032D01*
X51124677Y-50948500D01*
X51124674Y-50948500D01*
X50774500Y-50948500D01*
X50707461Y-50928815D01*
X50661706Y-50876011D01*
X50650500Y-50824500D01*
X50650500Y-49952755D01*
X50670185Y-49885716D01*
X50722989Y-49839961D01*
X50731153Y-49836578D01*
X50778831Y-49818796D01*
X50894046Y-49732546D01*
X50980296Y-49617331D01*
X50987680Y-49597532D01*
X51029550Y-49541598D01*
X51095014Y-49517179D01*
X51163287Y-49532029D01*
X51212694Y-49581433D01*
X51221569Y-49601859D01*
X51252141Y-49694119D01*
X51252143Y-49694124D01*
X51344184Y-49843345D01*
X51468154Y-49967315D01*
X51617375Y-50059356D01*
X51617380Y-50059358D01*
X51783802Y-50114505D01*
X51783809Y-50114506D01*
X51886519Y-50124999D01*
X52023999Y-50124999D01*
X52524000Y-50124999D01*
X52661472Y-50124999D01*
X52661486Y-50124998D01*
X52764197Y-50114505D01*
X52930619Y-50059358D01*
X52930624Y-50059356D01*
X53079845Y-49967315D01*
X53203815Y-49843345D01*
X53295856Y-49694124D01*
X53295858Y-49694119D01*
X53351005Y-49527697D01*
X53351006Y-49527690D01*
X53361499Y-49424986D01*
X53361500Y-49424973D01*
X53361500Y-49150000D01*
X52524000Y-49150000D01*
X52524000Y-50124999D01*
X52023999Y-50124999D01*
X52024000Y-50124998D01*
X52024000Y-49024000D01*
X52043685Y-48956961D01*
X52096489Y-48911206D01*
X52148000Y-48900000D01*
X52274000Y-48900000D01*
X52274000Y-48774000D01*
X52293685Y-48706961D01*
X52346489Y-48661206D01*
X52398000Y-48650000D01*
X53361499Y-48650000D01*
X53361499Y-48375028D01*
X53361498Y-48375013D01*
X53351005Y-48272302D01*
X53295858Y-48105880D01*
X53295856Y-48105875D01*
X53203815Y-47956654D01*
X53079844Y-47832683D01*
X53074177Y-47828202D01*
X53075445Y-47826598D01*
X53035533Y-47782219D01*
X53024315Y-47713256D01*
X53052163Y-47649175D01*
X53074488Y-47628306D01*
X53074833Y-47628054D01*
X53074842Y-47628050D01*
X53164550Y-47538342D01*
X53184086Y-47500000D01*
X53500000Y-47500000D01*
X53500000Y-47138000D01*
X53683371Y-47138000D01*
X53750410Y-47157685D01*
X53796165Y-47210489D01*
X53799553Y-47218667D01*
X53817702Y-47267328D01*
X53817706Y-47267335D01*
X53903952Y-47382544D01*
X53903955Y-47382547D01*
X54019164Y-47468793D01*
X54019171Y-47468797D01*
X54154017Y-47519091D01*
X54154016Y-47519091D01*
X54160944Y-47519835D01*
X54213627Y-47525500D01*
X55259372Y-47525499D01*
X55318983Y-47519091D01*
X55453831Y-47468796D01*
X55569046Y-47382546D01*
X55655296Y-47267331D01*
X55705591Y-47132483D01*
X55712000Y-47072873D01*
X55711999Y-46302128D01*
X55705591Y-46242517D01*
X55670971Y-46149697D01*
X55655297Y-46107671D01*
X55655293Y-46107664D01*
X55569047Y-45992455D01*
X55569044Y-45992452D01*
X55453835Y-45906206D01*
X55453828Y-45906202D01*
X55318982Y-45855908D01*
X55318983Y-45855908D01*
X55259383Y-45849501D01*
X55259381Y-45849500D01*
X55259373Y-45849500D01*
X55259364Y-45849500D01*
X54213629Y-45849500D01*
X54213623Y-45849501D01*
X54154016Y-45855908D01*
X54019171Y-45906202D01*
X54019164Y-45906206D01*
X53903955Y-45992452D01*
X53903952Y-45992455D01*
X53817706Y-46107664D01*
X53817702Y-46107671D01*
X53767408Y-46242517D01*
X53761001Y-46302116D01*
X53761001Y-46302123D01*
X53761000Y-46302135D01*
X53761000Y-46313000D01*
X53741315Y-46380039D01*
X53688511Y-46425794D01*
X53637000Y-46437000D01*
X53500000Y-46437000D01*
X53500000Y-44638748D01*
X53237000Y-44638748D01*
X53236999Y-44023499D01*
X53239549Y-44014813D01*
X53238261Y-44005853D01*
X53249238Y-43981816D01*
X53256683Y-43956461D01*
X53263525Y-43950532D01*
X53267286Y-43942297D01*
X53289517Y-43928010D01*
X53309487Y-43910706D01*
X53320002Y-43908418D01*
X53326064Y-43904523D01*
X53360999Y-43899500D01*
X53405745Y-43899500D01*
X53472784Y-43919185D01*
X53493426Y-43935819D01*
X53724681Y-44167074D01*
X53758166Y-44228397D01*
X53761000Y-44254755D01*
X53761000Y-44997870D01*
X53761001Y-44997876D01*
X53767408Y-45057483D01*
X53817702Y-45192328D01*
X53817706Y-45192335D01*
X53903952Y-45307544D01*
X53903955Y-45307547D01*
X54019164Y-45393793D01*
X54019171Y-45393797D01*
X54154017Y-45444091D01*
X54154016Y-45444091D01*
X54160944Y-45444835D01*
X54213627Y-45450500D01*
X55259372Y-45450499D01*
X55318983Y-45444091D01*
X55453831Y-45393796D01*
X55569046Y-45307546D01*
X55655296Y-45192331D01*
X55705591Y-45057483D01*
X55712000Y-44997873D01*
X55711999Y-44227128D01*
X55705858Y-44169999D01*
X55705591Y-44167516D01*
X55655297Y-44032671D01*
X55655293Y-44032664D01*
X55569047Y-43917455D01*
X55569044Y-43917452D01*
X55453835Y-43831206D01*
X55453828Y-43831202D01*
X55318982Y-43780908D01*
X55318983Y-43780908D01*
X55259383Y-43774501D01*
X55259381Y-43774500D01*
X55259373Y-43774500D01*
X55259365Y-43774500D01*
X54516255Y-43774500D01*
X54449216Y-43754815D01*
X54428574Y-43738181D01*
X53868915Y-43178522D01*
X53868913Y-43178520D01*
X53777588Y-43125793D01*
X53697952Y-43104455D01*
X53638292Y-43068090D01*
X53607763Y-43005243D01*
X53606688Y-42972076D01*
X53611499Y-42924983D01*
X53611500Y-42924973D01*
X53611500Y-42650000D01*
X52648000Y-42650000D01*
X52580961Y-42630315D01*
X52535206Y-42577511D01*
X52524000Y-42526000D01*
X52524000Y-42400000D01*
X52398000Y-42400000D01*
X52330961Y-42380315D01*
X52285206Y-42327511D01*
X52274000Y-42276000D01*
X52274000Y-42150000D01*
X52774000Y-42150000D01*
X53611499Y-42150000D01*
X53611499Y-41875028D01*
X53611498Y-41875013D01*
X53601005Y-41772302D01*
X53545858Y-41605880D01*
X53545856Y-41605875D01*
X53453815Y-41456654D01*
X53329845Y-41332684D01*
X53180624Y-41240643D01*
X53180619Y-41240641D01*
X53014197Y-41185494D01*
X53014190Y-41185493D01*
X52911486Y-41175000D01*
X52774000Y-41175000D01*
X52774000Y-42150000D01*
X52274000Y-42150000D01*
X52274000Y-41175000D01*
X52136527Y-41175000D01*
X52136512Y-41175001D01*
X52033802Y-41185494D01*
X51867380Y-41240641D01*
X51867375Y-41240643D01*
X51718154Y-41332684D01*
X51594184Y-41456654D01*
X51502143Y-41605875D01*
X51502142Y-41605878D01*
X51471569Y-41698141D01*
X51431796Y-41755585D01*
X51367280Y-41782408D01*
X51298504Y-41770093D01*
X51247304Y-41722549D01*
X51237681Y-41702468D01*
X51230298Y-41682673D01*
X51230293Y-41682664D01*
X51144047Y-41567455D01*
X51144044Y-41567452D01*
X51028835Y-41481206D01*
X51028828Y-41481202D01*
X50930167Y-41444404D01*
X50874233Y-41402533D01*
X50849816Y-41337068D01*
X50849500Y-41328222D01*
X50849500Y-39874500D01*
X50869185Y-39807461D01*
X50921989Y-39761706D01*
X50973500Y-39750500D01*
X51124676Y-39750500D01*
X51124677Y-39750499D01*
X51149029Y-39745655D01*
X51197732Y-39735968D01*
X51197733Y-39735967D01*
X51197740Y-39735966D01*
X51197745Y-39735962D01*
X51202539Y-39733977D01*
X51272008Y-39726504D01*
X51297461Y-39733977D01*
X51302256Y-39735963D01*
X51302260Y-39735966D01*
X51302264Y-39735966D01*
X51302267Y-39735968D01*
X51375321Y-39750499D01*
X51375324Y-39750500D01*
X51375326Y-39750500D01*
X52424676Y-39750500D01*
X52424677Y-39750499D01*
X52497740Y-39735966D01*
X52580601Y-39680601D01*
X52584353Y-39674986D01*
X57025001Y-39674986D01*
X57035494Y-39777697D01*
X57090641Y-39944119D01*
X57090643Y-39944124D01*
X57182684Y-40093345D01*
X57306654Y-40217315D01*
X57455875Y-40309356D01*
X57455880Y-40309358D01*
X57622302Y-40364505D01*
X57622309Y-40364506D01*
X57725019Y-40374999D01*
X57999999Y-40374999D01*
X58500000Y-40374999D01*
X58774972Y-40374999D01*
X58774986Y-40374998D01*
X58877697Y-40364505D01*
X59044119Y-40309358D01*
X59044124Y-40309356D01*
X59193345Y-40217315D01*
X59317315Y-40093345D01*
X59409356Y-39944124D01*
X59409358Y-39944119D01*
X59464505Y-39777697D01*
X59464506Y-39777690D01*
X59474999Y-39674986D01*
X59475000Y-39674973D01*
X59475000Y-39537500D01*
X58500000Y-39537500D01*
X58500000Y-40374999D01*
X57999999Y-40374999D01*
X58000000Y-40374998D01*
X58000000Y-39537500D01*
X57025001Y-39537500D01*
X57025001Y-39674986D01*
X52584353Y-39674986D01*
X52635966Y-39597740D01*
X52650500Y-39524674D01*
X52650500Y-39274500D01*
X52670185Y-39207461D01*
X52722989Y-39161706D01*
X52774500Y-39150500D01*
X56320614Y-39150500D01*
X56387653Y-39170185D01*
X56408295Y-39186819D01*
X56411985Y-39190509D01*
X56411986Y-39190510D01*
X56411988Y-39190511D01*
X56537511Y-39262982D01*
X56537512Y-39262982D01*
X56537515Y-39262984D01*
X56677525Y-39300500D01*
X56677528Y-39300500D01*
X56822472Y-39300500D01*
X56822475Y-39300500D01*
X56962485Y-39262984D01*
X57088015Y-39190509D01*
X57190509Y-39088015D01*
X57190513Y-39088007D01*
X57192043Y-39086015D01*
X57193770Y-39084753D01*
X57196256Y-39082268D01*
X57196643Y-39082655D01*
X57248471Y-39044811D01*
X57290420Y-39037500D01*
X59474999Y-39037500D01*
X59474999Y-38900028D01*
X59474998Y-38900013D01*
X59464505Y-38797302D01*
X59409358Y-38630880D01*
X59409356Y-38630875D01*
X59317315Y-38481654D01*
X59193345Y-38357684D01*
X59044124Y-38265643D01*
X59044119Y-38265641D01*
X58951859Y-38235069D01*
X58894414Y-38195296D01*
X58867591Y-38130780D01*
X58879906Y-38062004D01*
X58927449Y-38010804D01*
X58947533Y-38001180D01*
X58967328Y-37993797D01*
X58967327Y-37993797D01*
X58967331Y-37993796D01*
X59082546Y-37907546D01*
X59168796Y-37792331D01*
X59219091Y-37657483D01*
X59225500Y-37597873D01*
X59225499Y-36827128D01*
X59219091Y-36767517D01*
X59212552Y-36749986D01*
X59210886Y-36745518D01*
X59205902Y-36675827D01*
X59239385Y-36614506D01*
X59842075Y-36011816D01*
X59869000Y-35997114D01*
X59894819Y-35980522D01*
X59901019Y-35979630D01*
X59903396Y-35978333D01*
X59929745Y-35975499D01*
X60070501Y-35975499D01*
X60137539Y-35995184D01*
X60183294Y-36047988D01*
X60194500Y-36099499D01*
X60194500Y-36208393D01*
X60174815Y-36275432D01*
X60139392Y-36311495D01*
X60089399Y-36344899D01*
X60034033Y-36427760D01*
X60034032Y-36427764D01*
X60019500Y-36500821D01*
X60019500Y-38075178D01*
X60034032Y-38148235D01*
X60034033Y-38148239D01*
X60047919Y-38169021D01*
X60089399Y-38231101D01*
X60172260Y-38286466D01*
X60172264Y-38286467D01*
X60245321Y-38300999D01*
X60245324Y-38301000D01*
X60245326Y-38301000D01*
X60944676Y-38301000D01*
X60944677Y-38300999D01*
X61017740Y-38286466D01*
X61100601Y-38231101D01*
X61126897Y-38191744D01*
X61180509Y-38146939D01*
X61249834Y-38138230D01*
X61312861Y-38168384D01*
X61333101Y-38191743D01*
X61359399Y-38231101D01*
X61442260Y-38286466D01*
X61442264Y-38286467D01*
X61515321Y-38300999D01*
X61515324Y-38301000D01*
X61515326Y-38301000D01*
X62214676Y-38301000D01*
X62214677Y-38300999D01*
X62287740Y-38286466D01*
X62370601Y-38231101D01*
X62396897Y-38191744D01*
X62450509Y-38146939D01*
X62519834Y-38138230D01*
X62582861Y-38168384D01*
X62603101Y-38191743D01*
X62629399Y-38231101D01*
X62712260Y-38286466D01*
X62712264Y-38286467D01*
X62785321Y-38300999D01*
X62785324Y-38301000D01*
X62785326Y-38301000D01*
X63092745Y-38301000D01*
X63159784Y-38320685D01*
X63180426Y-38337319D01*
X64963587Y-40120480D01*
X65054912Y-40173207D01*
X65156773Y-40200500D01*
X65262227Y-40200500D01*
X66125500Y-40200500D01*
X66192539Y-40220185D01*
X66238294Y-40272989D01*
X66246929Y-40299378D01*
X66249500Y-40311805D01*
X66249500Y-40324674D01*
X66264034Y-40397740D01*
X66268733Y-40404773D01*
X66272893Y-40424878D01*
X66270963Y-40448476D01*
X66273494Y-40472017D01*
X66267317Y-40493048D01*
X66267198Y-40494516D01*
X66266693Y-40495175D01*
X66266025Y-40497452D01*
X66264033Y-40502259D01*
X66249500Y-40575323D01*
X66249500Y-41624678D01*
X66264032Y-41697735D01*
X66264033Y-41697739D01*
X66270000Y-41706669D01*
X66319399Y-41780601D01*
X66395747Y-41831614D01*
X66402260Y-41835966D01*
X66402264Y-41835967D01*
X66475321Y-41850499D01*
X66475324Y-41850500D01*
X66475326Y-41850500D01*
X68024676Y-41850500D01*
X68024677Y-41850499D01*
X68097740Y-41835966D01*
X68180601Y-41780601D01*
X68235966Y-41697740D01*
X68250500Y-41624674D01*
X68250500Y-41624500D01*
X68250526Y-41624410D01*
X68251097Y-41618614D01*
X68252196Y-41618722D01*
X68270185Y-41557461D01*
X68322989Y-41511706D01*
X68374500Y-41500500D01*
X69675500Y-41500500D01*
X69742539Y-41520185D01*
X69788294Y-41572989D01*
X69798233Y-41618679D01*
X69798903Y-41618614D01*
X69799468Y-41624354D01*
X69799500Y-41624500D01*
X69799500Y-41624678D01*
X69814032Y-41697735D01*
X69814033Y-41697739D01*
X69820000Y-41706669D01*
X69869399Y-41780601D01*
X69895287Y-41797898D01*
X69940092Y-41851507D01*
X69948801Y-41920832D01*
X69918647Y-41983860D01*
X69859205Y-42020581D01*
X69828167Y-42024765D01*
X69828171Y-42024841D01*
X69827258Y-42024887D01*
X69826424Y-42025000D01*
X69825042Y-42025000D01*
X69825012Y-42025001D01*
X69722302Y-42035494D01*
X69555880Y-42090641D01*
X69555875Y-42090643D01*
X69406654Y-42182684D01*
X69282684Y-42306654D01*
X69190643Y-42455875D01*
X69190641Y-42455880D01*
X69135494Y-42622302D01*
X69135493Y-42622309D01*
X69125000Y-42725013D01*
X69125000Y-43000000D01*
X70088500Y-43000000D01*
X70155539Y-43019685D01*
X70201294Y-43072489D01*
X70212500Y-43124000D01*
X70212500Y-43250000D01*
X70338500Y-43250000D01*
X70405539Y-43269685D01*
X70451294Y-43322489D01*
X70462500Y-43374000D01*
X70462500Y-44474999D01*
X70599972Y-44474999D01*
X70599986Y-44474998D01*
X70702697Y-44464505D01*
X70869119Y-44409358D01*
X70869124Y-44409356D01*
X71018345Y-44317315D01*
X71142315Y-44193345D01*
X71234356Y-44044124D01*
X71234359Y-44044117D01*
X71264930Y-43951860D01*
X71304702Y-43894415D01*
X71369218Y-43867591D01*
X71437994Y-43879906D01*
X71489194Y-43927448D01*
X71498818Y-43947529D01*
X71506203Y-43967329D01*
X71506206Y-43967335D01*
X71592452Y-44082544D01*
X71592455Y-44082547D01*
X71691423Y-44156635D01*
X71733294Y-44212568D01*
X71738278Y-44282260D01*
X71736887Y-44287994D01*
X71727488Y-44323072D01*
X71699500Y-44427525D01*
X71699500Y-44572475D01*
X71736897Y-44712042D01*
X71737017Y-44712488D01*
X71809488Y-44838011D01*
X71809490Y-44838013D01*
X71809491Y-44838015D01*
X71911985Y-44940509D01*
X71911986Y-44940510D01*
X71911988Y-44940511D01*
X72037511Y-45012982D01*
X72037512Y-45012982D01*
X72037515Y-45012984D01*
X72177525Y-45050500D01*
X72177528Y-45050500D01*
X72322472Y-45050500D01*
X72322475Y-45050500D01*
X72462485Y-45012984D01*
X72565706Y-44953389D01*
X75649500Y-44953389D01*
X75649500Y-45126610D01*
X75661180Y-45200359D01*
X75676598Y-45297701D01*
X75730127Y-45462445D01*
X75808768Y-45616788D01*
X75910586Y-45756928D01*
X76033072Y-45879414D01*
X76173212Y-45981232D01*
X76327555Y-46059873D01*
X76492299Y-46113402D01*
X76663389Y-46140500D01*
X76663390Y-46140500D01*
X76836610Y-46140500D01*
X76836611Y-46140500D01*
X77007701Y-46113402D01*
X77172445Y-46059873D01*
X77326788Y-45981232D01*
X77466928Y-45879414D01*
X77589414Y-45756928D01*
X77691232Y-45616788D01*
X77769873Y-45462445D01*
X77823402Y-45297701D01*
X77850500Y-45126611D01*
X77850500Y-44953389D01*
X77823402Y-44782299D01*
X77769873Y-44617555D01*
X77691232Y-44463212D01*
X77589414Y-44323072D01*
X77466928Y-44200586D01*
X77326788Y-44098768D01*
X77172445Y-44020127D01*
X77007701Y-43966598D01*
X77007699Y-43966597D01*
X77007698Y-43966597D01*
X76876271Y-43945781D01*
X76836611Y-43939500D01*
X76663389Y-43939500D01*
X76623728Y-43945781D01*
X76492302Y-43966597D01*
X76327552Y-44020128D01*
X76173211Y-44098768D01*
X76106685Y-44147103D01*
X76033072Y-44200586D01*
X76033070Y-44200588D01*
X76033069Y-44200588D01*
X75910588Y-44323069D01*
X75910588Y-44323070D01*
X75910586Y-44323072D01*
X75866859Y-44383256D01*
X75808768Y-44463211D01*
X75730128Y-44617552D01*
X75676597Y-44782302D01*
X75649500Y-44953389D01*
X72565706Y-44953389D01*
X72588015Y-44940509D01*
X72690509Y-44838015D01*
X72762984Y-44712485D01*
X72800500Y-44572475D01*
X72800500Y-44427525D01*
X72772719Y-44323846D01*
X72774382Y-44253999D01*
X72813544Y-44196136D01*
X72849159Y-44175573D01*
X72867331Y-44168796D01*
X72982546Y-44082546D01*
X73068796Y-43967331D01*
X73119091Y-43832483D01*
X73125500Y-43772873D01*
X73125499Y-42727128D01*
X73119091Y-42667517D01*
X73097043Y-42608404D01*
X73068797Y-42532671D01*
X73068793Y-42532664D01*
X72982547Y-42417455D01*
X72982544Y-42417452D01*
X72867335Y-42331206D01*
X72867328Y-42331202D01*
X72768667Y-42294404D01*
X72712733Y-42252533D01*
X72688316Y-42187068D01*
X72688000Y-42178222D01*
X72688000Y-41874564D01*
X72707685Y-41807525D01*
X72724319Y-41786883D01*
X72730598Y-41780603D01*
X72730597Y-41780603D01*
X72730601Y-41780601D01*
X72785966Y-41697740D01*
X72800500Y-41624674D01*
X72800500Y-40375326D01*
X72800500Y-40375321D01*
X72785967Y-40302264D01*
X72785966Y-40302260D01*
X72762411Y-40267007D01*
X72730601Y-40219399D01*
X72661469Y-40173207D01*
X72647739Y-40164033D01*
X72647735Y-40164032D01*
X72574677Y-40149500D01*
X72574674Y-40149500D01*
X72066253Y-40149500D01*
X71999214Y-40129815D01*
X71953459Y-40077011D01*
X71943515Y-40007853D01*
X71972540Y-39944297D01*
X71978572Y-39937819D01*
X72215344Y-39701047D01*
X72495910Y-39420481D01*
X72495913Y-39420480D01*
X72537119Y-39379273D01*
X72588723Y-39351097D01*
X72598436Y-39345793D01*
X72598437Y-39345792D01*
X72598440Y-39345792D01*
X72600508Y-39345361D01*
X72647740Y-39335966D01*
X72730601Y-39280601D01*
X72785966Y-39197740D01*
X72800500Y-39124674D01*
X72800500Y-39062155D01*
X75400000Y-39062155D01*
X75400000Y-39710000D01*
X76316988Y-39710000D01*
X76284075Y-39767007D01*
X76250000Y-39894174D01*
X76250000Y-40025826D01*
X76284075Y-40152993D01*
X76316988Y-40210000D01*
X75400000Y-40210000D01*
X75400000Y-40857844D01*
X75406401Y-40917372D01*
X75406403Y-40917379D01*
X75456645Y-41052086D01*
X75456649Y-41052093D01*
X75542809Y-41167187D01*
X75542812Y-41167190D01*
X75657906Y-41253350D01*
X75657913Y-41253354D01*
X75792620Y-41303596D01*
X75792627Y-41303598D01*
X75852155Y-41309999D01*
X75852172Y-41310000D01*
X76144949Y-41310000D01*
X76211988Y-41329685D01*
X76257743Y-41382489D01*
X76267687Y-41451647D01*
X76238662Y-41515203D01*
X76201244Y-41544485D01*
X76173211Y-41558768D01*
X76128222Y-41591455D01*
X76033072Y-41660586D01*
X76033070Y-41660588D01*
X76033069Y-41660588D01*
X75910588Y-41783069D01*
X75910588Y-41783070D01*
X75910586Y-41783072D01*
X75891701Y-41809065D01*
X75808768Y-41923211D01*
X75730128Y-42077552D01*
X75676597Y-42242302D01*
X75649500Y-42413389D01*
X75649500Y-42586610D01*
X75671755Y-42727128D01*
X75676598Y-42757701D01*
X75730127Y-42922445D01*
X75808768Y-43076788D01*
X75910586Y-43216928D01*
X76033072Y-43339414D01*
X76173212Y-43441232D01*
X76327555Y-43519873D01*
X76492299Y-43573402D01*
X76663389Y-43600500D01*
X76663390Y-43600500D01*
X76836610Y-43600500D01*
X76836611Y-43600500D01*
X77007701Y-43573402D01*
X77172445Y-43519873D01*
X77326788Y-43441232D01*
X77466928Y-43339414D01*
X77589414Y-43216928D01*
X77691232Y-43076788D01*
X77769873Y-42922445D01*
X77823402Y-42757701D01*
X77850500Y-42586611D01*
X77850500Y-42413389D01*
X77823402Y-42242299D01*
X77769873Y-42077555D01*
X77691232Y-41923212D01*
X77589414Y-41783072D01*
X77466928Y-41660586D01*
X77326788Y-41558768D01*
X77298756Y-41544485D01*
X77247960Y-41496510D01*
X77231165Y-41428689D01*
X77253703Y-41362554D01*
X77308418Y-41319103D01*
X77355051Y-41310000D01*
X77647828Y-41310000D01*
X77647844Y-41309999D01*
X77707372Y-41303598D01*
X77707379Y-41303596D01*
X77842086Y-41253354D01*
X77842093Y-41253350D01*
X77957187Y-41167190D01*
X77957190Y-41167187D01*
X78043350Y-41052093D01*
X78043354Y-41052086D01*
X78093596Y-40917379D01*
X78093598Y-40917372D01*
X78099999Y-40857844D01*
X78100000Y-40857827D01*
X78100000Y-40210000D01*
X77183012Y-40210000D01*
X77215925Y-40152993D01*
X77250000Y-40025826D01*
X77250000Y-39894174D01*
X77215925Y-39767007D01*
X77183012Y-39710000D01*
X78100000Y-39710000D01*
X78100000Y-39062172D01*
X78099999Y-39062155D01*
X78093598Y-39002627D01*
X78093596Y-39002620D01*
X78043354Y-38867913D01*
X78043350Y-38867906D01*
X77957190Y-38752812D01*
X77957187Y-38752809D01*
X77842093Y-38666649D01*
X77842086Y-38666645D01*
X77707379Y-38616403D01*
X77707372Y-38616401D01*
X77647844Y-38610000D01*
X77000000Y-38610000D01*
X77000000Y-39526988D01*
X76942993Y-39494075D01*
X76815826Y-39460000D01*
X76684174Y-39460000D01*
X76557007Y-39494075D01*
X76500000Y-39526988D01*
X76500000Y-38610000D01*
X75852155Y-38610000D01*
X75792627Y-38616401D01*
X75792620Y-38616403D01*
X75657913Y-38666645D01*
X75657906Y-38666649D01*
X75542812Y-38752809D01*
X75542809Y-38752812D01*
X75456649Y-38867906D01*
X75456645Y-38867913D01*
X75406403Y-39002620D01*
X75406401Y-39002627D01*
X75400000Y-39062155D01*
X72800500Y-39062155D01*
X72800500Y-37875326D01*
X72800500Y-37875323D01*
X72800499Y-37875321D01*
X72785967Y-37802264D01*
X72785966Y-37802260D01*
X72779330Y-37792328D01*
X72730601Y-37719399D01*
X72647740Y-37664034D01*
X72647739Y-37664033D01*
X72647736Y-37664032D01*
X72594260Y-37653395D01*
X72532349Y-37621010D01*
X72497775Y-37560294D01*
X72501516Y-37490524D01*
X72542382Y-37433852D01*
X72579449Y-37414072D01*
X72669117Y-37384359D01*
X72669124Y-37384356D01*
X72818345Y-37292315D01*
X72942315Y-37168345D01*
X73034356Y-37019124D01*
X73034358Y-37019119D01*
X73089505Y-36852697D01*
X73089506Y-36852690D01*
X73099999Y-36749986D01*
X73100000Y-36749973D01*
X73100000Y-36500000D01*
X72124000Y-36500000D01*
X72056961Y-36480315D01*
X72011206Y-36427511D01*
X72000000Y-36376000D01*
X72000000Y-36124000D01*
X72019685Y-36056961D01*
X72072489Y-36011206D01*
X72124000Y-36000000D01*
X73099999Y-36000000D01*
X73099999Y-35750028D01*
X73099998Y-35750013D01*
X73089505Y-35647302D01*
X73034358Y-35480880D01*
X73034354Y-35480873D01*
X73027017Y-35468976D01*
X73027016Y-35468973D01*
X72942319Y-35331659D01*
X72942316Y-35331655D01*
X72818345Y-35207684D01*
X72669124Y-35115643D01*
X72669119Y-35115641D01*
X72635853Y-35104618D01*
X72578408Y-35064845D01*
X72551585Y-35000329D01*
X72563900Y-34931553D01*
X72600543Y-34887648D01*
X72707546Y-34807546D01*
X72793796Y-34692331D01*
X72844091Y-34557483D01*
X72849062Y-34511242D01*
X72875799Y-34446694D01*
X72933191Y-34406846D01*
X72972351Y-34400500D01*
X75777724Y-34400500D01*
X75777727Y-34400500D01*
X75875247Y-34374370D01*
X75945093Y-34376033D01*
X75995018Y-34406464D01*
X76620591Y-35032037D01*
X76557007Y-35049075D01*
X76442993Y-35114901D01*
X76349901Y-35207993D01*
X76284075Y-35322007D01*
X76267037Y-35385591D01*
X75634728Y-34753282D01*
X75634727Y-34753282D01*
X75595380Y-34807439D01*
X75498904Y-34996782D01*
X75433242Y-35198869D01*
X75433242Y-35198872D01*
X75400000Y-35408753D01*
X75400000Y-35621246D01*
X75433242Y-35831127D01*
X75433242Y-35831130D01*
X75498904Y-36033217D01*
X75595375Y-36222550D01*
X75634728Y-36276716D01*
X76267037Y-35644408D01*
X76284075Y-35707993D01*
X76349901Y-35822007D01*
X76442993Y-35915099D01*
X76557007Y-35980925D01*
X76620590Y-35997962D01*
X75988282Y-36630269D01*
X75988282Y-36630270D01*
X76042449Y-36669624D01*
X76231782Y-36766095D01*
X76433870Y-36831757D01*
X76643754Y-36865000D01*
X76856246Y-36865000D01*
X77066127Y-36831757D01*
X77066130Y-36831757D01*
X77268217Y-36766095D01*
X77457554Y-36669622D01*
X77511716Y-36630270D01*
X77511717Y-36630270D01*
X76879408Y-35997962D01*
X76942993Y-35980925D01*
X77057007Y-35915099D01*
X77150099Y-35822007D01*
X77215925Y-35707993D01*
X77232962Y-35644408D01*
X77865270Y-36276717D01*
X77865270Y-36276716D01*
X77904622Y-36222554D01*
X78001095Y-36033217D01*
X78066757Y-35831130D01*
X78066757Y-35831127D01*
X78100000Y-35621246D01*
X78100000Y-35408753D01*
X78066757Y-35198872D01*
X78066757Y-35198869D01*
X78001095Y-34996782D01*
X77904624Y-34807449D01*
X77865270Y-34753282D01*
X77865269Y-34753282D01*
X77232962Y-35385590D01*
X77215925Y-35322007D01*
X77150099Y-35207993D01*
X77057007Y-35114901D01*
X76942993Y-35049075D01*
X76879409Y-35032037D01*
X77511716Y-34399728D01*
X77457550Y-34360375D01*
X77358655Y-34309985D01*
X77307859Y-34262010D01*
X77291064Y-34194189D01*
X77313602Y-34128054D01*
X77368317Y-34084603D01*
X77414950Y-34075500D01*
X77624676Y-34075500D01*
X77624677Y-34075499D01*
X77697740Y-34060966D01*
X77780601Y-34005601D01*
X77835966Y-33922740D01*
X77850500Y-33849674D01*
X77850500Y-32100326D01*
X77850500Y-32100323D01*
X77850499Y-32100321D01*
X77835967Y-32027264D01*
X77835966Y-32027260D01*
X77817760Y-32000013D01*
X77780601Y-31944399D01*
X77697740Y-31889034D01*
X77697739Y-31889033D01*
X77697735Y-31889032D01*
X77624677Y-31874500D01*
X77624674Y-31874500D01*
X75875326Y-31874500D01*
X75875323Y-31874500D01*
X75802264Y-31889032D01*
X75802260Y-31889033D01*
X75719399Y-31944399D01*
X75664033Y-32027260D01*
X75664032Y-32027264D01*
X75649500Y-32100321D01*
X75649500Y-33457745D01*
X75640855Y-33487185D01*
X75634332Y-33517172D01*
X75630577Y-33522187D01*
X75629815Y-33524784D01*
X75613181Y-33545426D01*
X75595426Y-33563181D01*
X75534103Y-33596666D01*
X75507745Y-33599500D01*
X72972351Y-33599500D01*
X72905312Y-33579815D01*
X72859557Y-33527011D01*
X72849061Y-33488752D01*
X72844091Y-33442516D01*
X72793797Y-33307671D01*
X72793793Y-33307664D01*
X72707547Y-33192455D01*
X72707544Y-33192452D01*
X72631366Y-33135425D01*
X72589495Y-33079492D01*
X72584511Y-33009800D01*
X72617997Y-32948477D01*
X72666674Y-32918453D01*
X72694117Y-32909359D01*
X72694124Y-32909356D01*
X72843345Y-32817315D01*
X72967315Y-32693345D01*
X73059356Y-32544124D01*
X73059358Y-32544119D01*
X73114505Y-32377697D01*
X73114506Y-32377690D01*
X73124999Y-32274986D01*
X73125000Y-32274973D01*
X73125000Y-32000000D01*
X72161500Y-32000000D01*
X72094461Y-31980315D01*
X72048706Y-31927511D01*
X72037500Y-31876000D01*
X72037500Y-31750000D01*
X71911500Y-31750000D01*
X71844461Y-31730315D01*
X71798706Y-31677511D01*
X71787500Y-31626000D01*
X71787500Y-31500000D01*
X72287500Y-31500000D01*
X73124999Y-31500000D01*
X73124999Y-31225028D01*
X73124998Y-31225013D01*
X73114505Y-31122302D01*
X73059358Y-30955880D01*
X73059356Y-30955875D01*
X72967315Y-30806654D01*
X72843345Y-30682684D01*
X72694124Y-30590643D01*
X72694119Y-30590641D01*
X72527697Y-30535494D01*
X72527690Y-30535493D01*
X72424986Y-30525000D01*
X72287500Y-30525000D01*
X72287500Y-31500000D01*
X71787500Y-31500000D01*
X71787500Y-30525000D01*
X71650027Y-30525000D01*
X71650012Y-30525001D01*
X71547302Y-30535494D01*
X71380880Y-30590641D01*
X71380875Y-30590643D01*
X71231654Y-30682684D01*
X71107684Y-30806654D01*
X71015643Y-30955875D01*
X71015642Y-30955878D01*
X70985069Y-31048141D01*
X70945296Y-31105585D01*
X70880780Y-31132408D01*
X70812004Y-31120093D01*
X70760804Y-31072549D01*
X70751181Y-31052468D01*
X70743798Y-31032673D01*
X70743793Y-31032664D01*
X70657547Y-30917455D01*
X70657544Y-30917452D01*
X70542335Y-30831206D01*
X70542328Y-30831202D01*
X70407486Y-30780910D01*
X70407485Y-30780909D01*
X70407483Y-30780909D01*
X70347873Y-30774500D01*
X70347863Y-30774500D01*
X69577129Y-30774500D01*
X69577123Y-30774501D01*
X69517516Y-30780908D01*
X69382671Y-30831202D01*
X69382664Y-30831206D01*
X69267455Y-30917452D01*
X69267452Y-30917455D01*
X69181206Y-31032664D01*
X69181202Y-31032671D01*
X69130908Y-31167517D01*
X69124501Y-31227116D01*
X69124500Y-31227135D01*
X69124500Y-32272870D01*
X69124501Y-32272876D01*
X69130908Y-32332483D01*
X69181202Y-32467328D01*
X69181206Y-32467335D01*
X69267452Y-32582544D01*
X69267455Y-32582547D01*
X69382664Y-32668793D01*
X69382671Y-32668797D01*
X69406078Y-32677527D01*
X69517517Y-32719091D01*
X69538756Y-32721374D01*
X69540874Y-32722251D01*
X69543147Y-32721925D01*
X69572993Y-32735555D01*
X69603304Y-32748110D01*
X69604613Y-32749995D01*
X69606703Y-32750950D01*
X69624444Y-32778556D01*
X69643154Y-32805502D01*
X69643623Y-32808400D01*
X69644477Y-32809728D01*
X69649500Y-32844663D01*
X69649500Y-32933023D01*
X69629815Y-33000062D01*
X69577011Y-33045817D01*
X69549865Y-33053266D01*
X69550068Y-33054124D01*
X69542520Y-33055907D01*
X69407671Y-33106202D01*
X69407664Y-33106206D01*
X69292455Y-33192452D01*
X69292452Y-33192455D01*
X69206206Y-33307664D01*
X69206202Y-33307671D01*
X69155908Y-33442517D01*
X69151106Y-33487185D01*
X69149501Y-33502123D01*
X69149500Y-33502135D01*
X69149500Y-34497870D01*
X69149501Y-34497876D01*
X69155908Y-34557483D01*
X69206202Y-34692328D01*
X69206206Y-34692335D01*
X69292452Y-34807544D01*
X69292455Y-34807547D01*
X69407664Y-34893793D01*
X69407671Y-34893797D01*
X69542517Y-34944091D01*
X69543138Y-34944238D01*
X69543147Y-34944237D01*
X69543161Y-34944243D01*
X69550062Y-34945874D01*
X69549737Y-34947246D01*
X69572984Y-34957863D01*
X69603287Y-34970408D01*
X69604603Y-34972303D01*
X69606703Y-34973262D01*
X69624437Y-35000856D01*
X69643147Y-35027793D01*
X69643619Y-35030705D01*
X69644477Y-35032040D01*
X69649500Y-35066975D01*
X69649500Y-35183023D01*
X69629815Y-35250062D01*
X69577011Y-35295817D01*
X69549865Y-35303266D01*
X69550068Y-35304124D01*
X69542520Y-35305907D01*
X69407671Y-35356202D01*
X69407664Y-35356206D01*
X69292455Y-35442452D01*
X69292452Y-35442455D01*
X69206206Y-35557664D01*
X69206202Y-35557671D01*
X69155908Y-35692517D01*
X69149501Y-35752116D01*
X69149500Y-35752135D01*
X69149500Y-36747870D01*
X69149501Y-36747876D01*
X69155908Y-36807483D01*
X69206202Y-36942328D01*
X69206206Y-36942335D01*
X69292452Y-37057544D01*
X69292455Y-37057547D01*
X69407664Y-37143793D01*
X69407671Y-37143797D01*
X69452618Y-37160561D01*
X69542517Y-37194091D01*
X69602127Y-37200500D01*
X69875501Y-37200499D01*
X69884186Y-37203049D01*
X69893147Y-37201761D01*
X69917183Y-37212738D01*
X69942539Y-37220183D01*
X69948467Y-37227025D01*
X69956703Y-37230786D01*
X69970989Y-37253017D01*
X69988294Y-37272987D01*
X69990581Y-37283502D01*
X69994477Y-37289564D01*
X69999500Y-37324499D01*
X69999500Y-37566189D01*
X69979815Y-37633228D01*
X69944391Y-37669291D01*
X69869399Y-37719398D01*
X69814033Y-37802260D01*
X69814032Y-37802264D01*
X69799500Y-37875321D01*
X69799500Y-39124678D01*
X69814032Y-39197735D01*
X69814033Y-39197739D01*
X69814034Y-39197740D01*
X69869399Y-39280601D01*
X69952259Y-39335965D01*
X69952260Y-39335966D01*
X69952264Y-39335967D01*
X70025321Y-39350499D01*
X70025324Y-39350500D01*
X70500874Y-39350500D01*
X70567913Y-39370185D01*
X70600141Y-39400189D01*
X70642809Y-39457186D01*
X70642814Y-39457191D01*
X70757906Y-39543350D01*
X70757913Y-39543354D01*
X70892620Y-39593596D01*
X70892627Y-39593598D01*
X70903449Y-39594762D01*
X70968000Y-39621500D01*
X71007848Y-39678893D01*
X71010341Y-39748718D01*
X70977874Y-39805732D01*
X70670426Y-40113181D01*
X70609103Y-40146666D01*
X70582745Y-40149500D01*
X70025323Y-40149500D01*
X69952264Y-40164032D01*
X69952260Y-40164033D01*
X69869399Y-40219399D01*
X69814033Y-40302260D01*
X69814032Y-40302264D01*
X69799500Y-40375321D01*
X69799500Y-40575500D01*
X69779815Y-40642539D01*
X69727011Y-40688294D01*
X69675500Y-40699500D01*
X68374500Y-40699500D01*
X68307461Y-40679815D01*
X68261706Y-40627011D01*
X68253072Y-40600623D01*
X68250500Y-40588191D01*
X68250500Y-40575326D01*
X68235966Y-40502260D01*
X68231266Y-40495226D01*
X68227107Y-40475123D01*
X68229036Y-40451530D01*
X68226504Y-40427992D01*
X68232680Y-40406953D01*
X68232801Y-40405485D01*
X68233305Y-40404824D01*
X68233977Y-40402539D01*
X68235962Y-40397745D01*
X68235966Y-40397740D01*
X68240426Y-40375321D01*
X68250499Y-40324678D01*
X68250500Y-40324676D01*
X68250500Y-39499125D01*
X68270185Y-39432086D01*
X68300189Y-39399858D01*
X68357189Y-39357187D01*
X68357190Y-39357186D01*
X68443352Y-39242088D01*
X68443354Y-39242086D01*
X68493596Y-39107379D01*
X68493598Y-39107372D01*
X68499999Y-39047844D01*
X68500000Y-39047827D01*
X68500000Y-38750000D01*
X66000000Y-38750000D01*
X66000000Y-39047844D01*
X66006401Y-39107372D01*
X66006403Y-39107379D01*
X66052946Y-39232167D01*
X66057930Y-39301858D01*
X66024445Y-39363182D01*
X65963122Y-39396666D01*
X65936764Y-39399500D01*
X65426755Y-39399500D01*
X65359716Y-39379815D01*
X65339074Y-39363181D01*
X64488574Y-38512681D01*
X64455089Y-38451358D01*
X64460073Y-38381666D01*
X64501945Y-38325733D01*
X64567409Y-38301316D01*
X64576255Y-38301000D01*
X64754676Y-38301000D01*
X64754677Y-38300999D01*
X64827740Y-38286466D01*
X64910601Y-38231101D01*
X64965966Y-38148240D01*
X64980500Y-38075174D01*
X64980500Y-37952155D01*
X66000000Y-37952155D01*
X66000000Y-38250000D01*
X67000000Y-38250000D01*
X67500000Y-38250000D01*
X68500000Y-38250000D01*
X68500000Y-37952172D01*
X68499999Y-37952155D01*
X68493598Y-37892627D01*
X68493596Y-37892620D01*
X68443354Y-37757913D01*
X68443350Y-37757906D01*
X68357190Y-37642812D01*
X68357187Y-37642809D01*
X68242093Y-37556649D01*
X68242086Y-37556645D01*
X68107379Y-37506403D01*
X68107372Y-37506401D01*
X68047844Y-37500000D01*
X67500000Y-37500000D01*
X67500000Y-38250000D01*
X67000000Y-38250000D01*
X67000000Y-37500000D01*
X66452155Y-37500000D01*
X66392627Y-37506401D01*
X66392620Y-37506403D01*
X66257913Y-37556645D01*
X66257906Y-37556649D01*
X66142812Y-37642809D01*
X66142809Y-37642812D01*
X66056649Y-37757906D01*
X66056645Y-37757913D01*
X66006403Y-37892620D01*
X66006401Y-37892627D01*
X66000000Y-37952155D01*
X64980500Y-37952155D01*
X64980500Y-36500826D01*
X64980500Y-36500823D01*
X64980499Y-36500821D01*
X64965967Y-36427764D01*
X64965966Y-36427760D01*
X64958918Y-36417212D01*
X64910601Y-36344899D01*
X64860608Y-36311495D01*
X64855517Y-36305403D01*
X64848297Y-36302106D01*
X64833433Y-36278977D01*
X64815804Y-36257882D01*
X64813852Y-36248508D01*
X64810523Y-36243328D01*
X64805500Y-36208393D01*
X64805500Y-36099499D01*
X64825185Y-36032460D01*
X64877989Y-35986705D01*
X64929500Y-35975499D01*
X65097871Y-35975499D01*
X65097872Y-35975499D01*
X65157483Y-35969091D01*
X65292331Y-35918796D01*
X65407546Y-35832546D01*
X65493796Y-35717331D01*
X65501180Y-35697532D01*
X65543050Y-35641598D01*
X65608514Y-35617179D01*
X65676787Y-35632029D01*
X65726194Y-35681433D01*
X65735069Y-35701859D01*
X65765641Y-35794119D01*
X65765643Y-35794124D01*
X65857684Y-35943345D01*
X65981654Y-36067315D01*
X66130875Y-36159356D01*
X66130880Y-36159358D01*
X66297302Y-36214505D01*
X66297309Y-36214506D01*
X66400019Y-36224999D01*
X66537499Y-36224999D01*
X67037500Y-36224999D01*
X67174972Y-36224999D01*
X67174986Y-36224998D01*
X67277697Y-36214505D01*
X67444119Y-36159358D01*
X67444124Y-36159356D01*
X67593345Y-36067315D01*
X67717315Y-35943345D01*
X67809356Y-35794124D01*
X67809358Y-35794119D01*
X67864505Y-35627697D01*
X67864506Y-35627690D01*
X67874999Y-35524986D01*
X67875000Y-35524973D01*
X67875000Y-35250000D01*
X67037500Y-35250000D01*
X67037500Y-36224999D01*
X66537499Y-36224999D01*
X66537500Y-36224998D01*
X66537500Y-34750000D01*
X67037500Y-34750000D01*
X67874999Y-34750000D01*
X67874999Y-34475028D01*
X67874998Y-34475013D01*
X67864505Y-34372302D01*
X67809358Y-34205880D01*
X67809356Y-34205875D01*
X67717315Y-34056654D01*
X67623342Y-33962681D01*
X67589857Y-33901358D01*
X67594841Y-33831666D01*
X67623342Y-33787319D01*
X67717315Y-33693345D01*
X67809356Y-33544124D01*
X67809358Y-33544119D01*
X67864505Y-33377697D01*
X67864506Y-33377690D01*
X67874999Y-33274986D01*
X67875000Y-33274973D01*
X67875000Y-33000000D01*
X67037500Y-33000000D01*
X67037500Y-34750000D01*
X66537500Y-34750000D01*
X66537500Y-32500000D01*
X67037500Y-32500000D01*
X67874999Y-32500000D01*
X67874999Y-32225028D01*
X67874998Y-32225013D01*
X67864505Y-32122302D01*
X67809358Y-31955880D01*
X67809356Y-31955875D01*
X67717315Y-31806654D01*
X67593345Y-31682684D01*
X67444124Y-31590643D01*
X67444119Y-31590641D01*
X67277697Y-31535494D01*
X67277690Y-31535493D01*
X67174986Y-31525000D01*
X67037500Y-31525000D01*
X67037500Y-32500000D01*
X66537500Y-32500000D01*
X66537500Y-31525000D01*
X66400027Y-31525000D01*
X66400012Y-31525001D01*
X66297302Y-31535494D01*
X66130880Y-31590641D01*
X66130875Y-31590643D01*
X65981654Y-31682684D01*
X65857684Y-31806654D01*
X65765643Y-31955875D01*
X65765642Y-31955878D01*
X65735069Y-32048141D01*
X65695296Y-32105585D01*
X65630780Y-32132408D01*
X65562004Y-32120093D01*
X65510804Y-32072549D01*
X65501181Y-32052468D01*
X65493798Y-32032673D01*
X65493793Y-32032664D01*
X65407547Y-31917455D01*
X65407544Y-31917452D01*
X65292335Y-31831206D01*
X65292328Y-31831202D01*
X65157486Y-31780910D01*
X65157485Y-31780909D01*
X65157483Y-31780909D01*
X65097873Y-31774500D01*
X65097863Y-31774500D01*
X64327129Y-31774500D01*
X64327123Y-31774501D01*
X64267516Y-31780908D01*
X64132671Y-31831202D01*
X64132664Y-31831206D01*
X64017455Y-31917452D01*
X64017452Y-31917455D01*
X63931206Y-32032664D01*
X63931203Y-32032669D01*
X63899066Y-32118834D01*
X63857194Y-32174767D01*
X63791730Y-32199184D01*
X63782884Y-32199500D01*
X63677525Y-32199500D01*
X63548993Y-32233940D01*
X63537511Y-32237017D01*
X63411988Y-32309488D01*
X63411982Y-32309493D01*
X63309493Y-32411982D01*
X63309488Y-32411988D01*
X63237017Y-32537511D01*
X63237016Y-32537515D01*
X63199500Y-32677525D01*
X63199500Y-32822475D01*
X63233263Y-32948477D01*
X63237017Y-32962488D01*
X63309488Y-33088011D01*
X63309490Y-33088013D01*
X63309491Y-33088015D01*
X63411985Y-33190509D01*
X63411986Y-33190510D01*
X63411988Y-33190511D01*
X63537511Y-33262982D01*
X63537512Y-33262982D01*
X63537515Y-33262984D01*
X63677525Y-33300500D01*
X63677528Y-33300500D01*
X63782885Y-33300500D01*
X63849924Y-33320185D01*
X63895679Y-33372989D01*
X63899067Y-33381167D01*
X63931202Y-33467328D01*
X63931206Y-33467335D01*
X64017452Y-33582544D01*
X64017455Y-33582547D01*
X64132664Y-33668793D01*
X64132673Y-33668798D01*
X64231332Y-33705595D01*
X64249057Y-33718863D01*
X64269203Y-33728064D01*
X64276485Y-33739396D01*
X64287266Y-33747466D01*
X64295004Y-33768211D01*
X64306977Y-33786842D01*
X64310128Y-33808759D01*
X64311684Y-33812930D01*
X64312000Y-33821777D01*
X64312000Y-33928222D01*
X64292315Y-33995261D01*
X64239511Y-34041016D01*
X64231333Y-34044404D01*
X64132671Y-34081202D01*
X64132664Y-34081206D01*
X64017455Y-34167452D01*
X64017452Y-34167455D01*
X63931206Y-34282664D01*
X63931202Y-34282671D01*
X63880908Y-34417517D01*
X63874501Y-34477116D01*
X63874501Y-34477123D01*
X63874500Y-34477135D01*
X63874500Y-35522870D01*
X63874501Y-35522876D01*
X63880908Y-35582483D01*
X63931202Y-35717328D01*
X63931204Y-35717331D01*
X63979766Y-35782201D01*
X64004184Y-35847664D01*
X64004500Y-35856512D01*
X64004500Y-36208393D01*
X63984815Y-36275432D01*
X63966747Y-36297485D01*
X63958696Y-36305278D01*
X63899399Y-36344899D01*
X63865753Y-36395254D01*
X63856247Y-36404457D01*
X63836556Y-36414798D01*
X63819490Y-36429061D01*
X63806225Y-36430727D01*
X63794389Y-36436943D01*
X63772231Y-36434996D01*
X63750165Y-36437768D01*
X63738106Y-36431998D01*
X63724788Y-36430829D01*
X63707201Y-36417212D01*
X63687138Y-36407614D01*
X63671514Y-36389583D01*
X63669541Y-36388055D01*
X63669090Y-36386785D01*
X63666898Y-36384255D01*
X63640602Y-36344900D01*
X63557739Y-36289533D01*
X63557735Y-36289532D01*
X63484677Y-36275000D01*
X63484674Y-36275000D01*
X62785326Y-36275000D01*
X62785323Y-36275000D01*
X62712264Y-36289532D01*
X62712260Y-36289533D01*
X62629397Y-36344900D01*
X62603102Y-36384255D01*
X62549490Y-36429061D01*
X62480165Y-36437768D01*
X62418953Y-36409212D01*
X62406232Y-36398226D01*
X62370601Y-36344899D01*
X62287740Y-36289534D01*
X62278169Y-36287630D01*
X62258453Y-36270603D01*
X62249910Y-36257359D01*
X62237640Y-36247470D01*
X62231360Y-36228600D01*
X62220581Y-36211888D01*
X62220554Y-36196127D01*
X62215579Y-36181175D01*
X62215500Y-36176756D01*
X62215500Y-31088520D01*
X62235185Y-31021481D01*
X62265188Y-30989254D01*
X62307546Y-30957546D01*
X62393796Y-30842331D01*
X62444091Y-30707483D01*
X62450500Y-30647873D01*
X62450499Y-29852128D01*
X62444091Y-29792517D01*
X62437243Y-29774157D01*
X62393797Y-29657671D01*
X62393793Y-29657664D01*
X62307547Y-29542455D01*
X62307544Y-29542452D01*
X62192335Y-29456206D01*
X62192328Y-29456202D01*
X62057482Y-29405908D01*
X62057483Y-29405908D01*
X61997883Y-29399501D01*
X61997881Y-29399500D01*
X61997873Y-29399500D01*
X61997864Y-29399500D01*
X61002129Y-29399500D01*
X61002123Y-29399501D01*
X60942516Y-29405908D01*
X60807671Y-29456202D01*
X60807664Y-29456206D01*
X60692455Y-29542452D01*
X60692452Y-29542455D01*
X60606206Y-29657664D01*
X60606202Y-29657671D01*
X60555908Y-29792517D01*
X60549501Y-29852116D01*
X60549501Y-29852123D01*
X60549500Y-29852135D01*
X60549500Y-30647870D01*
X60549501Y-30647876D01*
X60555908Y-30707483D01*
X60606202Y-30842328D01*
X60606206Y-30842335D01*
X60692452Y-30957544D01*
X60692455Y-30957547D01*
X60807664Y-31043793D01*
X60807671Y-31043797D01*
X60830920Y-31052468D01*
X60942517Y-31094091D01*
X61002127Y-31100500D01*
X61390500Y-31100499D01*
X61457539Y-31120183D01*
X61503294Y-31172987D01*
X61514500Y-31224499D01*
X61514500Y-36176756D01*
X61494815Y-36243795D01*
X61471547Y-36270603D01*
X61451830Y-36287630D01*
X61442260Y-36289534D01*
X61359399Y-36344899D01*
X61323767Y-36398226D01*
X61311047Y-36409212D01*
X61293924Y-36416997D01*
X61279490Y-36429061D01*
X61262777Y-36431160D01*
X61247444Y-36438132D01*
X61228828Y-36435423D01*
X61210165Y-36437768D01*
X61194971Y-36430498D01*
X61178302Y-36428074D01*
X61164106Y-36415732D01*
X61147138Y-36407614D01*
X61126898Y-36384255D01*
X61100602Y-36344900D01*
X61050608Y-36311495D01*
X61005804Y-36257882D01*
X60995500Y-36208393D01*
X60995500Y-35856512D01*
X61015185Y-35789473D01*
X61020225Y-35782212D01*
X61068796Y-35717331D01*
X61119091Y-35582483D01*
X61125500Y-35522873D01*
X61125499Y-34477128D01*
X61119091Y-34417517D01*
X61105996Y-34382408D01*
X61068797Y-34282671D01*
X61068793Y-34282664D01*
X60982547Y-34167455D01*
X60982544Y-34167452D01*
X60867335Y-34081206D01*
X60867328Y-34081202D01*
X60732486Y-34030910D01*
X60732485Y-34030909D01*
X60732483Y-34030909D01*
X60672873Y-34024500D01*
X60672863Y-34024500D01*
X59902129Y-34024500D01*
X59902123Y-34024501D01*
X59842516Y-34030908D01*
X59707671Y-34081202D01*
X59707664Y-34081206D01*
X59592455Y-34167452D01*
X59592452Y-34167455D01*
X59506206Y-34282664D01*
X59506201Y-34282674D01*
X59498817Y-34302471D01*
X59456945Y-34358404D01*
X59391480Y-34382820D01*
X59323207Y-34367967D01*
X59273803Y-34318561D01*
X59264930Y-34298140D01*
X59234358Y-34205880D01*
X59234356Y-34205875D01*
X59142315Y-34056654D01*
X59018345Y-33932684D01*
X58869124Y-33840643D01*
X58869119Y-33840641D01*
X58702697Y-33785494D01*
X58702690Y-33785493D01*
X58599986Y-33775000D01*
X58462500Y-33775000D01*
X58462500Y-34876000D01*
X58442815Y-34943039D01*
X58390011Y-34988794D01*
X58338500Y-35000000D01*
X58212500Y-35000000D01*
X58212500Y-35126000D01*
X58192815Y-35193039D01*
X58140011Y-35238794D01*
X58088500Y-35250000D01*
X57125001Y-35250000D01*
X57125001Y-35524986D01*
X57135494Y-35627697D01*
X57190641Y-35794119D01*
X57190643Y-35794124D01*
X57282684Y-35943345D01*
X57406654Y-36067315D01*
X57555875Y-36159356D01*
X57555882Y-36159359D01*
X57595186Y-36172383D01*
X57652631Y-36212155D01*
X57679455Y-36276671D01*
X57667140Y-36345447D01*
X57619598Y-36396647D01*
X57599516Y-36406271D01*
X57532671Y-36431202D01*
X57532664Y-36431206D01*
X57417455Y-36517452D01*
X57417452Y-36517455D01*
X57331206Y-36632664D01*
X57331202Y-36632671D01*
X57281439Y-36766095D01*
X57280909Y-36767517D01*
X57274500Y-36827127D01*
X57274500Y-36827134D01*
X57274500Y-36827135D01*
X57274500Y-37570243D01*
X57254815Y-37637282D01*
X57238181Y-37657924D01*
X56727085Y-38169021D01*
X56671498Y-38201115D01*
X56537511Y-38237017D01*
X56411988Y-38309488D01*
X56411982Y-38309493D01*
X56408295Y-38313181D01*
X56346972Y-38346666D01*
X56320614Y-38349500D01*
X52774500Y-38349500D01*
X52707461Y-38329815D01*
X52661706Y-38277011D01*
X52650500Y-38225500D01*
X52650500Y-37975323D01*
X52650499Y-37975321D01*
X52635967Y-37902264D01*
X52635966Y-37902260D01*
X52580601Y-37819399D01*
X52497740Y-37764034D01*
X52497739Y-37764033D01*
X52497735Y-37764032D01*
X52424677Y-37749500D01*
X52424674Y-37749500D01*
X51375326Y-37749500D01*
X51375324Y-37749500D01*
X51302259Y-37764033D01*
X51297452Y-37766025D01*
X51227983Y-37773494D01*
X51202548Y-37766025D01*
X51197740Y-37764033D01*
X51124676Y-37749500D01*
X51124674Y-37749500D01*
X50075326Y-37749500D01*
X50075323Y-37749500D01*
X50002264Y-37764032D01*
X50002260Y-37764033D01*
X49919399Y-37819399D01*
X49864033Y-37902260D01*
X49864032Y-37902264D01*
X49849500Y-37975321D01*
X49849500Y-39524678D01*
X49864032Y-39597735D01*
X49864033Y-39597739D01*
X49864034Y-39597740D01*
X49919399Y-39680601D01*
X49993390Y-39730039D01*
X50038196Y-39783651D01*
X50048500Y-39833142D01*
X50048500Y-41328222D01*
X50028815Y-41395261D01*
X49976011Y-41441016D01*
X49967833Y-41444404D01*
X49869171Y-41481202D01*
X49869164Y-41481206D01*
X49753955Y-41567452D01*
X49753952Y-41567455D01*
X49667706Y-41682664D01*
X49667702Y-41682671D01*
X49617408Y-41817517D01*
X49611001Y-41877116D01*
X49610822Y-41880452D01*
X49609565Y-41880384D01*
X49591315Y-41942539D01*
X49538511Y-41988294D01*
X49487000Y-41999500D01*
X49072459Y-41999500D01*
X49005420Y-41979815D01*
X48959665Y-41927011D01*
X48949169Y-41888754D01*
X48947643Y-41874564D01*
X48944091Y-41841517D01*
X48899719Y-41722549D01*
X48893797Y-41706671D01*
X48893793Y-41706664D01*
X48807547Y-41591455D01*
X48807544Y-41591452D01*
X48692335Y-41505206D01*
X48692328Y-41505202D01*
X48557482Y-41454908D01*
X48557483Y-41454908D01*
X48497883Y-41448501D01*
X48497881Y-41448500D01*
X48497873Y-41448500D01*
X48497864Y-41448500D01*
X47502129Y-41448500D01*
X47502123Y-41448501D01*
X47442516Y-41454908D01*
X47307671Y-41505202D01*
X47307664Y-41505206D01*
X47192455Y-41591452D01*
X47192452Y-41591455D01*
X47106206Y-41706664D01*
X47106202Y-41706671D01*
X47055908Y-41841517D01*
X47049501Y-41901116D01*
X47049500Y-41901135D01*
X47049500Y-42696870D01*
X47049501Y-42696876D01*
X47055908Y-42756483D01*
X47106202Y-42891328D01*
X47106206Y-42891335D01*
X47192452Y-43006544D01*
X47192455Y-43006547D01*
X47307664Y-43092793D01*
X47307671Y-43092797D01*
X47322962Y-43098500D01*
X47442517Y-43143091D01*
X47502127Y-43149500D01*
X47876000Y-43149499D01*
X47884686Y-43152049D01*
X47893647Y-43150761D01*
X47917683Y-43161738D01*
X47943039Y-43169183D01*
X47948967Y-43176025D01*
X47957203Y-43179786D01*
X47971489Y-43202017D01*
X47988794Y-43221987D01*
X47991081Y-43232502D01*
X47994977Y-43238564D01*
X48000000Y-43273499D01*
X48000000Y-43324500D01*
X47980315Y-43391539D01*
X47927511Y-43437294D01*
X47876000Y-43448500D01*
X47502130Y-43448500D01*
X47502123Y-43448501D01*
X47442516Y-43454908D01*
X47307671Y-43505202D01*
X47307664Y-43505206D01*
X47192455Y-43591452D01*
X47192452Y-43591455D01*
X47106206Y-43706664D01*
X47106202Y-43706671D01*
X47055908Y-43841517D01*
X47049501Y-43901116D01*
X47049500Y-43901135D01*
X47049500Y-44696870D01*
X47049501Y-44696876D01*
X47055908Y-44756483D01*
X47106202Y-44891328D01*
X47106206Y-44891335D01*
X47192452Y-45006544D01*
X47192455Y-45006547D01*
X47283540Y-45074734D01*
X47325411Y-45130668D01*
X47330395Y-45200359D01*
X47296909Y-45261682D01*
X47283540Y-45273266D01*
X47192455Y-45341452D01*
X47192452Y-45341455D01*
X47106206Y-45456664D01*
X47106202Y-45456671D01*
X47055908Y-45591517D01*
X47049501Y-45651116D01*
X47049500Y-45651135D01*
X47049500Y-46446870D01*
X47049501Y-46446876D01*
X47055908Y-46506483D01*
X47106202Y-46641328D01*
X47106206Y-46641335D01*
X47192452Y-46756544D01*
X47192455Y-46756547D01*
X47253841Y-46802501D01*
X47295712Y-46858435D01*
X47300696Y-46928126D01*
X47267210Y-46989449D01*
X47236910Y-47010664D01*
X47237025Y-47010851D01*
X47233831Y-47012820D01*
X47231936Y-47014148D01*
X47230885Y-47014637D01*
X47081654Y-47106684D01*
X46957684Y-47230654D01*
X46865643Y-47379875D01*
X46865641Y-47379880D01*
X46810494Y-47546302D01*
X46810493Y-47546309D01*
X46800000Y-47649013D01*
X45500500Y-47649013D01*
X45500500Y-30102135D01*
X45799500Y-30102135D01*
X45799500Y-30897870D01*
X45799501Y-30897876D01*
X45805908Y-30957483D01*
X45856202Y-31092328D01*
X45856203Y-31092329D01*
X45856204Y-31092331D01*
X45942454Y-31207546D01*
X45950308Y-31213425D01*
X45992180Y-31269356D01*
X46000000Y-31312694D01*
X46000000Y-31687305D01*
X45980315Y-31754344D01*
X45950315Y-31786569D01*
X45942453Y-31792454D01*
X45942452Y-31792455D01*
X45856206Y-31907664D01*
X45856202Y-31907671D01*
X45805908Y-32042517D01*
X45799501Y-32102116D01*
X45799500Y-32102135D01*
X45799500Y-32897870D01*
X45799501Y-32897876D01*
X45805908Y-32957483D01*
X45856202Y-33092328D01*
X45856206Y-33092335D01*
X45942452Y-33207544D01*
X45942455Y-33207547D01*
X46057664Y-33293793D01*
X46057671Y-33293797D01*
X46192517Y-33344091D01*
X46192516Y-33344091D01*
X46199444Y-33344835D01*
X46252127Y-33350500D01*
X47247872Y-33350499D01*
X47307483Y-33344091D01*
X47442331Y-33293796D01*
X47557546Y-33207546D01*
X47643796Y-33092331D01*
X47659590Y-33049986D01*
X47685258Y-32981167D01*
X47698527Y-32963440D01*
X47707727Y-32943297D01*
X47719057Y-32936015D01*
X47727129Y-32925233D01*
X47747877Y-32917494D01*
X47766505Y-32905523D01*
X47788421Y-32902371D01*
X47792593Y-32900816D01*
X47801440Y-32900500D01*
X47914236Y-32900500D01*
X47981275Y-32920185D01*
X48027030Y-32972989D01*
X48030418Y-32981167D01*
X48081202Y-33117328D01*
X48081206Y-33117335D01*
X48167452Y-33232544D01*
X48167455Y-33232547D01*
X48282664Y-33318793D01*
X48282671Y-33318797D01*
X48417517Y-33369091D01*
X48417516Y-33369091D01*
X48424444Y-33369835D01*
X48477127Y-33375500D01*
X49522872Y-33375499D01*
X49582483Y-33369091D01*
X49717331Y-33318796D01*
X49832546Y-33232546D01*
X49918796Y-33117331D01*
X49941705Y-33055909D01*
X49960258Y-33006167D01*
X49973527Y-32988440D01*
X49982727Y-32968297D01*
X49994057Y-32961015D01*
X50002129Y-32950233D01*
X50022877Y-32942494D01*
X50041505Y-32930523D01*
X50063421Y-32927371D01*
X50067593Y-32925816D01*
X50076440Y-32925500D01*
X50300501Y-32925500D01*
X50367540Y-32945185D01*
X50413295Y-32997989D01*
X50423437Y-33044611D01*
X50424099Y-33044576D01*
X50424146Y-33044571D01*
X50424146Y-33044573D01*
X50424324Y-33044564D01*
X50424501Y-33047876D01*
X50430908Y-33107483D01*
X50481202Y-33242328D01*
X50481204Y-33242331D01*
X50524766Y-33300522D01*
X50549184Y-33365985D01*
X50549500Y-33374833D01*
X50549500Y-34625500D01*
X50529815Y-34692539D01*
X50477011Y-34738294D01*
X50425500Y-34749500D01*
X50075323Y-34749500D01*
X50002264Y-34764032D01*
X50002260Y-34764033D01*
X49919399Y-34819399D01*
X49864033Y-34902260D01*
X49864032Y-34902264D01*
X49849500Y-34975321D01*
X49849500Y-36524678D01*
X49864032Y-36597735D01*
X49864033Y-36597739D01*
X49864034Y-36597740D01*
X49919399Y-36680601D01*
X49988099Y-36726504D01*
X50002260Y-36735966D01*
X50002264Y-36735967D01*
X50075321Y-36750499D01*
X50075324Y-36750500D01*
X50075326Y-36750500D01*
X51124676Y-36750500D01*
X51124677Y-36750499D01*
X51149720Y-36745518D01*
X51197732Y-36735968D01*
X51197733Y-36735967D01*
X51197740Y-36735966D01*
X51197745Y-36735962D01*
X51202539Y-36733977D01*
X51272008Y-36726504D01*
X51297461Y-36733977D01*
X51302256Y-36735963D01*
X51302260Y-36735966D01*
X51302264Y-36735966D01*
X51302267Y-36735968D01*
X51375321Y-36750499D01*
X51375324Y-36750500D01*
X51375326Y-36750500D01*
X52424676Y-36750500D01*
X52424677Y-36750499D01*
X52497740Y-36735966D01*
X52580601Y-36680601D01*
X52635966Y-36597740D01*
X52650500Y-36524674D01*
X52650500Y-36274500D01*
X52670185Y-36207461D01*
X52722989Y-36161706D01*
X52774500Y-36150500D01*
X53820614Y-36150500D01*
X53887653Y-36170185D01*
X53908295Y-36186819D01*
X53911985Y-36190509D01*
X53911986Y-36190510D01*
X53911988Y-36190511D01*
X54037511Y-36262982D01*
X54037512Y-36262982D01*
X54037515Y-36262984D01*
X54177525Y-36300500D01*
X54177528Y-36300500D01*
X54322472Y-36300500D01*
X54322475Y-36300500D01*
X54462485Y-36262984D01*
X54588015Y-36190509D01*
X54690509Y-36088015D01*
X54762984Y-35962485D01*
X54800500Y-35822475D01*
X54800500Y-35677525D01*
X54762984Y-35537515D01*
X54755750Y-35524986D01*
X54690511Y-35411988D01*
X54690506Y-35411982D01*
X54588017Y-35309493D01*
X54588011Y-35309488D01*
X54462488Y-35237017D01*
X54462489Y-35237017D01*
X54451006Y-35233940D01*
X54322475Y-35199500D01*
X54177525Y-35199500D01*
X54048993Y-35233940D01*
X54037511Y-35237017D01*
X53911988Y-35309488D01*
X53911982Y-35309493D01*
X53908295Y-35313181D01*
X53846972Y-35346666D01*
X53820614Y-35349500D01*
X52774500Y-35349500D01*
X52707461Y-35329815D01*
X52661706Y-35277011D01*
X52650500Y-35225500D01*
X52650500Y-34975323D01*
X52650499Y-34975321D01*
X52635967Y-34902264D01*
X52635966Y-34902260D01*
X52618420Y-34876000D01*
X52580601Y-34819399D01*
X52497740Y-34764034D01*
X52497739Y-34764033D01*
X52497735Y-34764032D01*
X52424677Y-34749500D01*
X52424674Y-34749500D01*
X51474500Y-34749500D01*
X51465814Y-34746949D01*
X51456853Y-34748238D01*
X51432812Y-34737259D01*
X51407461Y-34729815D01*
X51401533Y-34722974D01*
X51393297Y-34719213D01*
X51379007Y-34696978D01*
X51361706Y-34677011D01*
X51359418Y-34666496D01*
X51355523Y-34660435D01*
X51350500Y-34625500D01*
X51350500Y-34475013D01*
X57125000Y-34475013D01*
X57125000Y-34750000D01*
X57962500Y-34750000D01*
X57962500Y-33775000D01*
X57825027Y-33775000D01*
X57825012Y-33775001D01*
X57722302Y-33785494D01*
X57555880Y-33840641D01*
X57555875Y-33840643D01*
X57406654Y-33932684D01*
X57282684Y-34056654D01*
X57190643Y-34205875D01*
X57190641Y-34205880D01*
X57135494Y-34372302D01*
X57135493Y-34372309D01*
X57125000Y-34475013D01*
X51350500Y-34475013D01*
X51350500Y-33634722D01*
X52600406Y-33634722D01*
X52680875Y-33684356D01*
X52680880Y-33684358D01*
X52847302Y-33739505D01*
X52847309Y-33739506D01*
X52950019Y-33749999D01*
X53087499Y-33749999D01*
X53087500Y-33749998D01*
X53087500Y-33634722D01*
X53587500Y-33634722D01*
X53587500Y-33749999D01*
X53724972Y-33749999D01*
X53724986Y-33749998D01*
X53827697Y-33739505D01*
X53994119Y-33684358D01*
X53994124Y-33684356D01*
X54074593Y-33634722D01*
X54500000Y-33634722D01*
X54500000Y-27273470D01*
X53837190Y-27273470D01*
X53917315Y-27193345D01*
X54009356Y-27044124D01*
X54009358Y-27044119D01*
X54064505Y-26877697D01*
X54064506Y-26877690D01*
X54074999Y-26774986D01*
X54075000Y-26774973D01*
X54075000Y-26500000D01*
X53237500Y-26500000D01*
X53237500Y-27273470D01*
X52700000Y-27273470D01*
X52700000Y-27046362D01*
X52719685Y-26979323D01*
X52736319Y-26958681D01*
X52737500Y-26957500D01*
X52737500Y-26000000D01*
X53237500Y-26000000D01*
X54074999Y-26000000D01*
X54074999Y-25725028D01*
X54074998Y-25725013D01*
X54064505Y-25622302D01*
X54009358Y-25455880D01*
X54009356Y-25455875D01*
X53917315Y-25306654D01*
X53793345Y-25182684D01*
X53644124Y-25090643D01*
X53644119Y-25090641D01*
X53477697Y-25035494D01*
X53477690Y-25035493D01*
X53374986Y-25025000D01*
X53237500Y-25025000D01*
X53237500Y-26000000D01*
X52737500Y-26000000D01*
X52737500Y-25025000D01*
X52600027Y-25025000D01*
X52600012Y-25025001D01*
X52497302Y-25035494D01*
X52330880Y-25090641D01*
X52330875Y-25090643D01*
X52181654Y-25182684D01*
X52057684Y-25306654D01*
X51965643Y-25455875D01*
X51965642Y-25455878D01*
X51935069Y-25548141D01*
X51895296Y-25605585D01*
X51830780Y-25632408D01*
X51762004Y-25620093D01*
X51710804Y-25572549D01*
X51701181Y-25552468D01*
X51693798Y-25532673D01*
X51693793Y-25532664D01*
X51607547Y-25417455D01*
X51607544Y-25417452D01*
X51492335Y-25331206D01*
X51492328Y-25331202D01*
X51368667Y-25285080D01*
X51312733Y-25243209D01*
X51288316Y-25177745D01*
X51288000Y-25168898D01*
X51288000Y-24219504D01*
X51307685Y-24152465D01*
X51360489Y-24106710D01*
X51387801Y-24097888D01*
X51447740Y-24085966D01*
X51530601Y-24030601D01*
X51585966Y-23947740D01*
X51600500Y-23874674D01*
X51600500Y-23664949D01*
X51620185Y-23597910D01*
X51672989Y-23552155D01*
X51742147Y-23542211D01*
X51805703Y-23571236D01*
X51834985Y-23608654D01*
X51885375Y-23707550D01*
X51924728Y-23761716D01*
X52557037Y-23129408D01*
X52574075Y-23192993D01*
X52639901Y-23307007D01*
X52732993Y-23400099D01*
X52847007Y-23465925D01*
X52910590Y-23482962D01*
X52278282Y-24115269D01*
X52278282Y-24115270D01*
X52332449Y-24154624D01*
X52521782Y-24251095D01*
X52723870Y-24316757D01*
X52933754Y-24350000D01*
X53146246Y-24350000D01*
X53356127Y-24316757D01*
X53356130Y-24316757D01*
X53558217Y-24251095D01*
X53747554Y-24154622D01*
X53801716Y-24115270D01*
X53801717Y-24115270D01*
X53169408Y-23482962D01*
X53232993Y-23465925D01*
X53347007Y-23400099D01*
X53440099Y-23307007D01*
X53505925Y-23192993D01*
X53522962Y-23129408D01*
X54155270Y-23761717D01*
X54155270Y-23761716D01*
X54194622Y-23707554D01*
X54291095Y-23518217D01*
X54356757Y-23316130D01*
X54356757Y-23316127D01*
X54390000Y-23106246D01*
X54390000Y-22893753D01*
X54356757Y-22683872D01*
X54356757Y-22683869D01*
X54291095Y-22481782D01*
X54194624Y-22292449D01*
X54155270Y-22238282D01*
X54155269Y-22238282D01*
X53522962Y-22870590D01*
X53505925Y-22807007D01*
X53440099Y-22692993D01*
X53347007Y-22599901D01*
X53232993Y-22534075D01*
X53169409Y-22517037D01*
X53561124Y-22125321D01*
X60374500Y-22125321D01*
X60374500Y-23874678D01*
X60389032Y-23947735D01*
X60389033Y-23947739D01*
X60389034Y-23947740D01*
X60444399Y-24030601D01*
X60497118Y-24065826D01*
X60527260Y-24085966D01*
X60527264Y-24085967D01*
X60600321Y-24100499D01*
X60600324Y-24100500D01*
X60600326Y-24100500D01*
X60988000Y-24100500D01*
X61055039Y-24120185D01*
X61100794Y-24172989D01*
X61112000Y-24224500D01*
X61112000Y-25160468D01*
X61092315Y-25227507D01*
X61039511Y-25273262D01*
X61021032Y-25279597D01*
X60882671Y-25331202D01*
X60882664Y-25331206D01*
X60767455Y-25417452D01*
X60767452Y-25417455D01*
X60681206Y-25532664D01*
X60681202Y-25532671D01*
X60630908Y-25667517D01*
X60624501Y-25727116D01*
X60624500Y-25727135D01*
X60624500Y-26772870D01*
X60624501Y-26772876D01*
X60630908Y-26832483D01*
X60681202Y-26967328D01*
X60681206Y-26967335D01*
X60767452Y-27082544D01*
X60767455Y-27082547D01*
X60882664Y-27168793D01*
X60882673Y-27168798D01*
X60918957Y-27182331D01*
X60974891Y-27224201D01*
X60999309Y-27289666D01*
X60984458Y-27357939D01*
X60935053Y-27407345D01*
X60918958Y-27414695D01*
X60807671Y-27456202D01*
X60807664Y-27456206D01*
X60692455Y-27542452D01*
X60692452Y-27542455D01*
X60606206Y-27657664D01*
X60606202Y-27657671D01*
X60555908Y-27792517D01*
X60549501Y-27852116D01*
X60549501Y-27852123D01*
X60549500Y-27852135D01*
X60549500Y-28647870D01*
X60549501Y-28647876D01*
X60555908Y-28707483D01*
X60606202Y-28842328D01*
X60606206Y-28842335D01*
X60692452Y-28957544D01*
X60692455Y-28957547D01*
X60807664Y-29043793D01*
X60807671Y-29043797D01*
X60942517Y-29094091D01*
X60942516Y-29094091D01*
X60949444Y-29094835D01*
X61002127Y-29100500D01*
X61997872Y-29100499D01*
X62057483Y-29094091D01*
X62192331Y-29043796D01*
X62307546Y-28957546D01*
X62393796Y-28842331D01*
X62444091Y-28707483D01*
X62450500Y-28647873D01*
X62450499Y-27852128D01*
X62444091Y-27792517D01*
X62411898Y-27706204D01*
X62393797Y-27657671D01*
X62393793Y-27657664D01*
X62307547Y-27542455D01*
X62307544Y-27542452D01*
X62192335Y-27456206D01*
X62192328Y-27456202D01*
X62057482Y-27405908D01*
X62056858Y-27405761D01*
X62056423Y-27405513D01*
X62050215Y-27403198D01*
X62050590Y-27402191D01*
X61996143Y-27371186D01*
X61963759Y-27309274D01*
X61969988Y-27239683D01*
X62012852Y-27184506D01*
X62042050Y-27168901D01*
X62042107Y-27168879D01*
X62042331Y-27168796D01*
X62157546Y-27082546D01*
X62243796Y-26967331D01*
X62251180Y-26947532D01*
X62293050Y-26891598D01*
X62358514Y-26867179D01*
X62426787Y-26882029D01*
X62476194Y-26931433D01*
X62485069Y-26951859D01*
X62515641Y-27044119D01*
X62515643Y-27044124D01*
X62607684Y-27193345D01*
X62731654Y-27317315D01*
X62880875Y-27409356D01*
X62880880Y-27409358D01*
X63047302Y-27464505D01*
X63047309Y-27464506D01*
X63150019Y-27474999D01*
X63287499Y-27474999D01*
X63787500Y-27474999D01*
X63924972Y-27474999D01*
X63924986Y-27474998D01*
X64027697Y-27464505D01*
X64194119Y-27409358D01*
X64194124Y-27409356D01*
X64343345Y-27317315D01*
X64467315Y-27193345D01*
X64559356Y-27044124D01*
X64559358Y-27044119D01*
X64614505Y-26877697D01*
X64614506Y-26877690D01*
X64624999Y-26774986D01*
X64625000Y-26774973D01*
X64625000Y-26500000D01*
X63787500Y-26500000D01*
X63787500Y-27474999D01*
X63287499Y-27474999D01*
X63287500Y-27474998D01*
X63287500Y-26000000D01*
X63787500Y-26000000D01*
X64624999Y-26000000D01*
X64624999Y-25725028D01*
X64624998Y-25725013D01*
X64614505Y-25622302D01*
X64559358Y-25455880D01*
X64559356Y-25455875D01*
X64467315Y-25306654D01*
X64343345Y-25182684D01*
X64194124Y-25090643D01*
X64194119Y-25090641D01*
X64027697Y-25035494D01*
X64027690Y-25035493D01*
X63924986Y-25025000D01*
X63787500Y-25025000D01*
X63787500Y-26000000D01*
X63287500Y-26000000D01*
X63287500Y-25025000D01*
X63150027Y-25025000D01*
X63150012Y-25025001D01*
X63047302Y-25035494D01*
X62880880Y-25090641D01*
X62880875Y-25090643D01*
X62731654Y-25182684D01*
X62607684Y-25306654D01*
X62515643Y-25455875D01*
X62515642Y-25455878D01*
X62485069Y-25548141D01*
X62445296Y-25605585D01*
X62380780Y-25632408D01*
X62312004Y-25620093D01*
X62260804Y-25572549D01*
X62251181Y-25552468D01*
X62243798Y-25532673D01*
X62243793Y-25532664D01*
X62157547Y-25417455D01*
X62157544Y-25417452D01*
X62042335Y-25331206D01*
X62042328Y-25331202D01*
X61900215Y-25278198D01*
X61900756Y-25276747D01*
X61847759Y-25246562D01*
X61815380Y-25184647D01*
X61813000Y-25160468D01*
X61813000Y-24224500D01*
X61832685Y-24157461D01*
X61885489Y-24111706D01*
X61937000Y-24100500D01*
X62349676Y-24100500D01*
X62349677Y-24100499D01*
X62422740Y-24085966D01*
X62505601Y-24030601D01*
X62560966Y-23947740D01*
X62575500Y-23874674D01*
X62575500Y-23664949D01*
X62595185Y-23597910D01*
X62647989Y-23552155D01*
X62717147Y-23542211D01*
X62780703Y-23571236D01*
X62809985Y-23608654D01*
X62860375Y-23707550D01*
X62899728Y-23761716D01*
X63532036Y-23129407D01*
X63549075Y-23192993D01*
X63614901Y-23307007D01*
X63707993Y-23400099D01*
X63822007Y-23465925D01*
X63885590Y-23482962D01*
X63253282Y-24115269D01*
X63253282Y-24115270D01*
X63307449Y-24154624D01*
X63496782Y-24251095D01*
X63698870Y-24316757D01*
X63908754Y-24350000D01*
X64121246Y-24350000D01*
X64331127Y-24316757D01*
X64331130Y-24316757D01*
X64533217Y-24251095D01*
X64722554Y-24154622D01*
X64776716Y-24115270D01*
X64776717Y-24115270D01*
X64144408Y-23482962D01*
X64207993Y-23465925D01*
X64322007Y-23400099D01*
X64415099Y-23307007D01*
X64480925Y-23192993D01*
X64497962Y-23129409D01*
X65130270Y-23761717D01*
X65130270Y-23761716D01*
X65169622Y-23707554D01*
X65266095Y-23518217D01*
X65331757Y-23316130D01*
X65331757Y-23316127D01*
X65365000Y-23106246D01*
X65365000Y-22893753D01*
X65331757Y-22683872D01*
X65331757Y-22683869D01*
X65266095Y-22481782D01*
X65169620Y-22292440D01*
X65167686Y-22289284D01*
X65149446Y-22221837D01*
X65170565Y-22155236D01*
X65224340Y-22110625D01*
X65273417Y-22100500D01*
X67553456Y-22100500D01*
X67620495Y-22120185D01*
X67641137Y-22136819D01*
X67863181Y-22358863D01*
X67896666Y-22420186D01*
X67899500Y-22446544D01*
X67899500Y-23874678D01*
X67914032Y-23947735D01*
X67914033Y-23947739D01*
X67914034Y-23947740D01*
X67969399Y-24030601D01*
X68022118Y-24065826D01*
X68052260Y-24085966D01*
X68052264Y-24085967D01*
X68125321Y-24100499D01*
X68125324Y-24100500D01*
X68125326Y-24100500D01*
X69874676Y-24100500D01*
X69874677Y-24100499D01*
X69947740Y-24085966D01*
X70030601Y-24030601D01*
X70085966Y-23947740D01*
X70100500Y-23874674D01*
X70100500Y-23664949D01*
X70120185Y-23597910D01*
X70172989Y-23552155D01*
X70242147Y-23542211D01*
X70305703Y-23571236D01*
X70334985Y-23608654D01*
X70385375Y-23707550D01*
X70424728Y-23761716D01*
X71057037Y-23129408D01*
X71074075Y-23192993D01*
X71139901Y-23307007D01*
X71232993Y-23400099D01*
X71347007Y-23465925D01*
X71410590Y-23482962D01*
X70778282Y-24115269D01*
X70778282Y-24115270D01*
X70832449Y-24154624D01*
X71021782Y-24251095D01*
X71223870Y-24316757D01*
X71433754Y-24350000D01*
X71646246Y-24350000D01*
X71856127Y-24316757D01*
X71856130Y-24316757D01*
X72058217Y-24251095D01*
X72247554Y-24154622D01*
X72301716Y-24115270D01*
X72301717Y-24115270D01*
X72068394Y-23881947D01*
X75250000Y-23881947D01*
X75250000Y-24118052D01*
X75286934Y-24351247D01*
X75359897Y-24575802D01*
X75467087Y-24786174D01*
X75527338Y-24869104D01*
X75527340Y-24869105D01*
X76267037Y-24129408D01*
X76284075Y-24192993D01*
X76349901Y-24307007D01*
X76442993Y-24400099D01*
X76557007Y-24465925D01*
X76620590Y-24482962D01*
X75880893Y-25222658D01*
X75963828Y-25282914D01*
X76174197Y-25390102D01*
X76398752Y-25463065D01*
X76398751Y-25463065D01*
X76631948Y-25500000D01*
X76868052Y-25500000D01*
X77101247Y-25463065D01*
X77325802Y-25390102D01*
X77536163Y-25282918D01*
X77536169Y-25282914D01*
X77619104Y-25222658D01*
X77619105Y-25222658D01*
X76879408Y-24482962D01*
X76942993Y-24465925D01*
X77057007Y-24400099D01*
X77150099Y-24307007D01*
X77215925Y-24192993D01*
X77232962Y-24129409D01*
X77972658Y-24869105D01*
X77972658Y-24869104D01*
X78032914Y-24786169D01*
X78032918Y-24786163D01*
X78140102Y-24575802D01*
X78213065Y-24351247D01*
X78250000Y-24118052D01*
X78250000Y-23881947D01*
X78213065Y-23648752D01*
X78140102Y-23424197D01*
X78032914Y-23213828D01*
X77972658Y-23130894D01*
X77972658Y-23130893D01*
X77232962Y-23870590D01*
X77215925Y-23807007D01*
X77150099Y-23692993D01*
X77057007Y-23599901D01*
X76942993Y-23534075D01*
X76879409Y-23517037D01*
X77619105Y-22777340D01*
X77619104Y-22777338D01*
X77536174Y-22717087D01*
X77325802Y-22609897D01*
X77101247Y-22536934D01*
X77101248Y-22536934D01*
X76868052Y-22500000D01*
X76631948Y-22500000D01*
X76398752Y-22536934D01*
X76174197Y-22609897D01*
X75963830Y-22717084D01*
X75880894Y-22777340D01*
X76620591Y-23517037D01*
X76557007Y-23534075D01*
X76442993Y-23599901D01*
X76349901Y-23692993D01*
X76284075Y-23807007D01*
X76267037Y-23870591D01*
X75527340Y-23130894D01*
X75467084Y-23213830D01*
X75359897Y-23424197D01*
X75286934Y-23648752D01*
X75250000Y-23881947D01*
X72068394Y-23881947D01*
X71669408Y-23482962D01*
X71732993Y-23465925D01*
X71847007Y-23400099D01*
X71940099Y-23307007D01*
X72005925Y-23192993D01*
X72022962Y-23129409D01*
X72655270Y-23761717D01*
X72655270Y-23761716D01*
X72694622Y-23707554D01*
X72791095Y-23518217D01*
X72856757Y-23316130D01*
X72856757Y-23316127D01*
X72890000Y-23106246D01*
X72890000Y-22893754D01*
X72882119Y-22843997D01*
X72856757Y-22683872D01*
X72856757Y-22683869D01*
X72791095Y-22481782D01*
X72694624Y-22292449D01*
X72655270Y-22238282D01*
X72655269Y-22238282D01*
X72022962Y-22870590D01*
X72005925Y-22807007D01*
X71940099Y-22692993D01*
X71847007Y-22599901D01*
X71732993Y-22534075D01*
X71669409Y-22517037D01*
X72301716Y-21884728D01*
X72247550Y-21845375D01*
X72058217Y-21748904D01*
X71856129Y-21683242D01*
X71646246Y-21650000D01*
X71433754Y-21650000D01*
X71223872Y-21683242D01*
X71223869Y-21683242D01*
X71021782Y-21748904D01*
X70832439Y-21845380D01*
X70778282Y-21884727D01*
X70778282Y-21884728D01*
X71410591Y-22517037D01*
X71347007Y-22534075D01*
X71232993Y-22599901D01*
X71139901Y-22692993D01*
X71074075Y-22807007D01*
X71057037Y-22870591D01*
X70424728Y-22238282D01*
X70424727Y-22238282D01*
X70385380Y-22292440D01*
X70385378Y-22292443D01*
X70334984Y-22391346D01*
X70287010Y-22442141D01*
X70219188Y-22458936D01*
X70153054Y-22436398D01*
X70109603Y-22381683D01*
X70100500Y-22335050D01*
X70100500Y-22125323D01*
X70100499Y-22125321D01*
X70085967Y-22052264D01*
X70085966Y-22052260D01*
X70030601Y-21969399D01*
X69947740Y-21914034D01*
X69947739Y-21914033D01*
X69947735Y-21914032D01*
X69874677Y-21899500D01*
X69874674Y-21899500D01*
X68446544Y-21899500D01*
X68379505Y-21879815D01*
X68358863Y-21863181D01*
X67965213Y-21469531D01*
X67965208Y-21469527D01*
X67885290Y-21423387D01*
X67885289Y-21423386D01*
X67885288Y-21423386D01*
X67796144Y-21399500D01*
X62678856Y-21399500D01*
X62589712Y-21423386D01*
X62589709Y-21423387D01*
X62509791Y-21469527D01*
X62509786Y-21469531D01*
X62116137Y-21863181D01*
X62054814Y-21896666D01*
X62028456Y-21899500D01*
X60600323Y-21899500D01*
X60527264Y-21914032D01*
X60527260Y-21914033D01*
X60444399Y-21969399D01*
X60389033Y-22052260D01*
X60389032Y-22052264D01*
X60374500Y-22125321D01*
X53561124Y-22125321D01*
X53801716Y-21884728D01*
X53747550Y-21845375D01*
X53558217Y-21748904D01*
X53356129Y-21683242D01*
X53146246Y-21650000D01*
X52933754Y-21650000D01*
X52723872Y-21683242D01*
X52723869Y-21683242D01*
X52521782Y-21748904D01*
X52332439Y-21845380D01*
X52278282Y-21884727D01*
X52278282Y-21884728D01*
X52910591Y-22517037D01*
X52847007Y-22534075D01*
X52732993Y-22599901D01*
X52639901Y-22692993D01*
X52574075Y-22807007D01*
X52557037Y-22870591D01*
X51924728Y-22238282D01*
X51924727Y-22238282D01*
X51885380Y-22292440D01*
X51885378Y-22292443D01*
X51834984Y-22391346D01*
X51787010Y-22442141D01*
X51719188Y-22458936D01*
X51653054Y-22436398D01*
X51609603Y-22381683D01*
X51600500Y-22335050D01*
X51600500Y-22125323D01*
X51600499Y-22125321D01*
X51585967Y-22052264D01*
X51585966Y-22052260D01*
X51530601Y-21969399D01*
X51447740Y-21914034D01*
X51447739Y-21914033D01*
X51447735Y-21914032D01*
X51374677Y-21899500D01*
X51374674Y-21899500D01*
X49625326Y-21899500D01*
X49625323Y-21899500D01*
X49552264Y-21914032D01*
X49552260Y-21914033D01*
X49469399Y-21969399D01*
X49414033Y-22052260D01*
X49414032Y-22052264D01*
X49399500Y-22125321D01*
X49399500Y-23874678D01*
X49414032Y-23947735D01*
X49414033Y-23947739D01*
X49414034Y-23947740D01*
X49469399Y-24030601D01*
X49522118Y-24065826D01*
X49552260Y-24085966D01*
X49552264Y-24085967D01*
X49625321Y-24100499D01*
X49625324Y-24100500D01*
X49625326Y-24100500D01*
X50363000Y-24100500D01*
X50430039Y-24120185D01*
X50475794Y-24172989D01*
X50487000Y-24224500D01*
X50487000Y-25187547D01*
X50467315Y-25254586D01*
X50414511Y-25300341D01*
X50406333Y-25303729D01*
X50332671Y-25331202D01*
X50332664Y-25331206D01*
X50217455Y-25417452D01*
X50217452Y-25417455D01*
X50131206Y-25532664D01*
X50126953Y-25540454D01*
X50123844Y-25538756D01*
X50092019Y-25581163D01*
X50026525Y-25605501D01*
X49958271Y-25590566D01*
X49930148Y-25569487D01*
X49918345Y-25557684D01*
X49769124Y-25465643D01*
X49769119Y-25465641D01*
X49602697Y-25410494D01*
X49602690Y-25410493D01*
X49499986Y-25400000D01*
X49250000Y-25400000D01*
X49250000Y-26376000D01*
X49230315Y-26443039D01*
X49177511Y-26488794D01*
X49126000Y-26500000D01*
X49000000Y-26500000D01*
X49000000Y-26626000D01*
X48980315Y-26693039D01*
X48927511Y-26738794D01*
X48876000Y-26750000D01*
X47800001Y-26750000D01*
X47800001Y-26899986D01*
X47810494Y-27002697D01*
X47865641Y-27169119D01*
X47865643Y-27169124D01*
X47957684Y-27318345D01*
X48081654Y-27442315D01*
X48230877Y-27534356D01*
X48231924Y-27534845D01*
X48232522Y-27535371D01*
X48237025Y-27538149D01*
X48236550Y-27538917D01*
X48284368Y-27581012D01*
X48303526Y-27648204D01*
X48283317Y-27715087D01*
X48253842Y-27746498D01*
X48192452Y-27792455D01*
X48106206Y-27907664D01*
X48106202Y-27907671D01*
X48055908Y-28042517D01*
X48049501Y-28102116D01*
X48049500Y-28102135D01*
X48049500Y-28897870D01*
X48049501Y-28897876D01*
X48055908Y-28957483D01*
X48106202Y-29092328D01*
X48106206Y-29092335D01*
X48192452Y-29207544D01*
X48192455Y-29207547D01*
X48307664Y-29293793D01*
X48307671Y-29293797D01*
X48352618Y-29310561D01*
X48442517Y-29344091D01*
X48502127Y-29350500D01*
X48525497Y-29350499D01*
X48534183Y-29353049D01*
X48543147Y-29351761D01*
X48567182Y-29362737D01*
X48592536Y-29370181D01*
X48598466Y-29377024D01*
X48606703Y-29380786D01*
X48620988Y-29403015D01*
X48638292Y-29422983D01*
X48640580Y-29433500D01*
X48644477Y-29439564D01*
X48649500Y-29474499D01*
X48649500Y-29500500D01*
X48629815Y-29567539D01*
X48577011Y-29613294D01*
X48525502Y-29624500D01*
X48477131Y-29624500D01*
X48477123Y-29624501D01*
X48417516Y-29630908D01*
X48282671Y-29681202D01*
X48282664Y-29681206D01*
X48167455Y-29767452D01*
X48167452Y-29767455D01*
X48081206Y-29882664D01*
X48081202Y-29882671D01*
X48030908Y-30017516D01*
X48028625Y-30038757D01*
X48027747Y-30040875D01*
X48028074Y-30043147D01*
X48014439Y-30073002D01*
X48001886Y-30103308D01*
X48000002Y-30104615D01*
X47999049Y-30106703D01*
X47971441Y-30124445D01*
X47944493Y-30143155D01*
X47941598Y-30143624D01*
X47940271Y-30144477D01*
X47905336Y-30149500D01*
X47816977Y-30149500D01*
X47749938Y-30129815D01*
X47704183Y-30077011D01*
X47696733Y-30049865D01*
X47695876Y-30050068D01*
X47694092Y-30042520D01*
X47693478Y-30040875D01*
X47643796Y-29907669D01*
X47643795Y-29907668D01*
X47643793Y-29907664D01*
X47557547Y-29792455D01*
X47557544Y-29792452D01*
X47442335Y-29706206D01*
X47442328Y-29706202D01*
X47307482Y-29655908D01*
X47307483Y-29655908D01*
X47247883Y-29649501D01*
X47247881Y-29649500D01*
X47247873Y-29649500D01*
X47247864Y-29649500D01*
X46252129Y-29649500D01*
X46252123Y-29649501D01*
X46192516Y-29655908D01*
X46057671Y-29706202D01*
X46057664Y-29706206D01*
X45942455Y-29792452D01*
X45942452Y-29792455D01*
X45856206Y-29907664D01*
X45856202Y-29907671D01*
X45805908Y-30042517D01*
X45799501Y-30102116D01*
X45799500Y-30102135D01*
X45500500Y-30102135D01*
X45500500Y-26100013D01*
X47800000Y-26100013D01*
X47800000Y-26250000D01*
X48750000Y-26250000D01*
X48750000Y-25400000D01*
X48500029Y-25400000D01*
X48500012Y-25400001D01*
X48397302Y-25410494D01*
X48230880Y-25465641D01*
X48230875Y-25465643D01*
X48081654Y-25557684D01*
X47957684Y-25681654D01*
X47865643Y-25830875D01*
X47865641Y-25830880D01*
X47810494Y-25997302D01*
X47810493Y-25997309D01*
X47800000Y-26100013D01*
X45500500Y-26100013D01*
X45500500Y-20624500D01*
X45520185Y-20557461D01*
X45572989Y-20511706D01*
X45624500Y-20500500D01*
X79375500Y-20500500D01*
X79442539Y-20520185D01*
G37*
%TD.AperFunction*%
%TD*%
%TA.AperFunction,Conductor*%
%TO.N,GND*%
G36*
X53500000Y-47500000D02*
G01*
X53128867Y-47500000D01*
X53177073Y-47401393D01*
X53187000Y-47333260D01*
X53187000Y-47187000D01*
X53205907Y-47128809D01*
X53255407Y-47092845D01*
X53286000Y-47088000D01*
X53500000Y-47088000D01*
X53500000Y-47500000D01*
G37*
%TD.AperFunction*%
%TA.AperFunction,Conductor*%
G36*
X53500000Y-46487000D02*
G01*
X53286000Y-46487000D01*
X53227809Y-46468093D01*
X53191845Y-46418593D01*
X53187000Y-46388000D01*
X53187000Y-46241743D01*
X53187000Y-46241740D01*
X53177073Y-46173607D01*
X53125698Y-46068517D01*
X53042983Y-45985802D01*
X53042981Y-45985801D01*
X52937895Y-45934427D01*
X52910639Y-45930456D01*
X52869760Y-45924500D01*
X52503240Y-45924500D01*
X52503237Y-45924500D01*
X52499670Y-45924759D01*
X52499553Y-45923150D01*
X52445196Y-45913831D01*
X52406047Y-45876595D01*
X52404185Y-45873447D01*
X52288052Y-45757314D01*
X52146701Y-45673719D01*
X52146702Y-45673719D01*
X51988991Y-45627900D01*
X51986500Y-45627702D01*
X51986500Y-46688500D01*
X51967593Y-46746691D01*
X51918093Y-46782655D01*
X51887500Y-46787500D01*
X51585500Y-46787500D01*
X51527309Y-46768593D01*
X51491345Y-46719093D01*
X51486500Y-46688500D01*
X51486500Y-45703979D01*
X51505407Y-45645788D01*
X51515496Y-45633975D01*
X51773971Y-45375500D01*
X52041127Y-45108343D01*
X52095642Y-45080568D01*
X52156074Y-45090139D01*
X52199339Y-45133404D01*
X52200070Y-45134868D01*
X52247302Y-45231483D01*
X52330017Y-45314198D01*
X52383785Y-45340483D01*
X52435104Y-45365572D01*
X52435105Y-45365572D01*
X52435107Y-45365573D01*
X52503240Y-45375500D01*
X52503243Y-45375500D01*
X52869757Y-45375500D01*
X52869760Y-45375500D01*
X52937893Y-45365573D01*
X53042983Y-45314198D01*
X53125698Y-45231483D01*
X53177073Y-45126393D01*
X53187000Y-45058260D01*
X53187000Y-44638748D01*
X53500000Y-44638748D01*
X53500000Y-46487000D01*
G37*
%TD.AperFunction*%
%TD*%
%TA.AperFunction,Conductor*%
%TO.N,GND*%
G36*
X54500000Y-33634722D02*
G01*
X54074594Y-33634722D01*
X54143342Y-33592317D01*
X54267319Y-33468340D01*
X54359356Y-33319124D01*
X54414506Y-33152693D01*
X54425000Y-33049987D01*
X54425000Y-32775001D01*
X54424999Y-32775000D01*
X52250002Y-32775000D01*
X52250001Y-32775001D01*
X52250001Y-33049986D01*
X52260492Y-33152687D01*
X52260495Y-33152699D01*
X52315643Y-33319124D01*
X52407680Y-33468340D01*
X52531657Y-33592317D01*
X52600406Y-33634722D01*
X51300500Y-33634722D01*
X51300500Y-33549500D01*
X51319407Y-33491309D01*
X51368907Y-33455345D01*
X51399500Y-33450500D01*
X51654273Y-33450500D01*
X51654273Y-33450499D01*
X51684699Y-33447646D01*
X51812882Y-33402793D01*
X51922150Y-33322150D01*
X52002793Y-33212882D01*
X52047646Y-33084699D01*
X52050499Y-33054273D01*
X52050500Y-33054273D01*
X52050500Y-32273687D01*
X52052968Y-32266089D01*
X52051719Y-32258200D01*
X52062243Y-32237544D01*
X52069407Y-32215496D01*
X52079484Y-32203696D01*
X52081000Y-32202180D01*
X52135513Y-32174406D01*
X52195945Y-32183977D01*
X52239210Y-32227242D01*
X52250000Y-32272187D01*
X52250000Y-32274999D01*
X52250001Y-32275000D01*
X54424998Y-32275000D01*
X54424999Y-32274999D01*
X54424999Y-32000013D01*
X54414507Y-31897312D01*
X54414504Y-31897300D01*
X54359356Y-31730875D01*
X54267319Y-31581659D01*
X54143340Y-31457680D01*
X53994124Y-31365643D01*
X53827693Y-31310493D01*
X53724987Y-31300000D01*
X53520408Y-31300000D01*
X53462217Y-31281093D01*
X53426253Y-31231593D01*
X53426253Y-31170407D01*
X53431468Y-31157519D01*
X53436400Y-31147427D01*
X53440573Y-31138893D01*
X53450500Y-31070760D01*
X53450500Y-29979240D01*
X53440573Y-29911107D01*
X53389198Y-29806017D01*
X53306483Y-29723302D01*
X53306481Y-29723301D01*
X53201395Y-29671927D01*
X53174139Y-29667956D01*
X53133260Y-29662000D01*
X52766740Y-29662000D01*
X52732673Y-29666963D01*
X52698604Y-29671927D01*
X52593518Y-29723301D01*
X52510801Y-29806018D01*
X52459427Y-29911104D01*
X52449500Y-29979243D01*
X52449500Y-30801310D01*
X52430593Y-30859501D01*
X52420504Y-30871314D01*
X51721314Y-31570504D01*
X51666797Y-31598281D01*
X51651310Y-31599500D01*
X50870732Y-31599500D01*
X50858241Y-31600671D01*
X50838571Y-31596258D01*
X50818407Y-31596258D01*
X50809399Y-31589713D01*
X50798539Y-31587277D01*
X50785220Y-31572146D01*
X50768907Y-31560294D01*
X50765466Y-31549705D01*
X50758112Y-31541350D01*
X50750000Y-31502103D01*
X50750000Y-31485460D01*
X50768907Y-31427269D01*
X50818407Y-31391305D01*
X50863276Y-31387495D01*
X50866740Y-31388000D01*
X50866744Y-31388000D01*
X51233257Y-31388000D01*
X51233260Y-31388000D01*
X51301393Y-31378073D01*
X51406483Y-31326698D01*
X51489198Y-31243983D01*
X51540573Y-31138893D01*
X51550500Y-31070760D01*
X51550500Y-29979240D01*
X51540573Y-29911107D01*
X51489198Y-29806017D01*
X51406483Y-29723302D01*
X51406481Y-29723301D01*
X51301395Y-29671927D01*
X51274139Y-29667956D01*
X51233260Y-29662000D01*
X50866740Y-29662000D01*
X50863267Y-29662506D01*
X50802959Y-29652181D01*
X50760237Y-29608381D01*
X50750000Y-29564539D01*
X50750000Y-29210460D01*
X50768907Y-29152269D01*
X50818407Y-29116305D01*
X50863276Y-29112495D01*
X50866740Y-29113000D01*
X50866744Y-29113000D01*
X51233257Y-29113000D01*
X51233260Y-29113000D01*
X51301393Y-29103073D01*
X51406483Y-29051698D01*
X51454998Y-29003182D01*
X51509513Y-28975407D01*
X51569945Y-28984978D01*
X51595000Y-29003181D01*
X51643517Y-29051698D01*
X51697285Y-29077983D01*
X51748604Y-29103072D01*
X51748605Y-29103072D01*
X51748607Y-29103073D01*
X51816740Y-29113000D01*
X51816743Y-29113000D01*
X52183258Y-29113000D01*
X52183260Y-29113000D01*
X52183261Y-29112999D01*
X52186831Y-29112741D01*
X52186949Y-29114374D01*
X52241214Y-29123622D01*
X52280451Y-29160901D01*
X52282315Y-29164053D01*
X52398447Y-29280185D01*
X52539799Y-29363780D01*
X52697506Y-29409598D01*
X52697513Y-29409600D01*
X52700000Y-29409795D01*
X52700000Y-28500001D01*
X53200000Y-28500001D01*
X53200000Y-29409795D01*
X53202486Y-29409600D01*
X53202493Y-29409598D01*
X53360200Y-29363780D01*
X53360201Y-29363780D01*
X53501552Y-29280185D01*
X53617685Y-29164052D01*
X53701280Y-29022701D01*
X53701280Y-29022700D01*
X53747100Y-28864989D01*
X53750000Y-28828136D01*
X53750000Y-28500001D01*
X53749999Y-28500000D01*
X53200001Y-28500000D01*
X53200000Y-28500001D01*
X52700000Y-28500001D01*
X52700000Y-28349000D01*
X52718907Y-28290809D01*
X52768407Y-28254845D01*
X52799000Y-28250000D01*
X52949999Y-28250000D01*
X52950000Y-28249999D01*
X52950000Y-28099000D01*
X52968907Y-28040809D01*
X53018407Y-28004845D01*
X53049000Y-28000000D01*
X53749999Y-28000000D01*
X53750000Y-27999999D01*
X53750000Y-27671863D01*
X53747100Y-27635010D01*
X53701280Y-27477299D01*
X53701280Y-27477298D01*
X53617685Y-27335947D01*
X53555208Y-27273470D01*
X54500000Y-27273470D01*
X54500000Y-33634722D01*
G37*
%TD.AperFunction*%
%TD*%
M02*
